<?xml version="1.0" encoding="UTF-8" standalone="no"?>
<svg
   xmlns:dc="http://purl.org/dc/elements/1.1/"
   xmlns:cc="http://creativecommons.org/ns#"
   xmlns:rdf="http://www.w3.org/1999/02/22-rdf-syntax-ns#"
   xmlns:svg="http://www.w3.org/2000/svg"
   xmlns="http://www.w3.org/2000/svg"
   xmlns:sodipodi="http://sodipodi.sourceforge.net/DTD/sodipodi-0.dtd"
   xmlns:inkscape="http://www.inkscape.org/namespaces/inkscape"
   version="1.0"
   width="222.39mm"
   height="88.209999mm"
   id="svg159"
   sodipodi:docname="spulenstrom_ringing.svg"
   inkscape:version="1.0.1 (3bc2e813f5, 2020-09-07)">
  <metadata
     id="metadata163">
    <rdf:RDF>
      <cc:Work
         rdf:about="">
        <dc:format>image/svg+xml</dc:format>
        <dc:type
           rdf:resource="http://purl.org/dc/dcmitype/StillImage" />
        <dc:title></dc:title>
      </cc:Work>
    </rdf:RDF>
  </metadata>
  <sodipodi:namedview
     pagecolor="#ffffff"
     bordercolor="#666666"
     borderopacity="1"
     objecttolerance="10"
     gridtolerance="10"
     guidetolerance="10"
     inkscape:pageopacity="0"
     inkscape:pageshadow="2"
     inkscape:window-width="2560"
     inkscape:window-height="1361"
     id="namedview161"
     showgrid="false"
     inkscape:zoom="1.319407"
     inkscape:cx="420.26457"
     inkscape:cy="166.69606"
     inkscape:window-x="-9"
     inkscape:window-y="-9"
     inkscape:window-maximized="1"
     inkscape:current-layer="svg159" />
  <defs
     id="defs3">
    <pattern
       id="EMFhbasepattern"
       patternUnits="userSpaceOnUse"
       width="6"
       height="6"
       x="0"
       y="0" />
  </defs>
  <path
     style="fill:none;stroke:#000000;stroke-width:0.88251966px;stroke-linecap:round;stroke-linejoin:round;stroke-miterlimit:4;stroke-dasharray:none;stroke-opacity:1;"
     d="  M 33.535748,307.11685   L 33.535748,315.05953  "
     id="path5" />
  <g
     aria-label="2.000ms"
     transform="matrix(1.000000,-0.000000,0.000000,1.000000,61.776378,315.059528)"
     id="text11"
     style="font-style:normal;font-variant:normal;font-weight:700;font-size:15px;line-height:125%;font-family:Arial;text-align:start;letter-spacing:0px;word-spacing:0px;text-anchor:start;fill:#000000;fill-opacity:1;stroke:none">
    <path
       d="m -51.628418,11.66748 v 1.911622 h -7.214355 q 0.117187,-1.083985 0.703125,-2.050782 0.585937,-0.974121 2.314453,-2.5781247 1.391601,-1.2963867 1.706543,-1.7578125 0.424804,-0.637207 0.424804,-1.2597656 0,-0.6884766 -0.373535,-1.0546875 -0.366211,-0.3735352 -1.018066,-0.3735352 -0.644531,0 -1.025391,0.3881836 -0.380859,0.3881836 -0.439453,1.2890625 l -2.050781,-0.2050781 q 0.183105,-1.6992188 1.149902,-2.4389648 0.966797,-0.7397461 2.416992,-0.7397461 1.589356,0 2.497559,0.8569336 0.908203,0.8569335 0.908203,2.1313476 0,0.7250977 -0.263672,1.3842774 -0.256347,0.6518554 -0.820312,1.3696289 -0.373535,0.4760742 -1.347657,1.3696289 -0.974121,0.893555 -1.237793,1.186523 -0.256347,0.292969 -0.41748,0.571289 z"
       style="font-style:normal;font-variant:normal;font-weight:700;font-size:15px;font-family:Arial;fill:#000000"
       id="path1049" />
    <path
       d="m -49.797363,13.579102 v -2.058106 h 2.058105 v 2.058106 z"
       style="font-style:normal;font-variant:normal;font-weight:700;font-size:15px;font-family:Arial;fill:#000000"
       id="path1051" />
    <path
       d="m -42.590332,2.7978516 q 1.560059,0 2.438965,1.1132812 1.047363,1.3183594 1.047363,4.3725586 0,3.0468746 -1.054687,4.3798826 -0.871582,1.098633 -2.431641,1.098633 -1.567383,0 -2.526855,-1.201172 -0.959473,-1.208496 -0.959473,-4.2993162 0,-3.0322266 1.054687,-4.3652344 0.871582,-1.0986328 2.431641,-1.0986328 z m 0,1.7065429 q -0.373535,0 -0.666504,0.2416992 -0.292969,0.234375 -0.454101,0.8496094 -0.212403,0.7983399 -0.212403,2.6879883 0,1.8896486 0.19043,2.6000976 0.19043,0.703125 0.476074,0.9375 0.292969,0.234375 0.666504,0.234375 0.373535,0 0.666504,-0.234375 0.292969,-0.241699 0.454101,-0.856934 0.212403,-0.791015 0.212403,-2.6806636 0,-1.8896484 -0.19043,-2.5927734 -0.19043,-0.7104493 -0.483398,-0.9448243 -0.285645,-0.2416992 -0.65918,-0.2416992 z"
       style="font-style:normal;font-variant:normal;font-weight:700;font-size:15px;font-family:Arial;fill:#000000"
       id="path1053" />
    <path
       d="m -34.248047,2.7978516 q 1.560059,0 2.438965,1.1132812 1.047363,1.3183594 1.047363,4.3725586 0,3.0468746 -1.054687,4.3798826 -0.871582,1.098633 -2.431641,1.098633 -1.567383,0 -2.526855,-1.201172 -0.959473,-1.208496 -0.959473,-4.2993162 0,-3.0322266 1.054688,-4.3652344 0.871582,-1.0986328 2.43164,-1.0986328 z m 0,1.7065429 q -0.373535,0 -0.666504,0.2416992 -0.292969,0.234375 -0.454101,0.8496094 -0.212403,0.7983399 -0.212403,2.6879883 0,1.8896486 0.19043,2.6000976 0.19043,0.703125 0.476074,0.9375 0.292969,0.234375 0.666504,0.234375 0.373535,0 0.666504,-0.234375 0.292969,-0.241699 0.454102,-0.856934 0.212402,-0.791015 0.212402,-2.6806636 0,-1.8896484 -0.19043,-2.5927734 -0.190429,-0.7104493 -0.483398,-0.9448243 -0.285645,-0.2416992 -0.65918,-0.2416992 z"
       style="font-style:normal;font-variant:normal;font-weight:700;font-size:15px;font-family:Arial;fill:#000000"
       id="path1055" />
    <path
       d="m -25.905762,2.7978516 q 1.560059,0 2.438965,1.1132812 1.047363,1.3183594 1.047363,4.3725586 0,3.0468746 -1.054687,4.3798826 -0.871582,1.098633 -2.431641,1.098633 -1.567383,0 -2.526855,-1.201172 -0.959473,-1.208496 -0.959473,-4.2993162 0,-3.0322266 1.054688,-4.3652344 0.871582,-1.0986328 2.43164,-1.0986328 z m 0,1.7065429 q -0.373535,0 -0.666504,0.2416992 -0.292968,0.234375 -0.454101,0.8496094 -0.212403,0.7983399 -0.212403,2.6879883 0,1.8896486 0.19043,2.6000976 0.19043,0.703125 0.476074,0.9375 0.292969,0.234375 0.666504,0.234375 0.373535,0 0.666504,-0.234375 0.292969,-0.241699 0.454102,-0.856934 0.212402,-0.791015 0.212402,-2.6806636 0,-1.8896484 -0.19043,-2.5927734 -0.190429,-0.7104493 -0.483398,-0.9448243 -0.285645,-0.2416992 -0.65918,-0.2416992 z"
       style="font-style:normal;font-variant:normal;font-weight:700;font-size:15px;font-family:Arial;fill:#000000"
       id="path1057" />
    <path
       d="m -20.756836,5.8007812 h 1.896973 V 6.862793 Q -17.841797,5.625 -16.435547,5.625 q 0.74707,0 1.296387,0.3076172 0.549316,0.3076172 0.900879,0.9301758 0.512695,-0.6225586 1.105957,-0.9301758 Q -12.539063,5.625 -11.865234,5.625 q 0.856933,0 1.450195,0.3515625 0.5932617,0.3442383 0.8862304,1.0180664 0.2124023,0.4980469 0.2124023,1.6113281 v 4.973145 H -11.374512 V 9.1333008 q 0,-1.1572266 -0.212402,-1.4941406 -0.285645,-0.4394532 -0.878906,-0.4394532 -0.432129,0 -0.812989,0.2636719 -0.380859,0.2636719 -0.549316,0.7763672 -0.168457,0.5053711 -0.168457,1.6040039 v 3.735352 h -2.058105 V 9.3164063 q 0,-1.135254 -0.109864,-1.4648438 -0.109863,-0.3295898 -0.344238,-0.4907227 -0.227051,-0.1611328 -0.622559,-0.1611328 -0.476074,0 -0.856933,0.2563477 -0.38086,0.2563476 -0.549317,0.7397461 -0.161132,0.4833984 -0.161132,1.6040039 v 3.7792973 h -2.058106 z"
       style="font-style:normal;font-variant:normal;font-weight:700;font-size:15px;font-family:Arial;fill:#000000"
       id="path1059" />
    <path
       d="m -7.9907227,11.359863 2.0654297,-0.314941 q 0.131836,0.600586 0.534668,0.915527 0.402832,0.307617 1.1279297,0.307617 0.7983398,0 1.2011719,-0.292968 0.2709961,-0.205078 0.2709961,-0.549317 0,-0.234375 -0.1464844,-0.388183 -0.1538086,-0.146485 -0.6884766,-0.270996 -2.4902344,-0.549317 -3.1567383,-1.0034184 -0.9228515,-0.6298828 -0.9228515,-1.7504883 0,-1.0107422 0.7983398,-1.6992187 Q -6.1083984,5.625 -4.4311523,5.625 q 1.5966796,0 2.3730468,0.5200195 0.7763672,0.5200196 1.06933597,1.538086 L -2.9296875,8.0419922 Q -3.0541992,7.5878906 -3.4057617,7.3461914 -3.75,7.1044922 -4.3945312,7.1044922 q -0.8129883,0 -1.1645508,0.2270508 -0.234375,0.1611328 -0.234375,0.4174804 0,0.2197266 0.2050781,0.3735352 0.2783203,0.2050781 1.9189453,0.5786133 1.6479492,0.3735351 2.2998047,0.9155273 0.64453124,0.5493168 0.64453124,1.5307618 0,1.069336 -0.89355464,1.838379 -0.8935547,0.769043 -2.644043,0.769043 -1.5893555,0 -2.5195313,-0.644531 -0.9228515,-0.644532 -1.2084961,-1.750489 z"
       style="font-style:normal;font-variant:normal;font-weight:700;font-size:15px;font-family:Arial;fill:#000000"
       id="path1061" />
  </g>
  <path
     style="fill:none;stroke:#000000;stroke-width:0.88251966px;stroke-linecap:round;stroke-linejoin:round;stroke-miterlimit:4;stroke-dasharray:none;stroke-opacity:1;"
     d="  M 345.0652,307.11685   L 345.0652,315.05953  "
     id="path13" />
  <g
     aria-label="2.005ms"
     transform="matrix(1.000000,-0.000000,0.000000,1.000000,373.305827,315.059528)"
     id="text19"
     style="font-style:normal;font-variant:normal;font-weight:700;font-size:15px;line-height:125%;font-family:Arial;text-align:start;letter-spacing:0px;word-spacing:0px;text-anchor:start;fill:#000000;fill-opacity:1;stroke:none">
    <path
       d="m -51.628418,11.66748 v 1.911622 h -7.214355 q 0.117187,-1.083985 0.703125,-2.050782 0.585937,-0.974121 2.314453,-2.5781247 1.391601,-1.2963867 1.706543,-1.7578125 0.424804,-0.637207 0.424804,-1.2597656 0,-0.6884766 -0.373535,-1.0546875 -0.366211,-0.3735352 -1.018066,-0.3735352 -0.644531,0 -1.025391,0.3881836 -0.380859,0.3881836 -0.439453,1.2890625 l -2.050781,-0.2050781 q 0.183105,-1.6992188 1.149902,-2.4389648 0.966797,-0.7397461 2.416992,-0.7397461 1.589356,0 2.497559,0.8569336 0.908203,0.8569335 0.908203,2.1313476 0,0.7250977 -0.263672,1.3842774 -0.256347,0.6518554 -0.820312,1.3696289 -0.373535,0.4760742 -1.347657,1.3696289 -0.974121,0.893555 -1.237793,1.186523 -0.256347,0.292969 -0.41748,0.571289 z"
       style="font-style:normal;font-variant:normal;font-weight:700;font-size:15px;font-family:Arial;fill:#000000"
       id="path1064" />
    <path
       d="m -49.797363,13.579102 v -2.058106 h 2.058105 v 2.058106 z"
       style="font-style:normal;font-variant:normal;font-weight:700;font-size:15px;font-family:Arial;fill:#000000"
       id="path1066" />
    <path
       d="m -42.590332,2.7978516 q 1.560059,0 2.438965,1.1132812 1.047363,1.3183594 1.047363,4.3725586 0,3.0468746 -1.054687,4.3798826 -0.871582,1.098633 -2.431641,1.098633 -1.567383,0 -2.526855,-1.201172 -0.959473,-1.208496 -0.959473,-4.2993162 0,-3.0322266 1.054687,-4.3652344 0.871582,-1.0986328 2.431641,-1.0986328 z m 0,1.7065429 q -0.373535,0 -0.666504,0.2416992 -0.292969,0.234375 -0.454101,0.8496094 -0.212403,0.7983399 -0.212403,2.6879883 0,1.8896486 0.19043,2.6000976 0.19043,0.703125 0.476074,0.9375 0.292969,0.234375 0.666504,0.234375 0.373535,0 0.666504,-0.234375 0.292969,-0.241699 0.454101,-0.856934 0.212403,-0.791015 0.212403,-2.6806636 0,-1.8896484 -0.19043,-2.5927734 -0.19043,-0.7104493 -0.483398,-0.9448243 -0.285645,-0.2416992 -0.65918,-0.2416992 z"
       style="font-style:normal;font-variant:normal;font-weight:700;font-size:15px;font-family:Arial;fill:#000000"
       id="path1068" />
    <path
       d="m -34.248047,2.7978516 q 1.560059,0 2.438965,1.1132812 1.047363,1.3183594 1.047363,4.3725586 0,3.0468746 -1.054687,4.3798826 -0.871582,1.098633 -2.431641,1.098633 -1.567383,0 -2.526855,-1.201172 -0.959473,-1.208496 -0.959473,-4.2993162 0,-3.0322266 1.054688,-4.3652344 0.871582,-1.0986328 2.43164,-1.0986328 z m 0,1.7065429 q -0.373535,0 -0.666504,0.2416992 -0.292969,0.234375 -0.454101,0.8496094 -0.212403,0.7983399 -0.212403,2.6879883 0,1.8896486 0.19043,2.6000976 0.19043,0.703125 0.476074,0.9375 0.292969,0.234375 0.666504,0.234375 0.373535,0 0.666504,-0.234375 0.292969,-0.241699 0.454102,-0.856934 0.212402,-0.791015 0.212402,-2.6806636 0,-1.8896484 -0.19043,-2.5927734 -0.190429,-0.7104493 -0.483398,-0.9448243 -0.285645,-0.2416992 -0.65918,-0.2416992 z"
       style="font-style:normal;font-variant:normal;font-weight:700;font-size:15px;font-family:Arial;fill:#000000"
       id="path1070" />
    <path
       d="m -29.355469,10.817871 2.050782,-0.212402 q 0.08789,0.695801 0.520019,1.105957 0.432129,0.402832 0.996094,0.402832 0.644531,0 1.091308,-0.52002 0.446778,-0.527343 0.446778,-1.582031 0,-0.9887695 -0.446778,-1.4794922 -0.439453,-0.4980468 -1.149902,-0.4980468 -0.88623,0 -1.589355,0.7836914 l -1.669922,-0.2416992 1.054687,-5.5883789 h 5.441895 v 1.9262695 h -3.881836 l -0.322266,1.8237304 q 0.688477,-0.3442382 1.40625,-0.3442382 1.369629,0 2.321778,0.9960937 0.952148,0.9960938 0.952148,2.5854492 0,1.3256841 -0.769043,2.3657231 -1.047363,1.420898 -2.907715,1.420898 -1.486816,0 -2.424316,-0.79834 -0.9375,-0.79834 -1.120606,-2.145996 z"
       style="font-style:normal;font-variant:normal;font-weight:700;font-size:15px;font-family:Arial;fill:#000000"
       id="path1072" />
    <path
       d="m -20.756836,5.8007812 h 1.896973 V 6.862793 Q -17.841797,5.625 -16.435547,5.625 q 0.74707,0 1.296387,0.3076172 0.549316,0.3076172 0.900879,0.9301758 0.512695,-0.6225586 1.105957,-0.9301758 Q -12.539063,5.625 -11.865234,5.625 q 0.856933,0 1.450195,0.3515625 0.5932617,0.3442383 0.8862304,1.0180664 0.2124023,0.4980469 0.2124023,1.6113281 v 4.973145 H -11.374512 V 9.1333008 q 0,-1.1572266 -0.212402,-1.4941406 -0.285645,-0.4394532 -0.878906,-0.4394532 -0.432129,0 -0.812989,0.2636719 -0.380859,0.2636719 -0.549316,0.7763672 -0.168457,0.5053711 -0.168457,1.6040039 v 3.735352 h -2.058105 V 9.3164063 q 0,-1.135254 -0.109864,-1.4648438 -0.109863,-0.3295898 -0.344238,-0.4907227 -0.227051,-0.1611328 -0.622559,-0.1611328 -0.476074,0 -0.856933,0.2563477 -0.38086,0.2563476 -0.549317,0.7397461 -0.161132,0.4833984 -0.161132,1.6040039 v 3.7792973 h -2.058106 z"
       style="font-style:normal;font-variant:normal;font-weight:700;font-size:15px;font-family:Arial;fill:#000000"
       id="path1074" />
    <path
       d="m -7.9907227,11.359863 2.0654297,-0.314941 q 0.131836,0.600586 0.534668,0.915527 0.402832,0.307617 1.1279297,0.307617 0.7983398,0 1.2011719,-0.292968 0.2709961,-0.205078 0.2709961,-0.549317 0,-0.234375 -0.1464844,-0.388183 -0.1538086,-0.146485 -0.6884766,-0.270996 -2.4902344,-0.549317 -3.1567383,-1.0034184 -0.9228515,-0.6298828 -0.9228515,-1.7504883 0,-1.0107422 0.7983398,-1.6992187 Q -6.1083984,5.625 -4.4311523,5.625 q 1.5966796,0 2.3730468,0.5200195 0.7763672,0.5200196 1.06933597,1.538086 L -2.9296875,8.0419922 Q -3.0541992,7.5878906 -3.4057617,7.3461914 -3.75,7.1044922 -4.3945312,7.1044922 q -0.8129883,0 -1.1645508,0.2270508 -0.234375,0.1611328 -0.234375,0.4174804 0,0.2197266 0.2050781,0.3735352 0.2783203,0.2050781 1.9189453,0.5786133 1.6479492,0.3735351 2.2998047,0.9155273 0.64453124,0.5493168 0.64453124,1.5307618 0,1.069336 -0.89355464,1.838379 -0.8935547,0.769043 -2.644043,0.769043 -1.5893555,0 -2.5195313,-0.644531 -0.9228515,-0.644532 -1.2084961,-1.750489 z"
       style="font-style:normal;font-variant:normal;font-weight:700;font-size:15px;font-family:Arial;fill:#000000"
       id="path1076" />
  </g>
  <path
     style="fill:none;stroke:#000000;stroke-width:0.88251966px;stroke-linecap:round;stroke-linejoin:round;stroke-miterlimit:4;stroke-dasharray:none;stroke-opacity:1;"
     d="  M 657.47717,307.11685   L 657.47717,315.05953  "
     id="path21" />
  <g
     aria-label="2.010ms"
     transform="matrix(1.000000,-0.000000,0.000000,1.000000,685.717795,315.059528)"
     id="text27"
     style="font-style:normal;font-variant:normal;font-weight:700;font-size:15px;line-height:125%;font-family:Arial;text-align:start;letter-spacing:0px;word-spacing:0px;text-anchor:start;fill:#000000;fill-opacity:1;stroke:none">
    <path
       d="m -51.628418,11.66748 v 1.911622 h -7.214355 q 0.117187,-1.083985 0.703125,-2.050782 0.585937,-0.974121 2.314453,-2.5781247 1.391601,-1.2963867 1.706543,-1.7578125 0.424804,-0.637207 0.424804,-1.2597656 0,-0.6884766 -0.373535,-1.0546875 -0.366211,-0.3735352 -1.018066,-0.3735352 -0.644531,0 -1.025391,0.3881836 -0.380859,0.3881836 -0.439453,1.2890625 l -2.050781,-0.2050781 q 0.183105,-1.6992188 1.149902,-2.4389648 0.966797,-0.7397461 2.416992,-0.7397461 1.589356,0 2.497559,0.8569336 0.908203,0.8569335 0.908203,2.1313476 0,0.7250977 -0.263672,1.3842774 -0.256347,0.6518554 -0.820312,1.3696289 -0.373535,0.4760742 -1.347657,1.3696289 -0.974121,0.893555 -1.237793,1.186523 -0.256347,0.292969 -0.41748,0.571289 z"
       style="font-style:normal;font-variant:normal;font-weight:700;font-size:15px;font-family:Arial;fill:#000000"
       id="path1079" />
    <path
       d="m -49.797363,13.579102 v -2.058106 h 2.058105 v 2.058106 z"
       style="font-style:normal;font-variant:normal;font-weight:700;font-size:15px;font-family:Arial;fill:#000000"
       id="path1081" />
    <path
       d="m -42.590332,2.7978516 q 1.560059,0 2.438965,1.1132812 1.047363,1.3183594 1.047363,4.3725586 0,3.0468746 -1.054687,4.3798826 -0.871582,1.098633 -2.431641,1.098633 -1.567383,0 -2.526855,-1.201172 -0.959473,-1.208496 -0.959473,-4.2993162 0,-3.0322266 1.054687,-4.3652344 0.871582,-1.0986328 2.431641,-1.0986328 z m 0,1.7065429 q -0.373535,0 -0.666504,0.2416992 -0.292969,0.234375 -0.454101,0.8496094 -0.212403,0.7983399 -0.212403,2.6879883 0,1.8896486 0.19043,2.6000976 0.19043,0.703125 0.476074,0.9375 0.292969,0.234375 0.666504,0.234375 0.373535,0 0.666504,-0.234375 0.292969,-0.241699 0.454101,-0.856934 0.212403,-0.791015 0.212403,-2.6806636 0,-1.8896484 -0.19043,-2.5927734 -0.19043,-0.7104493 -0.483398,-0.9448243 -0.285645,-0.2416992 -0.65918,-0.2416992 z"
       style="font-style:normal;font-variant:normal;font-weight:700;font-size:15px;font-family:Arial;fill:#000000"
       id="path1083" />
    <path
       d="m -32.460937,13.579102 h -2.058106 V 5.8227539 q -1.12793,1.0546875 -2.658691,1.5600586 V 5.5151367 q 0.805664,-0.2636719 1.750488,-0.9960937 0.944824,-0.7397461 1.296387,-1.7211914 h 1.669922 z"
       style="font-style:normal;font-variant:normal;font-weight:700;font-size:15px;font-family:Arial;fill:#000000"
       id="path1085" />
    <path
       d="m -25.905762,2.7978516 q 1.560059,0 2.438965,1.1132812 1.047363,1.3183594 1.047363,4.3725586 0,3.0468746 -1.054687,4.3798826 -0.871582,1.098633 -2.431641,1.098633 -1.567383,0 -2.526855,-1.201172 -0.959473,-1.208496 -0.959473,-4.2993162 0,-3.0322266 1.054688,-4.3652344 0.871582,-1.0986328 2.43164,-1.0986328 z m 0,1.7065429 q -0.373535,0 -0.666504,0.2416992 -0.292968,0.234375 -0.454101,0.8496094 -0.212403,0.7983399 -0.212403,2.6879883 0,1.8896486 0.19043,2.6000976 0.19043,0.703125 0.476074,0.9375 0.292969,0.234375 0.666504,0.234375 0.373535,0 0.666504,-0.234375 0.292969,-0.241699 0.454102,-0.856934 0.212402,-0.791015 0.212402,-2.6806636 0,-1.8896484 -0.19043,-2.5927734 -0.190429,-0.7104493 -0.483398,-0.9448243 -0.285645,-0.2416992 -0.65918,-0.2416992 z"
       style="font-style:normal;font-variant:normal;font-weight:700;font-size:15px;font-family:Arial;fill:#000000"
       id="path1087" />
    <path
       d="m -20.756836,5.8007812 h 1.896973 V 6.862793 Q -17.841797,5.625 -16.435547,5.625 q 0.74707,0 1.296387,0.3076172 0.549316,0.3076172 0.900879,0.9301758 0.512695,-0.6225586 1.105957,-0.9301758 Q -12.539063,5.625 -11.865234,5.625 q 0.856933,0 1.450195,0.3515625 0.5932617,0.3442383 0.8862304,1.0180664 0.2124023,0.4980469 0.2124023,1.6113281 v 4.973145 H -11.374512 V 9.1333008 q 0,-1.1572266 -0.212402,-1.4941406 -0.285645,-0.4394532 -0.878906,-0.4394532 -0.432129,0 -0.812989,0.2636719 -0.380859,0.2636719 -0.549316,0.7763672 -0.168457,0.5053711 -0.168457,1.6040039 v 3.735352 h -2.058105 V 9.3164063 q 0,-1.135254 -0.109864,-1.4648438 -0.109863,-0.3295898 -0.344238,-0.4907227 -0.227051,-0.1611328 -0.622559,-0.1611328 -0.476074,0 -0.856933,0.2563477 -0.38086,0.2563476 -0.549317,0.7397461 -0.161132,0.4833984 -0.161132,1.6040039 v 3.7792973 h -2.058106 z"
       style="font-style:normal;font-variant:normal;font-weight:700;font-size:15px;font-family:Arial;fill:#000000"
       id="path1089" />
    <path
       d="m -7.9907227,11.359863 2.0654297,-0.314941 q 0.131836,0.600586 0.534668,0.915527 0.402832,0.307617 1.1279297,0.307617 0.7983398,0 1.2011719,-0.292968 0.2709961,-0.205078 0.2709961,-0.549317 0,-0.234375 -0.1464844,-0.388183 -0.1538086,-0.146485 -0.6884766,-0.270996 -2.4902344,-0.549317 -3.1567383,-1.0034184 -0.9228515,-0.6298828 -0.9228515,-1.7504883 0,-1.0107422 0.7983398,-1.6992187 Q -6.1083984,5.625 -4.4311523,5.625 q 1.5966796,0 2.3730468,0.5200195 0.7763672,0.5200196 1.06933597,1.538086 L -2.9296875,8.0419922 Q -3.0541992,7.5878906 -3.4057617,7.3461914 -3.75,7.1044922 -4.3945312,7.1044922 q -0.8129883,0 -1.1645508,0.2270508 -0.234375,0.1611328 -0.234375,0.4174804 0,0.2197266 0.2050781,0.3735352 0.2783203,0.2050781 1.9189453,0.5786133 1.6479492,0.3735351 2.2998047,0.9155273 0.64453124,0.5493168 0.64453124,1.5307618 0,1.069336 -0.89355464,1.838379 -0.8935547,0.769043 -2.644043,0.769043 -1.5893555,0 -2.5195313,-0.644531 -0.9228515,-0.644532 -1.2084961,-1.750489 z"
       style="font-style:normal;font-variant:normal;font-weight:700;font-size:15px;font-family:Arial;fill:#000000"
       id="path1091" />
  </g>
  <g
     aria-label="-1V"
     transform="matrix(1.000000,-0.000000,0.000000,1.000000,685.717795,315.059528)"
     id="text33"
     style="font-style:normal;font-variant:normal;font-weight:700;font-size:15px;line-height:125%;font-family:Arial;text-align:start;letter-spacing:0px;word-spacing:0px;text-anchor:start;fill:#000000;fill-opacity:1;stroke:none">
    <path
       d="M -682.62469,-5.1700225 V -7.228128 h 4.04296 v 2.0581055 z"
       style="font-style:normal;font-variant:normal;font-weight:700;font-size:15px;font-family:Arial;fill:#000000"
       id="path1042" />
    <path
       d="m -672.56854,-2.306253 h -2.05811 v -7.756348 q -1.12793,1.0546879 -2.65869,1.560059 v -1.867676 q 0.80566,-0.263672 1.75049,-0.996094 0.94482,-0.739746 1.29639,-1.721191 h 1.66992 z"
       style="font-style:normal;font-variant:normal;font-weight:700;font-size:15px;font-family:Arial;fill:#000000"
       id="path1044" />
    <path
       d="m -666.29901,-2.306253 -3.83789,-10.737305 h 2.35107 l 2.71729,7.9467777 2.62939,-7.9467777 h 2.29981 l -3.84522,10.737305 z"
       style="font-style:normal;font-variant:normal;font-weight:700;font-size:15px;font-family:Arial;fill:#000000"
       id="path1046" />
  </g>
  <path
     style="fill:none;stroke:#000000;stroke-width:0.88251966px;stroke-linecap:round;stroke-linejoin:round;stroke-miterlimit:4;stroke-dasharray:none;stroke-opacity:1;"
     d="  M 33.535748,307.11685   L 25.593071,307.11685  "
     id="path35" />
  <g
     aria-label="1V"
     transform="matrix(1.000000,-0.000000,0.000000,1.000000,25.593071,260.343307)"
     id="text41"
     style="font-style:normal;font-variant:normal;font-weight:700;font-size:15px;line-height:125%;font-family:Arial;text-align:start;letter-spacing:0px;word-spacing:0px;text-anchor:start;fill:#000000;fill-opacity:1;stroke:none">
    <path
       d="m -12.443848,13.579102 h -2.058105 V 5.8227539 q -1.12793,1.0546875 -2.658692,1.5600586 V 5.5151367 q 0.805665,-0.2636719 1.750489,-0.9960937 0.944824,-0.7397461 1.296386,-1.7211914 h 1.669922 z"
       style="font-style:normal;font-variant:normal;font-weight:700;font-size:15px;font-family:Arial;fill:#000000"
       id="path1037" />
    <path
       d="M -6.1743164,13.579102 -10.012207,2.8417969 h 2.3510742 l 2.7172851,7.9467771 2.6293946,-7.9467771 h 2.29980466 L -3.8598633,13.579102 Z"
       style="font-style:normal;font-variant:normal;font-weight:700;font-size:15px;font-family:Arial;fill:#000000"
       id="path1039" />
  </g>
  <path
     style="fill:none;stroke:#000000;stroke-width:0.88251966px;stroke-linecap:round;stroke-linejoin:round;stroke-miterlimit:4;stroke-dasharray:none;stroke-opacity:1;"
     d="  M 33.535748,268.28598   L 25.593071,268.28598  "
     id="path43" />
  <g
     aria-label="3V"
     transform="matrix(1.000000,-0.000000,0.000000,1.000000,25.593071,222.394961)"
     id="text49"
     style="font-style:normal;font-variant:normal;font-weight:700;font-size:15px;line-height:125%;font-family:Arial;text-align:start;letter-spacing:0px;word-spacing:0px;text-anchor:start;fill:#000000;fill-opacity:1;stroke:none">
    <path
       d="m -17.783203,10.72998 1.992187,-0.241699 q 0.09522,0.761719 0.512696,1.164551 0.41748,0.402832 1.010742,0.402832 0.637207,0 1.069336,-0.483398 0.439453,-0.483399 0.439453,-1.303711 0,-0.7763675 -0.417481,-1.2304691 -0.41748,-0.4541015 -1.018066,-0.4541015 -0.395508,0 -0.944824,0.1538086 l 0.227051,-1.6772461 q 0.834961,0.021973 1.274414,-0.3588867 0.439453,-0.3881836 0.439453,-1.0253907 0,-0.5419922 -0.322266,-0.8642578 -0.322265,-0.3222656 -0.856933,-0.3222656 -0.527344,0 -0.900879,0.3662109 -0.373535,0.366211 -0.454102,1.069336 l -1.896973,-0.3222657 q 0.197754,-0.9741211 0.593262,-1.5527343 0.402832,-0.5859375 1.113281,-0.9155274 0.717774,-0.336914 1.604004,-0.336914 1.516114,0 2.431641,0.9667968 0.754394,0.7910157 0.754394,1.7871094 0,1.4135742 -1.54541,2.2558594 0.922852,0.1977539 1.472168,0.8862305 0.556641,0.6884765 0.556641,1.6625973 0,1.413575 -1.032715,2.409668 -1.032715,0.996094 -2.570801,0.996094 -1.457519,0 -2.416992,-0.834961 -0.959473,-0.842285 -1.113281,-2.197266 z"
       style="font-style:normal;font-variant:normal;font-weight:700;font-size:15px;font-family:Arial;fill:#000000"
       id="path1032" />
    <path
       d="M -6.1743164,13.579102 -10.012207,2.8417969 h 2.3510742 l 2.7172851,7.9467771 2.6293946,-7.9467771 h 2.29980466 L -3.8598633,13.579102 Z"
       style="font-style:normal;font-variant:normal;font-weight:700;font-size:15px;font-family:Arial;fill:#000000"
       id="path1034" />
  </g>
  <path
     style="fill:none;stroke:#000000;stroke-width:0.88251966px;stroke-linecap:round;stroke-linejoin:round;stroke-miterlimit:4;stroke-dasharray:none;stroke-opacity:1;"
     d="  M 33.535748,230.33764   L 25.593071,230.33764  "
     id="path51" />
  <g
     aria-label="5V"
     transform="matrix(1.000000,-0.000000,0.000000,1.000000,25.593071,183.564094)"
     id="text57"
     style="font-style:normal;font-variant:normal;font-weight:700;font-size:15px;line-height:125%;font-family:Arial;text-align:start;letter-spacing:0px;word-spacing:0px;text-anchor:start;fill:#000000;fill-opacity:1;stroke:none">
    <path
       d="m -17.680664,10.817871 2.050781,-0.212402 q 0.08789,0.695801 0.52002,1.105957 0.432129,0.402832 0.996093,0.402832 0.644532,0 1.091309,-0.52002 0.446777,-0.527343 0.446777,-1.582031 0,-0.9887695 -0.446777,-1.4794922 -0.439453,-0.4980468 -1.149902,-0.4980468 -0.886231,0 -1.589356,0.7836914 l -1.669922,-0.2416992 1.054688,-5.5883789 h 5.441894 v 1.9262695 h -3.881836 l -0.322265,1.8237304 q 0.688476,-0.3442382 1.40625,-0.3442382 1.369629,0 2.321777,0.9960937 0.952149,0.9960938 0.952149,2.5854492 0,1.3256841 -0.769043,2.3657231 -1.047364,1.420898 -2.907715,1.420898 -1.486817,0 -2.424317,-0.79834 -0.9375,-0.79834 -1.120605,-2.145996 z"
       style="font-style:normal;font-variant:normal;font-weight:700;font-size:15px;font-family:Arial;fill:#000000"
       id="path1027" />
    <path
       d="M -6.1743164,13.579102 -10.012207,2.8417969 h 2.3510742 l 2.7172851,7.9467771 2.6293946,-7.9467771 h 2.29980466 L -3.8598633,13.579102 Z"
       style="font-style:normal;font-variant:normal;font-weight:700;font-size:15px;font-family:Arial;fill:#000000"
       id="path1029" />
  </g>
  <path
     style="fill:none;stroke:#000000;stroke-width:0.88251966px;stroke-linecap:round;stroke-linejoin:round;stroke-miterlimit:4;stroke-dasharray:none;stroke-opacity:1;"
     d="  M 33.535748,191.50677   L 25.593071,191.50677  "
     id="path59" />
  <g
     aria-label="7V"
     transform="matrix(1.000000,-0.000000,0.000000,1.000000,25.593071,145.615748)"
     id="text65"
     style="font-style:normal;font-variant:normal;font-weight:700;font-size:15px;line-height:125%;font-family:Arial;text-align:start;letter-spacing:0px;word-spacing:0px;text-anchor:start;fill:#000000;fill-opacity:1;stroke:none">
    <path
       d="m -17.709961,4.8999023 v -1.911621 h 7.038574 v 1.4941406 q -0.871582,0.8569336 -1.772461,2.4609375 -0.900879,1.6040039 -1.376953,3.4130856 -0.46875,1.801758 -0.461426,3.222657 h -1.984863 q 0.05127,-2.226563 0.915527,-4.5410161 0.871583,-2.3144531 2.321778,-4.1381836 z"
       style="font-style:normal;font-variant:normal;font-weight:700;font-size:15px;font-family:Arial;fill:#000000"
       id="path1022" />
    <path
       d="M -6.1743164,13.579102 -10.012207,2.8417969 h 2.3510742 l 2.7172851,7.9467771 2.6293946,-7.9467771 h 2.29980466 L -3.8598633,13.579102 Z"
       style="font-style:normal;font-variant:normal;font-weight:700;font-size:15px;font-family:Arial;fill:#000000"
       id="path1024" />
  </g>
  <path
     style="fill:none;stroke:#000000;stroke-width:0.88251966px;stroke-linecap:round;stroke-linejoin:round;stroke-miterlimit:4;stroke-dasharray:none;stroke-opacity:1;"
     d="  M 33.535748,153.55843   L 25.593071,153.55843  "
     id="path67" />
  <g
     aria-label="9V"
     transform="matrix(1.000000,-0.000000,0.000000,1.000000,25.593071,106.784882)"
     id="text73"
     style="font-style:normal;font-variant:normal;font-weight:700;font-size:15px;line-height:125%;font-family:Arial;text-align:start;letter-spacing:0px;word-spacing:0px;text-anchor:start;fill:#000000;fill-opacity:1;stroke:none">
    <path
       d="m -17.666016,11.096191 1.992188,-0.219726 q 0.07324,0.60791 0.380859,0.900879 0.307617,0.292969 0.812989,0.292969 0.637207,0 1.083984,-0.585938 0.446777,-0.585937 0.571289,-2.4316406 -0.776367,0.9008789 -1.940918,0.9008789 -1.26709,0 -2.189941,-0.9741211 -0.915528,-0.9814453 -0.915528,-2.5488281 0,-1.6333008 0.966797,-2.6293946 0.974121,-1.0034179 2.475586,-1.0034179 1.633301,0 2.680664,1.2670898 1.047363,1.2597656 1.047363,4.152832 0,2.9443356 -1.091308,4.2480466 -1.091309,1.303711 -2.841797,1.303711 -1.259766,0 -2.036133,-0.666504 -0.776367,-0.673828 -0.996094,-2.006836 z m 4.658203,-4.4970699 q 0,-0.9960938 -0.461425,-1.5454102 -0.454102,-0.5493164 -1.054688,-0.5493164 -0.571289,0 -0.952148,0.4541016 -0.373535,0.4467773 -0.373535,1.472168 0,1.040039 0.410156,1.5307617 0.410156,0.4833984 1.02539,0.4833984 0.593262,0 0.996094,-0.46875 0.410156,-0.46875 0.410156,-1.3769531 z"
       style="font-style:normal;font-variant:normal;font-weight:700;font-size:15px;font-family:Arial;fill:#000000"
       id="path1017" />
    <path
       d="M -6.1743164,13.579102 -10.012207,2.8417969 h 2.3510742 l 2.7172851,7.9467771 2.6293946,-7.9467771 h 2.29980466 L -3.8598633,13.579102 Z"
       style="font-style:normal;font-variant:normal;font-weight:700;font-size:15px;font-family:Arial;fill:#000000"
       id="path1019" />
  </g>
  <path
     style="fill:none;stroke:#000000;stroke-width:0.88251966px;stroke-linecap:round;stroke-linejoin:round;stroke-miterlimit:4;stroke-dasharray:none;stroke-opacity:1;"
     d="  M 33.535748,114.72756   L 25.593071,114.72756  "
     id="path75" />
  <g
     aria-label="11V"
     transform="matrix(1.000000,-0.000000,0.000000,1.000000,25.593071,67.954016)"
     id="text81"
     style="font-style:normal;font-variant:normal;font-weight:700;font-size:15px;line-height:125%;font-family:Arial;text-align:start;letter-spacing:0px;word-spacing:0px;text-anchor:start;fill:#000000;fill-opacity:1;stroke:none">
    <path
       d="m -19.958496,13.579102 h -2.058106 V 5.8227539 q -1.127929,1.0546875 -2.658691,1.5600586 V 5.5151367 q 0.805664,-0.2636719 1.750488,-0.9960937 0.944825,-0.7397461 1.296387,-1.7211914 h 1.669922 z"
       style="font-style:normal;font-variant:normal;font-weight:700;font-size:15px;font-family:Arial;fill:#000000"
       id="path1010" />
    <path
       d="m -12.443848,13.579102 h -2.058105 V 5.8227539 q -1.12793,1.0546875 -2.658692,1.5600586 V 5.5151367 q 0.805665,-0.2636719 1.750489,-0.9960937 0.944824,-0.7397461 1.296386,-1.7211914 h 1.669922 z"
       style="font-style:normal;font-variant:normal;font-weight:700;font-size:15px;font-family:Arial;fill:#000000"
       id="path1012" />
    <path
       d="M -6.1743164,13.579102 -10.012207,2.8417969 h 2.3510742 l 2.7172851,7.9467771 2.6293946,-7.9467771 h 2.29980466 L -3.8598633,13.579102 Z"
       style="font-style:normal;font-variant:normal;font-weight:700;font-size:15px;font-family:Arial;fill:#000000"
       id="path1014" />
  </g>
  <path
     style="fill:none;stroke:#000000;stroke-width:0.88251966px;stroke-linecap:round;stroke-linejoin:round;stroke-miterlimit:4;stroke-dasharray:none;stroke-opacity:1;"
     d="  M 33.535748,75.896693   L 25.593071,75.896693  "
     id="path83" />
  <g
     aria-label="13V"
     transform="matrix(1.000000,-0.000000,0.000000,1.000000,25.593071,30.005669)"
     id="text89"
     style="font-style:normal;font-variant:normal;font-weight:700;font-size:15px;line-height:125%;font-family:Arial;text-align:start;letter-spacing:0px;word-spacing:0px;text-anchor:start;fill:#000000;fill-opacity:1;stroke:none">
    <path
       d="m -20.786133,13.579102 h -2.058105 V 5.8227539 q -1.12793,1.0546875 -2.658692,1.5600586 V 5.5151367 q 0.805664,-0.2636719 1.750489,-0.9960937 0.944824,-0.7397461 1.296386,-1.7211914 h 1.669922 z"
       style="font-style:normal;font-variant:normal;font-weight:700;font-size:15px;font-family:Arial;fill:#000000"
       id="path1003" />
    <path
       d="m -17.783203,10.72998 1.992187,-0.241699 q 0.09522,0.761719 0.512696,1.164551 0.41748,0.402832 1.010742,0.402832 0.637207,0 1.069336,-0.483398 0.439453,-0.483399 0.439453,-1.303711 0,-0.7763675 -0.417481,-1.2304691 -0.41748,-0.4541015 -1.018066,-0.4541015 -0.395508,0 -0.944824,0.1538086 l 0.227051,-1.6772461 q 0.834961,0.021973 1.274414,-0.3588867 0.439453,-0.3881836 0.439453,-1.0253907 0,-0.5419922 -0.322266,-0.8642578 -0.322265,-0.3222656 -0.856933,-0.3222656 -0.527344,0 -0.900879,0.3662109 -0.373535,0.366211 -0.454102,1.069336 l -1.896973,-0.3222657 q 0.197754,-0.9741211 0.593262,-1.5527343 0.402832,-0.5859375 1.113281,-0.9155274 0.717774,-0.336914 1.604004,-0.336914 1.516114,0 2.431641,0.9667968 0.754394,0.7910157 0.754394,1.7871094 0,1.4135742 -1.54541,2.2558594 0.922852,0.1977539 1.472168,0.8862305 0.556641,0.6884765 0.556641,1.6625973 0,1.413575 -1.032715,2.409668 -1.032715,0.996094 -2.570801,0.996094 -1.457519,0 -2.416992,-0.834961 -0.959473,-0.842285 -1.113281,-2.197266 z"
       style="font-style:normal;font-variant:normal;font-weight:700;font-size:15px;font-family:Arial;fill:#000000"
       id="path1005" />
    <path
       d="M -6.1743164,13.579102 -10.012207,2.8417969 h 2.3510742 l 2.7172851,7.9467771 2.6293946,-7.9467771 h 2.29980466 L -3.8598633,13.579102 Z"
       style="font-style:normal;font-variant:normal;font-weight:700;font-size:15px;font-family:Arial;fill:#000000"
       id="path1007" />
  </g>
  <path
     style="fill:none;stroke:#000000;stroke-width:0.88251966px;stroke-linecap:round;stroke-linejoin:round;stroke-miterlimit:4;stroke-dasharray:none;stroke-opacity:1;"
     d="  M 33.535748,37.948346   L 25.593071,37.948346  "
     id="path91" />
  <g
     aria-label="-50mA"
     transform="matrix(1.000000,-0.000000,0.000000,1.000000,837.511181,299.174173)"
     id="text97"
     style="font-style:normal;font-variant:normal;font-weight:700;font-size:15px;line-height:125%;font-family:Arial;text-align:start;letter-spacing:0px;word-spacing:0px;text-anchor:start;fill:#000000;fill-opacity:1;stroke:none">
    <path
       d="M -45.007324,10.715332 V 8.6572266 h 4.042969 v 2.0581054 z"
       style="font-style:normal;font-variant:normal;font-weight:700;font-size:15px;font-family:Arial;fill:#000000"
       id="path1094" />
    <path
       d="m -40.187988,10.817871 2.050781,-0.212402 q 0.08789,0.695801 0.52002,1.105957 0.432128,0.402832 0.996093,0.402832 0.644532,0 1.091309,-0.52002 0.446777,-0.527343 0.446777,-1.582031 0,-0.9887695 -0.446777,-1.4794922 -0.439453,-0.4980468 -1.149902,-0.4980468 -0.886231,0 -1.589356,0.7836914 l -1.669922,-0.2416992 1.054688,-5.5883789 h 5.441894 v 1.9262695 h -3.881836 l -0.322265,1.8237304 q 0.688476,-0.3442382 1.40625,-0.3442382 1.369629,0 2.321777,0.9960937 0.952148,0.9960938 0.952148,2.5854492 0,1.3256841 -0.769043,2.3657231 -1.047363,1.420898 -2.907714,1.420898 -1.486817,0 -2.424317,-0.79834 -0.9375,-0.79834 -1.120605,-2.145996 z"
       style="font-style:normal;font-variant:normal;font-weight:700;font-size:15px;font-family:Arial;fill:#000000"
       id="path1096" />
    <path
       d="m -28.395996,2.7978516 q 1.560059,0 2.438965,1.1132812 1.047363,1.3183594 1.047363,4.3725586 0,3.0468746 -1.054687,4.3798826 -0.871582,1.098633 -2.431641,1.098633 -1.567383,0 -2.526856,-1.201172 -0.959472,-1.208496 -0.959472,-4.2993162 0,-3.0322266 1.054687,-4.3652344 0.871582,-1.0986328 2.431641,-1.0986328 z m 0,1.7065429 q -0.373535,0 -0.666504,0.2416992 -0.292969,0.234375 -0.454102,0.8496094 -0.212402,0.7983399 -0.212402,2.6879883 0,1.8896486 0.19043,2.6000976 0.190429,0.703125 0.476074,0.9375 0.292969,0.234375 0.666504,0.234375 0.373535,0 0.666504,-0.234375 0.292969,-0.241699 0.454101,-0.856934 0.212403,-0.791015 0.212403,-2.6806636 0,-1.8896484 -0.19043,-2.5927734 -0.19043,-0.7104493 -0.483398,-0.9448243 -0.285645,-0.2416992 -0.65918,-0.2416992 z"
       style="font-style:normal;font-variant:normal;font-weight:700;font-size:15px;font-family:Arial;fill:#000000"
       id="path1098" />
    <path
       d="m -23.24707,5.8007812 h 1.896972 V 6.862793 Q -20.332031,5.625 -18.925781,5.625 q 0.74707,0 1.296386,0.3076172 0.549317,0.3076172 0.900879,0.9301758 0.512696,-0.6225586 1.105957,-0.9301758 Q -15.029297,5.625 -14.355469,5.625 q 0.856934,0 1.450196,0.3515625 0.593261,0.3442383 0.88623,1.0180664 0.212402,0.4980469 0.212402,1.6113281 v 4.973145 h -2.058105 V 9.1333008 q 0,-1.1572266 -0.212402,-1.4941406 -0.285645,-0.4394532 -0.878907,-0.4394532 -0.432129,0 -0.812988,0.2636719 -0.380859,0.2636719 -0.549316,0.7763672 -0.168457,0.5053711 -0.168457,1.6040039 v 3.735352 h -2.058106 V 9.3164063 q 0,-1.135254 -0.109863,-1.4648438 -0.109863,-0.3295898 -0.344238,-0.4907227 -0.227051,-0.1611328 -0.622559,-0.1611328 -0.476074,0 -0.856934,0.2563477 -0.380859,0.2563476 -0.549316,0.7397461 -0.161133,0.4833984 -0.161133,1.6040039 v 3.7792973 h -2.058105 z"
       style="font-style:normal;font-variant:normal;font-weight:700;font-size:15px;font-family:Arial;fill:#000000"
       id="path1100" />
    <path
       d="M -0.05859375,13.579102 H -2.4169922 l -0.9375,-2.438965 h -4.2919922 l -0.8862304,2.438965 H -10.83252 L -6.6503906,2.8417969 h 2.2924804 z M -4.050293,9.3310547 -5.5297852,5.3466797 -6.9799805,9.3310547 Z"
       style="font-style:normal;font-variant:normal;font-weight:700;font-size:15px;font-family:Arial;fill:#000000"
       id="path1102" />
  </g>
  <path
     style="fill:none;stroke:#000000;stroke-width:0.88251966px;stroke-linecap:round;stroke-linejoin:round;stroke-miterlimit:4;stroke-dasharray:none;stroke-opacity:1;"
     d="  M 781.91244,307.11685   L 789.85512,307.11685  "
     id="path99" />
  <g
     aria-label="50mA"
     transform="matrix(1.000000,-0.000000,0.000000,1.000000,837.511181,241.810394)"
     id="text105"
     style="font-style:normal;font-variant:normal;font-weight:700;font-size:15px;line-height:125%;font-family:Arial;text-align:start;letter-spacing:0px;word-spacing:0px;text-anchor:start;fill:#000000;fill-opacity:1;stroke:none">
    <path
       d="m -40.187988,10.817871 2.050781,-0.212402 q 0.08789,0.695801 0.52002,1.105957 0.432128,0.402832 0.996093,0.402832 0.644532,0 1.091309,-0.52002 0.446777,-0.527343 0.446777,-1.582031 0,-0.9887695 -0.446777,-1.4794922 -0.439453,-0.4980468 -1.149902,-0.4980468 -0.886231,0 -1.589356,0.7836914 l -1.669922,-0.2416992 1.054688,-5.5883789 h 5.441894 v 1.9262695 h -3.881836 l -0.322265,1.8237304 q 0.688476,-0.3442382 1.40625,-0.3442382 1.369629,0 2.321777,0.9960937 0.952148,0.9960938 0.952148,2.5854492 0,1.3256841 -0.769043,2.3657231 -1.047363,1.420898 -2.907714,1.420898 -1.486817,0 -2.424317,-0.79834 -0.9375,-0.79834 -1.120605,-2.145996 z"
       style="font-style:normal;font-variant:normal;font-weight:700;font-size:15px;font-family:Arial;fill:#000000"
       id="path1105" />
    <path
       d="m -28.395996,2.7978516 q 1.560059,0 2.438965,1.1132812 1.047363,1.3183594 1.047363,4.3725586 0,3.0468746 -1.054687,4.3798826 -0.871582,1.098633 -2.431641,1.098633 -1.567383,0 -2.526856,-1.201172 -0.959472,-1.208496 -0.959472,-4.2993162 0,-3.0322266 1.054687,-4.3652344 0.871582,-1.0986328 2.431641,-1.0986328 z m 0,1.7065429 q -0.373535,0 -0.666504,0.2416992 -0.292969,0.234375 -0.454102,0.8496094 -0.212402,0.7983399 -0.212402,2.6879883 0,1.8896486 0.19043,2.6000976 0.190429,0.703125 0.476074,0.9375 0.292969,0.234375 0.666504,0.234375 0.373535,0 0.666504,-0.234375 0.292969,-0.241699 0.454101,-0.856934 0.212403,-0.791015 0.212403,-2.6806636 0,-1.8896484 -0.19043,-2.5927734 -0.19043,-0.7104493 -0.483398,-0.9448243 -0.285645,-0.2416992 -0.65918,-0.2416992 z"
       style="font-style:normal;font-variant:normal;font-weight:700;font-size:15px;font-family:Arial;fill:#000000"
       id="path1107" />
    <path
       d="m -23.24707,5.8007812 h 1.896972 V 6.862793 Q -20.332031,5.625 -18.925781,5.625 q 0.74707,0 1.296386,0.3076172 0.549317,0.3076172 0.900879,0.9301758 0.512696,-0.6225586 1.105957,-0.9301758 Q -15.029297,5.625 -14.355469,5.625 q 0.856934,0 1.450196,0.3515625 0.593261,0.3442383 0.88623,1.0180664 0.212402,0.4980469 0.212402,1.6113281 v 4.973145 h -2.058105 V 9.1333008 q 0,-1.1572266 -0.212402,-1.4941406 -0.285645,-0.4394532 -0.878907,-0.4394532 -0.432129,0 -0.812988,0.2636719 -0.380859,0.2636719 -0.549316,0.7763672 -0.168457,0.5053711 -0.168457,1.6040039 v 3.735352 h -2.058106 V 9.3164063 q 0,-1.135254 -0.109863,-1.4648438 -0.109863,-0.3295898 -0.344238,-0.4907227 -0.227051,-0.1611328 -0.622559,-0.1611328 -0.476074,0 -0.856934,0.2563477 -0.380859,0.2563476 -0.549316,0.7397461 -0.161133,0.4833984 -0.161133,1.6040039 v 3.7792973 h -2.058105 z"
       style="font-style:normal;font-variant:normal;font-weight:700;font-size:15px;font-family:Arial;fill:#000000"
       id="path1109" />
    <path
       d="M -0.05859375,13.579102 H -2.4169922 l -0.9375,-2.438965 h -4.2919922 l -0.8862304,2.438965 H -10.83252 L -6.6503906,2.8417969 h 2.2924804 z M -4.050293,9.3310547 -5.5297852,5.3466797 -6.9799805,9.3310547 Z"
       style="font-style:normal;font-variant:normal;font-weight:700;font-size:15px;font-family:Arial;fill:#000000"
       id="path1111" />
  </g>
  <path
     style="fill:none;stroke:#000000;stroke-width:0.88251966px;stroke-linecap:round;stroke-linejoin:round;stroke-miterlimit:4;stroke-dasharray:none;stroke-opacity:1;"
     d="  M 781.91244,249.75307   L 789.85512,249.75307  "
     id="path107" />
  <g
     aria-label="150mA"
     transform="matrix(1.000000,-0.000000,0.000000,1.000000,837.511181,183.564094)"
     id="text113"
     style="font-style:normal;font-variant:normal;font-weight:700;font-size:15px;line-height:125%;font-family:Arial;text-align:start;letter-spacing:0px;word-spacing:0px;text-anchor:start;fill:#000000;fill-opacity:1;stroke:none">
    <path
       d="m -43.293457,13.579102 h -2.058105 V 5.8227539 q -1.12793,1.0546875 -2.658692,1.5600586 V 5.5151367 q 0.805664,-0.2636719 1.750488,-0.9960937 0.944825,-0.7397461 1.296387,-1.7211914 h 1.669922 z"
       style="font-style:normal;font-variant:normal;font-weight:700;font-size:15px;font-family:Arial;fill:#000000"
       id="path1114" />
    <path
       d="m -40.187988,10.817871 2.050781,-0.212402 q 0.08789,0.695801 0.52002,1.105957 0.432128,0.402832 0.996093,0.402832 0.644532,0 1.091309,-0.52002 0.446777,-0.527343 0.446777,-1.582031 0,-0.9887695 -0.446777,-1.4794922 -0.439453,-0.4980468 -1.149902,-0.4980468 -0.886231,0 -1.589356,0.7836914 l -1.669922,-0.2416992 1.054688,-5.5883789 h 5.441894 v 1.9262695 h -3.881836 l -0.322265,1.8237304 q 0.688476,-0.3442382 1.40625,-0.3442382 1.369629,0 2.321777,0.9960937 0.952148,0.9960938 0.952148,2.5854492 0,1.3256841 -0.769043,2.3657231 -1.047363,1.420898 -2.907714,1.420898 -1.486817,0 -2.424317,-0.79834 -0.9375,-0.79834 -1.120605,-2.145996 z"
       style="font-style:normal;font-variant:normal;font-weight:700;font-size:15px;font-family:Arial;fill:#000000"
       id="path1116" />
    <path
       d="m -28.395996,2.7978516 q 1.560059,0 2.438965,1.1132812 1.047363,1.3183594 1.047363,4.3725586 0,3.0468746 -1.054687,4.3798826 -0.871582,1.098633 -2.431641,1.098633 -1.567383,0 -2.526856,-1.201172 -0.959472,-1.208496 -0.959472,-4.2993162 0,-3.0322266 1.054687,-4.3652344 0.871582,-1.0986328 2.431641,-1.0986328 z m 0,1.7065429 q -0.373535,0 -0.666504,0.2416992 -0.292969,0.234375 -0.454102,0.8496094 -0.212402,0.7983399 -0.212402,2.6879883 0,1.8896486 0.19043,2.6000976 0.190429,0.703125 0.476074,0.9375 0.292969,0.234375 0.666504,0.234375 0.373535,0 0.666504,-0.234375 0.292969,-0.241699 0.454101,-0.856934 0.212403,-0.791015 0.212403,-2.6806636 0,-1.8896484 -0.19043,-2.5927734 -0.19043,-0.7104493 -0.483398,-0.9448243 -0.285645,-0.2416992 -0.65918,-0.2416992 z"
       style="font-style:normal;font-variant:normal;font-weight:700;font-size:15px;font-family:Arial;fill:#000000"
       id="path1118" />
    <path
       d="m -23.24707,5.8007812 h 1.896972 V 6.862793 Q -20.332031,5.625 -18.925781,5.625 q 0.74707,0 1.296386,0.3076172 0.549317,0.3076172 0.900879,0.9301758 0.512696,-0.6225586 1.105957,-0.9301758 Q -15.029297,5.625 -14.355469,5.625 q 0.856934,0 1.450196,0.3515625 0.593261,0.3442383 0.88623,1.0180664 0.212402,0.4980469 0.212402,1.6113281 v 4.973145 h -2.058105 V 9.1333008 q 0,-1.1572266 -0.212402,-1.4941406 -0.285645,-0.4394532 -0.878907,-0.4394532 -0.432129,0 -0.812988,0.2636719 -0.380859,0.2636719 -0.549316,0.7763672 -0.168457,0.5053711 -0.168457,1.6040039 v 3.735352 h -2.058106 V 9.3164063 q 0,-1.135254 -0.109863,-1.4648438 -0.109863,-0.3295898 -0.344238,-0.4907227 -0.227051,-0.1611328 -0.622559,-0.1611328 -0.476074,0 -0.856934,0.2563477 -0.380859,0.2563476 -0.549316,0.7397461 -0.161133,0.4833984 -0.161133,1.6040039 v 3.7792973 h -2.058105 z"
       style="font-style:normal;font-variant:normal;font-weight:700;font-size:15px;font-family:Arial;fill:#000000"
       id="path1120" />
    <path
       d="M -0.05859375,13.579102 H -2.4169922 l -0.9375,-2.438965 h -4.2919922 l -0.8862304,2.438965 H -10.83252 L -6.6503906,2.8417969 h 2.2924804 z M -4.050293,9.3310547 -5.5297852,5.3466797 -6.9799805,9.3310547 Z"
       style="font-style:normal;font-variant:normal;font-weight:700;font-size:15px;font-family:Arial;fill:#000000"
       id="path1122" />
  </g>
  <path
     style="fill:none;stroke:#000000;stroke-width:0.88251966px;stroke-linecap:round;stroke-linejoin:round;stroke-miterlimit:4;stroke-dasharray:none;stroke-opacity:1;"
     d="  M 781.91244,191.50677   L 789.85512,191.50677  "
     id="path115" />
  <g
     aria-label="250mA"
     transform="matrix(1.000000,-0.000000,0.000000,1.000000,837.511181,126.200315)"
     id="text121"
     style="font-style:normal;font-variant:normal;font-weight:700;font-size:15px;line-height:125%;font-family:Arial;text-align:start;letter-spacing:0px;word-spacing:0px;text-anchor:start;fill:#000000;fill-opacity:1;stroke:none">
    <path
       d="m -41.608887,11.66748 v 1.911622 h -7.214355 q 0.117187,-1.083985 0.703125,-2.050782 0.585937,-0.974121 2.314453,-2.5781247 1.391602,-1.2963867 1.706543,-1.7578125 0.424805,-0.637207 0.424805,-1.2597656 0,-0.6884766 -0.373536,-1.0546875 -0.36621,-0.3735352 -1.018066,-0.3735352 -0.644531,0 -1.025391,0.3881836 -0.380859,0.3881836 -0.439453,1.2890625 l -2.050781,-0.2050781 q 0.183106,-1.6992188 1.149902,-2.4389648 0.966797,-0.7397461 2.416993,-0.7397461 1.589355,0 2.497558,0.8569336 0.908203,0.8569335 0.908203,2.1313476 0,0.7250977 -0.263672,1.3842774 -0.256347,0.6518554 -0.820312,1.3696289 -0.373535,0.4760742 -1.347656,1.3696289 -0.974121,0.893555 -1.237793,1.186523 -0.256348,0.292969 -0.417481,0.571289 z"
       style="font-style:normal;font-variant:normal;font-weight:700;font-size:15px;font-family:Arial;fill:#000000"
       id="path1125" />
    <path
       d="m -40.187988,10.817871 2.050781,-0.212402 q 0.08789,0.695801 0.52002,1.105957 0.432128,0.402832 0.996093,0.402832 0.644532,0 1.091309,-0.52002 0.446777,-0.527343 0.446777,-1.582031 0,-0.9887695 -0.446777,-1.4794922 -0.439453,-0.4980468 -1.149902,-0.4980468 -0.886231,0 -1.589356,0.7836914 l -1.669922,-0.2416992 1.054688,-5.5883789 h 5.441894 v 1.9262695 h -3.881836 l -0.322265,1.8237304 q 0.688476,-0.3442382 1.40625,-0.3442382 1.369629,0 2.321777,0.9960937 0.952148,0.9960938 0.952148,2.5854492 0,1.3256841 -0.769043,2.3657231 -1.047363,1.420898 -2.907714,1.420898 -1.486817,0 -2.424317,-0.79834 -0.9375,-0.79834 -1.120605,-2.145996 z"
       style="font-style:normal;font-variant:normal;font-weight:700;font-size:15px;font-family:Arial;fill:#000000"
       id="path1127" />
    <path
       d="m -28.395996,2.7978516 q 1.560059,0 2.438965,1.1132812 1.047363,1.3183594 1.047363,4.3725586 0,3.0468746 -1.054687,4.3798826 -0.871582,1.098633 -2.431641,1.098633 -1.567383,0 -2.526856,-1.201172 -0.959472,-1.208496 -0.959472,-4.2993162 0,-3.0322266 1.054687,-4.3652344 0.871582,-1.0986328 2.431641,-1.0986328 z m 0,1.7065429 q -0.373535,0 -0.666504,0.2416992 -0.292969,0.234375 -0.454102,0.8496094 -0.212402,0.7983399 -0.212402,2.6879883 0,1.8896486 0.19043,2.6000976 0.190429,0.703125 0.476074,0.9375 0.292969,0.234375 0.666504,0.234375 0.373535,0 0.666504,-0.234375 0.292969,-0.241699 0.454101,-0.856934 0.212403,-0.791015 0.212403,-2.6806636 0,-1.8896484 -0.19043,-2.5927734 -0.19043,-0.7104493 -0.483398,-0.9448243 -0.285645,-0.2416992 -0.65918,-0.2416992 z"
       style="font-style:normal;font-variant:normal;font-weight:700;font-size:15px;font-family:Arial;fill:#000000"
       id="path1129" />
    <path
       d="m -23.24707,5.8007812 h 1.896972 V 6.862793 Q -20.332031,5.625 -18.925781,5.625 q 0.74707,0 1.296386,0.3076172 0.549317,0.3076172 0.900879,0.9301758 0.512696,-0.6225586 1.105957,-0.9301758 Q -15.029297,5.625 -14.355469,5.625 q 0.856934,0 1.450196,0.3515625 0.593261,0.3442383 0.88623,1.0180664 0.212402,0.4980469 0.212402,1.6113281 v 4.973145 h -2.058105 V 9.1333008 q 0,-1.1572266 -0.212402,-1.4941406 -0.285645,-0.4394532 -0.878907,-0.4394532 -0.432129,0 -0.812988,0.2636719 -0.380859,0.2636719 -0.549316,0.7763672 -0.168457,0.5053711 -0.168457,1.6040039 v 3.735352 h -2.058106 V 9.3164063 q 0,-1.135254 -0.109863,-1.4648438 -0.109863,-0.3295898 -0.344238,-0.4907227 -0.227051,-0.1611328 -0.622559,-0.1611328 -0.476074,0 -0.856934,0.2563477 -0.380859,0.2563476 -0.549316,0.7397461 -0.161133,0.4833984 -0.161133,1.6040039 v 3.7792973 h -2.058105 z"
       style="font-style:normal;font-variant:normal;font-weight:700;font-size:15px;font-family:Arial;fill:#000000"
       id="path1131" />
    <path
       d="M -0.05859375,13.579102 H -2.4169922 l -0.9375,-2.438965 h -4.2919922 l -0.8862304,2.438965 H -10.83252 L -6.6503906,2.8417969 h 2.2924804 z M -4.050293,9.3310547 -5.5297852,5.3466797 -6.9799805,9.3310547 Z"
       style="font-style:normal;font-variant:normal;font-weight:700;font-size:15px;font-family:Arial;fill:#000000"
       id="path1133" />
  </g>
  <path
     style="fill:none;stroke:#000000;stroke-width:0.88251966px;stroke-linecap:round;stroke-linejoin:round;stroke-miterlimit:4;stroke-dasharray:none;stroke-opacity:1;"
     d="  M 781.91244,134.14299   L 789.85512,134.14299  "
     id="path123" />
  <g
     aria-label="350mA"
     transform="matrix(1.000000,-0.000000,0.000000,1.000000,837.511181,67.954016)"
     id="text129"
     style="font-style:normal;font-variant:normal;font-weight:700;font-size:15px;line-height:125%;font-family:Arial;text-align:start;letter-spacing:0px;word-spacing:0px;text-anchor:start;fill:#000000;fill-opacity:1;stroke:none">
    <path
       d="m -48.632812,10.72998 1.992187,-0.241699 q 0.09522,0.761719 0.512695,1.164551 0.417481,0.402832 1.010743,0.402832 0.637207,0 1.069335,-0.483398 0.439454,-0.483399 0.439454,-1.303711 0,-0.7763675 -0.417481,-1.2304691 -0.41748,-0.4541015 -1.018066,-0.4541015 -0.395508,0 -0.944825,0.1538086 l 0.227051,-1.6772461 q 0.834961,0.021973 1.274414,-0.3588867 0.439453,-0.3881836 0.439453,-1.0253907 0,-0.5419922 -0.322265,-0.8642578 -0.322266,-0.3222656 -0.856934,-0.3222656 -0.527344,0 -0.900879,0.3662109 -0.373535,0.366211 -0.454101,1.069336 l -1.896973,-0.3222657 q 0.197754,-0.9741211 0.593262,-1.5527343 0.402832,-0.5859375 1.113281,-0.9155274 0.717774,-0.336914 1.604004,-0.336914 1.516113,0 2.431641,0.9667968 0.754394,0.7910157 0.754394,1.7871094 0,1.4135742 -1.54541,2.2558594 0.922852,0.1977539 1.472168,0.8862305 0.556641,0.6884765 0.556641,1.6625973 0,1.413575 -1.032715,2.409668 -1.032715,0.996094 -2.570801,0.996094 -1.45752,0 -2.416992,-0.834961 -0.959473,-0.842285 -1.113281,-2.197266 z"
       style="font-style:normal;font-variant:normal;font-weight:700;font-size:15px;font-family:Arial;fill:#000000"
       id="path1136" />
    <path
       d="m -40.187988,10.817871 2.050781,-0.212402 q 0.08789,0.695801 0.52002,1.105957 0.432128,0.402832 0.996093,0.402832 0.644532,0 1.091309,-0.52002 0.446777,-0.527343 0.446777,-1.582031 0,-0.9887695 -0.446777,-1.4794922 -0.439453,-0.4980468 -1.149902,-0.4980468 -0.886231,0 -1.589356,0.7836914 l -1.669922,-0.2416992 1.054688,-5.5883789 h 5.441894 v 1.9262695 h -3.881836 l -0.322265,1.8237304 q 0.688476,-0.3442382 1.40625,-0.3442382 1.369629,0 2.321777,0.9960937 0.952148,0.9960938 0.952148,2.5854492 0,1.3256841 -0.769043,2.3657231 -1.047363,1.420898 -2.907714,1.420898 -1.486817,0 -2.424317,-0.79834 -0.9375,-0.79834 -1.120605,-2.145996 z"
       style="font-style:normal;font-variant:normal;font-weight:700;font-size:15px;font-family:Arial;fill:#000000"
       id="path1138" />
    <path
       d="m -28.395996,2.7978516 q 1.560059,0 2.438965,1.1132812 1.047363,1.3183594 1.047363,4.3725586 0,3.0468746 -1.054687,4.3798826 -0.871582,1.098633 -2.431641,1.098633 -1.567383,0 -2.526856,-1.201172 -0.959472,-1.208496 -0.959472,-4.2993162 0,-3.0322266 1.054687,-4.3652344 0.871582,-1.0986328 2.431641,-1.0986328 z m 0,1.7065429 q -0.373535,0 -0.666504,0.2416992 -0.292969,0.234375 -0.454102,0.8496094 -0.212402,0.7983399 -0.212402,2.6879883 0,1.8896486 0.19043,2.6000976 0.190429,0.703125 0.476074,0.9375 0.292969,0.234375 0.666504,0.234375 0.373535,0 0.666504,-0.234375 0.292969,-0.241699 0.454101,-0.856934 0.212403,-0.791015 0.212403,-2.6806636 0,-1.8896484 -0.19043,-2.5927734 -0.19043,-0.7104493 -0.483398,-0.9448243 -0.285645,-0.2416992 -0.65918,-0.2416992 z"
       style="font-style:normal;font-variant:normal;font-weight:700;font-size:15px;font-family:Arial;fill:#000000"
       id="path1140" />
    <path
       d="m -23.24707,5.8007812 h 1.896972 V 6.862793 Q -20.332031,5.625 -18.925781,5.625 q 0.74707,0 1.296386,0.3076172 0.549317,0.3076172 0.900879,0.9301758 0.512696,-0.6225586 1.105957,-0.9301758 Q -15.029297,5.625 -14.355469,5.625 q 0.856934,0 1.450196,0.3515625 0.593261,0.3442383 0.88623,1.0180664 0.212402,0.4980469 0.212402,1.6113281 v 4.973145 h -2.058105 V 9.1333008 q 0,-1.1572266 -0.212402,-1.4941406 -0.285645,-0.4394532 -0.878907,-0.4394532 -0.432129,0 -0.812988,0.2636719 -0.380859,0.2636719 -0.549316,0.7763672 -0.168457,0.5053711 -0.168457,1.6040039 v 3.735352 h -2.058106 V 9.3164063 q 0,-1.135254 -0.109863,-1.4648438 -0.109863,-0.3295898 -0.344238,-0.4907227 -0.227051,-0.1611328 -0.622559,-0.1611328 -0.476074,0 -0.856934,0.2563477 -0.380859,0.2563476 -0.549316,0.7397461 -0.161133,0.4833984 -0.161133,1.6040039 v 3.7792973 h -2.058105 z"
       style="font-style:normal;font-variant:normal;font-weight:700;font-size:15px;font-family:Arial;fill:#000000"
       id="path1142" />
    <path
       d="M -0.05859375,13.579102 H -2.4169922 l -0.9375,-2.438965 h -4.2919922 l -0.8862304,2.438965 H -10.83252 L -6.6503906,2.8417969 h 2.2924804 z M -4.050293,9.3310547 -5.5297852,5.3466797 -6.9799805,9.3310547 Z"
       style="font-style:normal;font-variant:normal;font-weight:700;font-size:15px;font-family:Arial;fill:#000000"
       id="path1144" />
  </g>
  <path
     style="fill:none;stroke:#000000;stroke-width:0.88251966px;stroke-linecap:round;stroke-linejoin:round;stroke-miterlimit:4;stroke-dasharray:none;stroke-opacity:1;"
     d="  M 781.91244,75.896693   L 789.85512,75.896693  "
     id="path131" />
  <g
     aria-label="450mA"
     transform="matrix(1.000000,-0.000000,0.000000,1.000000,837.511181,10.590236)"
     id="text137"
     style="font-style:normal;font-variant:normal;font-weight:700;font-size:15px;line-height:125%;font-family:Arial;text-align:start;letter-spacing:0px;word-spacing:0px;text-anchor:start;fill:#000000;fill-opacity:1;stroke:none">
    <path
       d="m -44.523926,13.579102 v -2.160645 h -4.394531 V 9.6166992 l 4.658203,-6.8188476 h 1.728516 V 9.609375 h 1.333008 v 1.809082 h -1.333008 v 2.160645 z m 0,-3.969727 V 5.9399414 l -2.468261,3.6694336 z"
       style="font-style:normal;font-variant:normal;font-weight:700;font-size:15px;font-family:Arial;fill:#000000"
       id="path1147" />
    <path
       d="m -40.187988,10.817871 2.050781,-0.212402 q 0.08789,0.695801 0.52002,1.105957 0.432128,0.402832 0.996093,0.402832 0.644532,0 1.091309,-0.52002 0.446777,-0.527343 0.446777,-1.582031 0,-0.9887695 -0.446777,-1.4794922 -0.439453,-0.4980468 -1.149902,-0.4980468 -0.886231,0 -1.589356,0.7836914 l -1.669922,-0.2416992 1.054688,-5.5883789 h 5.441894 v 1.9262695 h -3.881836 l -0.322265,1.8237304 q 0.688476,-0.3442382 1.40625,-0.3442382 1.369629,0 2.321777,0.9960937 0.952148,0.9960938 0.952148,2.5854492 0,1.3256841 -0.769043,2.3657231 -1.047363,1.420898 -2.907714,1.420898 -1.486817,0 -2.424317,-0.79834 -0.9375,-0.79834 -1.120605,-2.145996 z"
       style="font-style:normal;font-variant:normal;font-weight:700;font-size:15px;font-family:Arial;fill:#000000"
       id="path1149" />
    <path
       d="m -28.395996,2.7978516 q 1.560059,0 2.438965,1.1132812 1.047363,1.3183594 1.047363,4.3725586 0,3.0468746 -1.054687,4.3798826 -0.871582,1.098633 -2.431641,1.098633 -1.567383,0 -2.526856,-1.201172 -0.959472,-1.208496 -0.959472,-4.2993162 0,-3.0322266 1.054687,-4.3652344 0.871582,-1.0986328 2.431641,-1.0986328 z m 0,1.7065429 q -0.373535,0 -0.666504,0.2416992 -0.292969,0.234375 -0.454102,0.8496094 -0.212402,0.7983399 -0.212402,2.6879883 0,1.8896486 0.19043,2.6000976 0.190429,0.703125 0.476074,0.9375 0.292969,0.234375 0.666504,0.234375 0.373535,0 0.666504,-0.234375 0.292969,-0.241699 0.454101,-0.856934 0.212403,-0.791015 0.212403,-2.6806636 0,-1.8896484 -0.19043,-2.5927734 -0.19043,-0.7104493 -0.483398,-0.9448243 -0.285645,-0.2416992 -0.65918,-0.2416992 z"
       style="font-style:normal;font-variant:normal;font-weight:700;font-size:15px;font-family:Arial;fill:#000000"
       id="path1151" />
    <path
       d="m -23.24707,5.8007812 h 1.896972 V 6.862793 Q -20.332031,5.625 -18.925781,5.625 q 0.74707,0 1.296386,0.3076172 0.549317,0.3076172 0.900879,0.9301758 0.512696,-0.6225586 1.105957,-0.9301758 Q -15.029297,5.625 -14.355469,5.625 q 0.856934,0 1.450196,0.3515625 0.593261,0.3442383 0.88623,1.0180664 0.212402,0.4980469 0.212402,1.6113281 v 4.973145 h -2.058105 V 9.1333008 q 0,-1.1572266 -0.212402,-1.4941406 -0.285645,-0.4394532 -0.878907,-0.4394532 -0.432129,0 -0.812988,0.2636719 -0.380859,0.2636719 -0.549316,0.7763672 -0.168457,0.5053711 -0.168457,1.6040039 v 3.735352 h -2.058106 V 9.3164063 q 0,-1.135254 -0.109863,-1.4648438 -0.109863,-0.3295898 -0.344238,-0.4907227 -0.227051,-0.1611328 -0.622559,-0.1611328 -0.476074,0 -0.856934,0.2563477 -0.380859,0.2563476 -0.549316,0.7397461 -0.161133,0.4833984 -0.161133,1.6040039 v 3.7792973 h -2.058105 z"
       style="font-style:normal;font-variant:normal;font-weight:700;font-size:15px;font-family:Arial;fill:#000000"
       id="path1153" />
    <path
       d="M -0.05859375,13.579102 H -2.4169922 l -0.9375,-2.438965 h -4.2919922 l -0.8862304,2.438965 H -10.83252 L -6.6503906,2.8417969 h 2.2924804 z M -4.050293,9.3310547 -5.5297852,5.3466797 -6.9799805,9.3310547 Z"
       style="font-style:normal;font-variant:normal;font-weight:700;font-size:15px;font-family:Arial;fill:#000000"
       id="path1155" />
  </g>
  <path
     style="fill:none;stroke:#000000;stroke-width:0.88251966px;stroke-linecap:round;stroke-linejoin:round;stroke-miterlimit:4;stroke-dasharray:none;stroke-opacity:1;"
     d="  M 781.91244,18.532913   L 789.85512,18.532913  "
     id="path139" />
  <path
     style="fill:none;stroke:#000000;stroke-width:0.88251966px;stroke-linecap:round;stroke-linejoin:round;stroke-miterlimit:4;stroke-dasharray:none;stroke-opacity:1;"
     d="  M 33.535748,18.532913   L 781.91244,18.532913   L 781.91244,307.11685   L 33.535748,307.11685   L 33.535748,18.532913  "
     id="path141" />
  <g
     aria-label="V(n003)"
     transform="matrix(1.000000,-0.000000,0.000000,1.000000,220.629921,0.000000)"
     id="text147"
     style="font-style:normal;font-variant:normal;font-weight:700;font-size:15px;line-height:125%;font-family:Arial;text-align:start;letter-spacing:0px;word-spacing:0px;text-anchor:start;fill:#0000ff;fill-opacity:1;stroke:none">
    <path
       d="m -23.261719,13.579102 -3.83789,-10.7373051 h 2.351074 l 2.717285,7.9467771 2.629395,-7.9467771 h 2.299804 l -3.845215,10.7373051 z"
       style="font-style:normal;font-variant:normal;font-weight:700;font-size:15px;font-family:Arial;fill:#0000ff;stroke:none"
       id="path988" />
    <path
       d="m -12.597656,16.73584 h -1.413574 q -1.120606,-1.691895 -1.706543,-3.515625 -0.585938,-1.823731 -0.585938,-3.5302736 0,-2.1166992 0.725098,-4.0063477 0.629883,-1.640625 1.596679,-3.0249023 h 1.40625 q -1.003418,2.2192383 -1.384277,3.7792969 -0.373535,1.5527344 -0.373535,3.2958984 0,1.2011723 0.219726,2.4609373 0.227051,1.259766 0.615235,2.39502 0.256347,0.74707 0.900879,2.145996 z"
       style="font-style:normal;font-variant:normal;font-weight:700;font-size:15px;font-family:Arial;fill:#0000ff;stroke:none"
       id="path990" />
    <path
       d="M -3.9404297,13.579102 H -5.9985352 V 9.609375 q 0,-1.2597656 -0.1318359,-1.6259766 Q -6.262207,7.6098633 -6.5625,7.4047852 -6.8554687,7.199707 -7.2729492,7.199707 q -0.534668,0 -0.9594727,0.2929688 -0.4248047,0.2929687 -0.5859375,0.7763672 -0.1538086,0.4833984 -0.1538086,1.787109 v 3.52295 h -2.058105 V 5.8007812 h 1.9116207 V 6.9433594 Q -8.1005859,5.625 -6.5551758,5.625 q 0.6811524,0 1.2451172,0.2490234 0.5639649,0.2416993 0.8496094,0.6225586 0.2929687,0.3808594 0.402832,0.8642578 0.1171875,0.4833985 0.1171875,1.3842774 z"
       style="font-style:normal;font-variant:normal;font-weight:700;font-size:15px;font-family:Arial;fill:#0000ff;stroke:none"
       id="path992" />
    <path
       d="m 1.1865234,2.7978516 q 1.5600586,0 2.4389649,1.1132812 1.0473633,1.3183594 1.0473633,4.3725586 0,3.0468746 -1.0546875,4.3798826 -0.8715821,1.098633 -2.4316407,1.098633 -1.56738278,0 -2.5268554,-1.201172 -0.9594727,-1.208496 -0.9594727,-4.2993162 0,-3.0322266 1.0546875,-4.3652344 0.87158204,-1.0986328 2.4316406,-1.0986328 z m 0,1.7065429 q -0.37353512,0 -0.66650387,0.2416992 -0.29296875,0.234375 -0.45410156,0.8496094 -0.21240234,0.7983399 -0.21240234,2.6879883 0,1.8896486 0.19042968,2.6000976 0.19042969,0.703125 0.47607422,0.9375 0.29296875,0.234375 0.66650387,0.234375 0.3735352,0 0.6665039,-0.234375 Q 2.1459961,11.57959 2.3071289,10.964355 2.5195313,10.17334 2.5195313,8.2836914 2.5195313,6.394043 2.3291016,5.690918 2.1386719,4.9804687 1.8457031,4.7460937 1.5600586,4.5043945 1.1865234,4.5043945 Z"
       style="font-style:normal;font-variant:normal;font-weight:700;font-size:15px;font-family:Arial;fill:#0000ff;stroke:none"
       id="path994" />
    <path
       d="m 9.5288086,2.7978516 q 1.5600584,0 2.4389644,1.1132812 1.047364,1.3183594 1.047364,4.3725586 0,3.0468746 -1.054688,4.3798826 -0.871582,1.098633 -2.4316404,1.098633 -1.5673828,0 -2.5268555,-1.201172 -0.9594726,-1.208496 -0.9594726,-4.2993162 0,-3.0322266 1.0546875,-4.3652344 Q 7.96875,2.7978516 9.5288086,2.7978516 Z m 0,1.7065429 q -0.3735352,0 -0.6665039,0.2416992 -0.2929688,0.234375 -0.4541016,0.8496094 -0.2124023,0.7983399 -0.2124023,2.6879883 0,1.8896486 0.1904297,2.6000976 0.1904297,0.703125 0.4760742,0.9375 0.2929687,0.234375 0.6665039,0.234375 0.3735352,0 0.6665044,-0.234375 0.292968,-0.241699 0.454101,-0.856934 0.212402,-0.791015 0.212402,-2.6806636 0,-1.8896484 -0.190429,-2.5927734 Q 10.480957,4.9804687 10.187988,4.7460937 9.9023438,4.5043945 9.5288086,4.5043945 Z"
       style="font-style:normal;font-variant:normal;font-weight:700;font-size:15px;font-family:Arial;fill:#0000ff;stroke:none"
       id="path996" />
    <path
       d="m 14.318848,10.72998 1.992187,-0.241699 q 0.09521,0.761719 0.512695,1.164551 0.417481,0.402832 1.010743,0.402832 0.637207,0 1.069336,-0.483398 0.439453,-0.483399 0.439453,-1.303711 0,-0.7763675 -0.417481,-1.2304691 -0.41748,-0.4541015 -1.018066,-0.4541015 -0.395508,0 -0.944824,0.1538086 l 0.22705,-1.6772461 q 0.834961,0.021973 1.274414,-0.3588867 0.439454,-0.3881836 0.439454,-1.0253907 0,-0.5419922 -0.322266,-0.8642578 -0.322266,-0.3222656 -0.856934,-0.3222656 -0.527343,0 -0.900879,0.3662109 -0.373535,0.366211 -0.454101,1.069336 L 14.472656,5.6030273 Q 14.67041,4.6289062 15.065918,4.050293 15.46875,3.4643555 16.179199,3.1347656 q 0.717774,-0.336914 1.604004,-0.336914 1.516113,0 2.431641,0.9667968 0.754394,0.7910157 0.754394,1.7871094 0,1.4135742 -1.54541,2.2558594 0.922852,0.1977539 1.472168,0.8862305 0.556641,0.6884765 0.556641,1.6625973 0,1.413575 -1.032715,2.409668 -1.032715,0.996094 -2.570801,0.996094 -1.457519,0 -2.416992,-0.834961 -0.959473,-0.842285 -1.113281,-2.197266 z"
       style="font-style:normal;font-variant:normal;font-weight:700;font-size:15px;font-family:Arial;fill:#0000ff;stroke:none"
       id="path998" />
    <path
       d="m 22.602539,16.73584 q 0.60791,-1.303711 0.856934,-1.999512 0.249023,-0.695801 0.461425,-1.604004 0.212403,-0.908203 0.314942,-1.721191 0.102539,-0.820313 0.102539,-1.6772463 0,-1.743164 -0.373535,-3.2958984 -0.373535,-1.5600586 -1.376953,-3.7792969 h 1.398925 q 1.105957,1.574707 1.713868,3.3398438 0.615234,1.7651367 0.615234,3.5815429 0,1.5307619 -0.483398,3.2812499 -0.549317,1.962891 -1.809083,3.874512 z"
       style="font-style:normal;font-variant:normal;font-weight:700;font-size:15px;font-family:Arial;fill:#0000ff;stroke:none"
       id="path1000" />
  </g>
  <path
     style="fill:none;stroke:#0000ff;stroke-width:0.88300002;stroke-linecap:round;stroke-linejoin:round;stroke-miterlimit:4;stroke-dasharray:5.2980001, 5.29800010000000032;stroke-opacity:1;stroke-dashoffset:0"
     d="  M 33.535748,292.99654   L 55.59874,292.99654   L 85.604409,292.11402   L 95.312126,292.11402   L 101.48976,291.2315   L 105.01984,291.2315   L 106.78488,290.34898   L 108.54992,289.46646   L 109.43244,287.70142   L 110.31496,285.05386   L 111.19748,280.64126   L 112.96252,262.99087   L 114.72756,225.92504   L 117.37512,173.85638   L 119.14016,108.54992   L 121.78772,52.951181   L 122.67024,38.830866   L 124.43528,45.008504   L 125.3178,67.954016   L 126.20031,104.13732   L 127.96535,157.0885   L 130.61291,210.9222   L 132.37795,247.98803   L 133.26047,269.1685   L 135.02551,280.64126   L 136.79055,286.8189   L 138.55559,287.70142   L 139.43811,285.05386   L 142.08567,270.93354   L 144.73323,239.16283   L 146.49827,193.27181   L 148.26331,135.02551   L 150.91087,74.131654   L 152.67591,45.008504   L 153.55843,39.713386   L 154.44094,45.891024   L 155.32346,61.776378   L 156.20598,97.077165   L 157.97102,142.08567   L 159.73606,202.97953   L 162.38362,246.22299   L 164.14866,268.28598   L 165.03118,279.75874   L 166.79622,285.93638   L 168.56126,286.8189   L 170.3263,283.28882   L 172.09134,267.40346   L 174.7389,233.86772   L 177.38646,186.21165   L 179.1515,120.9052   L 181.79906,65.306457   L 182.68157,45.008504   L 183.56409,42.360945   L 184.44661,50.303622   L 185.32913,67.071496   L 187.09417,105.90236   L 187.97669,150.91087   L 190.62425,203.86205   L 192.38929,242.69291   L 194.15433,265.63843   L 195.91937,278.87622   L 196.80189,285.05386   L 198.56693,285.93638   L 200.33197,283.28882   L 202.09701,269.1685   L 204.74457,237.3978   L 206.50961,190.62425   L 209.15717,127.08283   L 211.80472,71.484094   L 212.68724,48.538583   L 213.56976,44.125984   L 214.45228,49.421102   L 215.3348,64.423937   L 217.09984,97.959685   L 217.98236,141.20315   L 220.62992,200.33197   L 222.39496,243.57543   L 224.16,267.40346   L 225.92504,278.87622   L 227.69008,285.05386   L 228.5726,286.8189   L 229.45512,285.05386   L 229.45512,282.4063   L 229.45512,280.64126   L 229.45512,275.34614   L 229.45512,265.63843   L 229.45512,243.57543   L 229.45512,202.09701   L 229.45512,160.61858   L 229.45512,120.02268   L 229.45512,80.309291   L 229.45512,61.776378   L 229.45512,57.36378   L 231.22016,57.36378   L 232.9852,57.36378   L 234.75024,57.36378   L 236.51528,57.36378   L 238.28031,57.36378   L 240.04535,57.36378   L 241.81039,57.36378   L 243.57543,57.36378   L 245.34047,57.36378   L 247.10551,57.36378   L 256.81323,57.36378   L 275.34614,57.36378   L 279.75874,57.36378   L 284.17134,58.246299   L 287.70142,58.246299   L 292.11402,58.246299   L 295.64409,58.246299   L 300.05669,58.246299   L 304.46929,58.246299   L 307.99937,58.246299   L 312.41197,58.246299   L 316.82457,58.246299   L 320.35465,58.246299   L 324.76724,58.246299   L 328.29732,58.246299   L 332.70992,58.246299   L 337.12252,58.246299   L 340.6526,58.246299   L 345.0652,59.128819   L 348.59528,59.128819   L 353.00787,59.128819   L 357.42047,59.128819   L 357.42047,62.658898   L 357.42047,75.014173   L 357.42047,103.2548   L 357.42047,112.96252   L 357.42047,121.78772   L 357.42047,127.08283   L 357.42047,132.37795   L 357.42047,142.96819   L 357.42047,163.26614   L 357.42047,187.97669   L 357.42047,212.68724   L 357.42047,237.3978   L 357.42047,260.34331   L 357.42047,283.28882   L 357.42047,290.34898   L 357.42047,292.99654   L 361.83307,293.87906   L 366.24567,293.87906   L 370.65827,293.87906   L 375.07087,293.87906   L 379.48346,293.87906   L 383.89606,292.99654   L 388.30866,292.99654   L 393.60378,292.99654   L 398.01638,292.99654   L 402.42898,292.99654   L 406.84157,292.99654   L 411.25417,292.99654   L 415.66677,292.99654   L 420.07937,292.99654   L 424.49197,292.99654   L 428.90457,292.99654   L 433.31717,292.99654   L 437.72976,292.99654   L 442.14236,292.99654   L 446.55496,292.99654   L 473.03055,292.99654   L 488.91591,292.11402   L 505.68378,292.11402   L 513.62646,292.11402   L 518.03906,291.2315   L 520.68661,291.2315   L 522.45165,291.2315   L 524.21669,290.34898   L 525.98173,288.58394   L 526.86425,286.8189   L 526.86425,284.17134   L 528.62929,275.34614   L 530.39433,247.98803   L 533.04189,197.68441   L 534.80693,135.90803   L 537.45449,75.014173   L 539.21953,42.360945   L 540.10205,37.065827   L 540.98457,43.243465   L 541.86709,59.128819   L 542.74961,95.312126   L 544.51465,141.20315   L 546.27969,202.97953   L 548.92724,246.22299   L 550.69228,269.1685   L 551.5748,280.64126   L 553.33984,286.8189   L 555.10488,288.58394   L 555.9874,285.93638   L 558.63496,273.5811   L 561.28252,245.34047   L 563.04756,200.33197   L 564.8126,142.96819   L 567.46016,82.074331   L 569.2252,45.008504   L 570.10772,39.713386   L 570.99024,45.891024   L 571.87276,62.658898   L 573.6378,98.842205   L 574.52031,144.73323   L 577.16787,201.21449   L 578.93291,241.81039   L 580.69795,265.63843   L 582.46299,278.87622   L 583.34551,285.93638   L 585.11055,286.8189   L 586.87559,284.17134   L 588.64063,270.05102   L 591.28819,237.3978   L 593.93575,190.62425   L 595.70079,132.37795   L 598.34835,73.249134   L 599.23087,45.891024   L 600.11339,41.478425   L 600.99591,47.656063   L 601.87843,63.541417   L 603.64346,98.842205   L 605.4085,143.85071   L 607.17354,204.74457   L 608.93858,246.22299   L 610.70362,268.28598   L 612.46866,279.75874   L 614.2337,285.93638   L 615.99874,285.93638   L 616.88126,282.4063   L 619.52882,265.63843   L 622.17638,232.10268   L 623.94142,184.44661   L 626.58898,119.14016   L 628.35402,65.306457   L 629.23654,46.773543   L 630.11906,44.125984   L 631.88409,52.068661   L 632.76661,68.836535   L 633.64913,106.78488   L 635.41417,151.79339   L 637.17921,204.74457   L 638.94425,242.69291   L 640.70929,265.63843   L 642.47433,278.87622   L 644.23937,285.05386   L 645.12189,286.8189   L 646.88693,285.93638   L 646.88693,284.17134   L 646.88693,282.4063   L 646.88693,280.64126   L 646.88693,275.34614   L 646.88693,265.63843   L 646.88693,245.34047   L 646.88693,205.62709   L 646.88693,164.14866   L 646.88693,122.67024   L 646.88693,81.191811   L 646.88693,61.776378   L 646.88693,57.36378   L 648.65197,57.36378   L 650.41701,57.36378   L 652.18205,57.36378   L 653.94709,57.36378   L 655.71213,57.36378   L 657.47717,57.36378   L 659.2422,57.36378   L 661.00724,57.36378   L 668.0674,57.36378   L 682.18772,57.36378   L 710.42835,58.246299   L 773.96976,59.128819   L 773.96976,60.893858   L 773.96976,71.484094   L 773.96976,93.547087   L 773.96976,102.37228   L 773.96976,105.90236   L 773.96976,110.31496   L 773.96976,112.08   L 773.96976,114.72756   L 773.96976,120.02268   L 773.96976,129.73039   L 773.96976,147.38079   L 773.96976,172.09134   L 773.96976,195.91937   L 773.96976,221.51244   L 773.96976,246.22299   L 773.96976,269.1685   L 773.96976,289.46646   L 773.96976,292.99654   L 779.26488,293.87906   L 781.91244,293.87906  "
     id="path149" />
  <g
     aria-label="I(L1)"
     transform="matrix(1.000000,-0.000000,0.000000,1.000000,594.818268,0.000000)"
     id="text155"
     style="font-style:normal;font-variant:normal;font-weight:700;font-size:15px;line-height:125%;font-family:Arial;text-align:start;letter-spacing:0px;word-spacing:0px;text-anchor:start;fill:#008000;fill-opacity:1;stroke:none">
    <path
       d="M -14.805908,13.579102 V 2.8417969 h 2.167969 V 13.579102 Z"
       style="font-style:normal;font-variant:normal;font-weight:700;font-size:15px;font-family:Arial;fill:#008000"
       id="path1158" />
    <path
       d="m -7.1740723,16.73584 h -1.4135742 q -1.1206055,-1.691895 -1.7065425,-3.515625 -0.585938,-1.823731 -0.585938,-3.5302736 0,-2.1166992 0.725098,-4.0063477 0.6298825,-1.640625 1.5966794,-3.0249023 h 1.40625 q -1.003418,2.2192383 -1.3842774,3.7792969 -0.3735351,1.5527344 -0.3735351,3.2958984 0,1.2011723 0.2197266,2.4609373 0.2270507,1.259766 0.6152343,2.39502 0.2563477,0.74707 0.9008789,2.145996 z"
       style="font-style:normal;font-variant:normal;font-weight:700;font-size:15px;font-family:Arial;fill:#008000"
       id="path1160" />
    <path
       d="M -5.5187988,13.579102 V 2.9296875 h 2.1679687 V 11.77002 h 5.390625 v 1.809082 z"
       style="font-style:normal;font-variant:normal;font-weight:700;font-size:15px;font-family:Arial;fill:#008000"
       id="path1162" />
    <path
       d="M 8.3972168,13.579102 H 6.3391113 V 5.8227539 Q 5.2111816,6.8774414 3.6804199,7.3828125 V 5.5151367 Q 4.486084,5.2514648 5.4309082,4.519043 6.3757324,3.7792969 6.7272949,2.7978516 h 1.6699219 z"
       style="font-style:normal;font-variant:normal;font-weight:700;font-size:15px;font-family:Arial;fill:#008000"
       id="path1164" />
    <path
       d="m 11.341553,16.73584 q 0.60791,-1.303711 0.856933,-1.999512 0.249024,-0.695801 0.461426,-1.604004 0.212402,-0.908203 0.314942,-1.721191 0.102539,-0.820313 0.102539,-1.6772463 0,-1.743164 -0.373536,-3.2958984 -0.373535,-1.5600586 -1.376953,-3.7792969 h 1.398926 q 1.105957,1.574707 1.713867,3.3398438 0.615235,1.7651367 0.615235,3.5815429 0,1.5307619 -0.483399,3.2812499 -0.549316,1.962891 -1.809082,3.874512 z"
       style="font-style:normal;font-variant:normal;font-weight:700;font-size:15px;font-family:Arial;fill:#008000"
       id="path1166" />
  </g>
  <path
     style="fill:none;stroke:#008000;stroke-width:0.88251966px;stroke-linecap:round;stroke-linejoin:round;stroke-miterlimit:4;stroke-dasharray:none;stroke-opacity:1"
     d="  M 33.535748,169.44378   L 34.418268,171.20882   L 55.59874,202.09701   L 85.604409,245.34047   L 95.312126,259.46079   L 101.48976,269.1685   L 105.01984,274.46362   L 106.78488,277.11118   L 108.54992,278.87622   L 109.43244,280.64126   L 111.19748,282.4063   L 112.96252,284.17134   L 114.72756,285.93638   L 117.37512,286.8189   L 119.14016,285.05386   L 121.78772,281.52378   L 122.67024,278.87622   L 123.55276,277.11118   L 125.3178,273.5811   L 126.20031,271.81606   L 127.96535,270.05102   L 130.61291,270.05102   L 132.37795,270.93354   L 133.26047,272.69858   L 135.02551,274.46362   L 136.79055,277.11118   L 138.55559,278.87622   L 139.43811,280.64126   L 142.08567,283.28882   L 144.73323,285.93638   L 146.49827,286.8189   L 148.26331,285.93638   L 150.91087,282.4063   L 152.67591,279.75874   L 153.55843,277.9937   L 154.44094,276.22866   L 155.32346,274.46362   L 156.20598,271.81606   L 157.97102,270.93354   L 159.73606,270.05102   L 162.38362,270.93354   L 164.14866,272.69858   L 165.03118,274.46362   L 166.79622,277.11118   L 168.56126,278.87622   L 170.3263,280.64126   L 172.09134,283.28882   L 174.7389,285.93638   L 177.38646,285.93638   L 179.1515,285.05386   L 181.79906,282.4063   L 182.68157,279.75874   L 183.56409,277.9937   L 184.44661,276.22866   L 185.32913,274.46362   L 187.09417,271.81606   L 190.62425,270.05102   L 192.38929,270.93354   L 194.15433,272.69858   L 195.91937,274.46362   L 196.80189,276.22866   L 198.56693,278.87622   L 200.33197,280.64126   L 202.09701,283.28882   L 204.74457,285.05386   L 206.50961,285.93638   L 209.15717,285.05386   L 211.80472,282.4063   L 212.68724,279.75874   L 213.56976,277.9937   L 214.45228,276.22866   L 215.3348,274.46362   L 217.09984,272.69858   L 217.98236,270.93354   L 220.62992,270.05102   L 222.39496,270.93354   L 224.16,272.69858   L 225.92504,274.46362   L 227.69008,277.11118   L 228.5726,278.87622   L 230.33764,279.75874   L 230.33764,277.9937   L 231.22016,276.22866   L 232.10268,274.46362   L 233.86772,271.81606   L 234.75024,270.05102   L 235.63276,268.28598   L 236.51528,266.52094   L 237.3978,264.75591   L 238.28031,262.99087   L 239.16283,261.22583   L 240.92787,258.57827   L 241.81039,256.81323   L 242.69291,255.04819   L 243.57543,253.28315   L 244.45795,251.51811   L 245.34047,249.75307   L 246.22299,247.98803   L 256.81323,227.69008   L 275.34614,189.74173   L 279.75874,181.79906   L 284.17134,173.85638   L 287.70142,165.9137   L 292.11402,157.97102   L 295.64409,150.02835   L 300.05669,142.08567   L 304.46929,134.14299   L 307.99937,126.20031   L 312.41197,118.25764   L 316.82457,110.31496   L 320.35465,102.37228   L 324.76724,94.429606   L 328.29732,86.486929   L 332.70992,79.426772   L 337.12252,71.484094   L 340.6526,63.541417   L 345.0652,55.59874   L 348.59528,47.656063   L 353.00787,39.713386   L 357.42047,31.770709   L 361.83307,38.830866   L 366.24567,45.008504   L 370.65827,52.068661   L 375.07087,58.246299   L 379.48346,65.306457   L 383.89606,71.484094   L 388.30866,78.544252   L 393.60378,84.72189   L 398.01638,91.782047   L 402.42898,97.959685   L 406.84157,105.01984   L 411.25417,111.19748   L 415.66677,118.25764   L 420.07937,124.43528   L 424.49197,131.49543   L 428.90457,137.67307   L 433.31717,144.73323   L 437.72976,150.91087   L 442.14236,157.97102   L 446.55496,164.14866   L 473.03055,203.86205   L 488.91591,226.80756   L 505.68378,250.63559   L 513.62646,262.10835   L 518.03906,269.1685   L 520.68661,272.69858   L 522.45165,275.34614   L 523.33417,277.11118   L 525.09921,278.87622   L 526.86425,280.64126   L 528.62929,283.28882   L 530.39433,285.05386   L 533.04189,286.8189   L 534.80693,285.93638   L 537.45449,283.28882   L 539.21953,279.75874   L 540.10205,277.9937   L 540.98457,276.22866   L 541.86709,274.46362   L 542.74961,271.81606   L 544.51465,270.93354   L 546.27969,270.05102   L 548.92724,270.93354   L 550.69228,272.69858   L 551.5748,274.46362   L 553.33984,276.22866   L 555.10488,278.87622   L 555.9874,280.64126   L 558.63496,283.28882   L 561.28252,285.05386   L 563.04756,286.8189   L 564.8126,285.93638   L 567.46016,283.28882   L 569.2252,279.75874   L 570.10772,277.9937   L 570.99024,276.22866   L 571.87276,274.46362   L 573.6378,271.81606   L 577.16787,270.05102   L 578.93291,270.93354   L 580.69795,272.69858   L 582.46299,274.46362   L 583.34551,276.22866   L 585.11055,278.87622   L 586.87559,280.64126   L 588.64063,283.28882   L 591.28819,285.93638   L 593.93575,285.93638   L 595.70079,285.05386   L 598.34835,282.4063   L 599.23087,279.75874   L 600.11339,277.9937   L 600.99591,276.22866   L 601.87843,274.46362   L 603.64346,271.81606   L 605.4085,270.93354   L 607.17354,270.05102   L 608.93858,270.93354   L 610.70362,272.69858   L 612.46866,274.46362   L 614.2337,277.11118   L 615.99874,278.87622   L 616.88126,280.64126   L 619.52882,283.28882   L 622.17638,285.93638   L 623.94142,285.93638   L 626.58898,285.05386   L 628.35402,281.52378   L 629.23654,279.75874   L 630.11906,277.9937   L 631.88409,276.22866   L 632.76661,274.46362   L 633.64913,271.81606   L 635.41417,270.93354   L 637.17921,270.05102   L 638.94425,270.93354   L 640.70929,272.69858   L 642.47433,274.46362   L 644.23937,276.22866   L 645.12189,277.9937   L 646.00441,279.75874   L 647.76945,277.9937   L 648.65197,276.22866   L 649.53449,274.46362   L 650.41701,272.69858   L 651.29953,270.93354   L 652.18205,269.1685   L 653.06457,267.40346   L 653.94709,265.63843   L 654.82961,263.87339   L 655.71213,262.10835   L 656.59465,260.34331   L 657.47717,258.57827   L 658.35969,256.81323   L 659.2422,255.04819   L 660.12472,253.28315   L 661.00724,251.51811   L 668.0674,237.3978   L 682.18772,210.03969   L 710.42835,154.44094   L 773.96976,31.770709   L 779.26488,38.830866   L 781.91244,43.243465  "
     id="path157" />
</svg>
