<?xml version="1.0" encoding="UTF-8" standalone="no"?>
<svg
   xmlns:dc="http://purl.org/dc/elements/1.1/"
   xmlns:cc="http://creativecommons.org/ns#"
   xmlns:rdf="http://www.w3.org/1999/02/22-rdf-syntax-ns#"
   xmlns:svg="http://www.w3.org/2000/svg"
   xmlns="http://www.w3.org/2000/svg"
   xmlns:sodipodi="http://sodipodi.sourceforge.net/DTD/sodipodi-0.dtd"
   xmlns:inkscape="http://www.inkscape.org/namespaces/inkscape"
   version="1.0"
   width="222.39mm"
   height="88.209999mm"
   id="svg159"
   sodipodi:docname="spulenstrom_ringing_dampened.svg"
   inkscape:version="1.0.1 (3bc2e813f5, 2020-09-07)">
  <metadata
     id="metadata163">
    <rdf:RDF>
      <cc:Work
         rdf:about="">
        <dc:format>image/svg+xml</dc:format>
        <dc:type
           rdf:resource="http://purl.org/dc/dcmitype/StillImage" />
        <dc:title></dc:title>
      </cc:Work>
    </rdf:RDF>
  </metadata>
  <sodipodi:namedview
     pagecolor="#ffffff"
     bordercolor="#666666"
     borderopacity="1"
     objecttolerance="10"
     gridtolerance="10"
     guidetolerance="10"
     inkscape:pageopacity="0"
     inkscape:pageshadow="2"
     inkscape:window-width="2560"
     inkscape:window-height="1361"
     id="namedview161"
     showgrid="false"
     inkscape:zoom="1.319407"
     inkscape:cx="420.26457"
     inkscape:cy="166.69606"
     inkscape:window-x="-9"
     inkscape:window-y="-9"
     inkscape:window-maximized="1"
     inkscape:current-layer="svg159" />
  <defs
     id="defs3">
    <pattern
       id="EMFhbasepattern"
       patternUnits="userSpaceOnUse"
       width="6"
       height="6"
       x="0"
       y="0" />
  </defs>
  <path
     style="fill:none;stroke:#000000;stroke-width:0.88251966px;stroke-linecap:round;stroke-linejoin:round;stroke-miterlimit:4;stroke-dasharray:none;stroke-opacity:1;"
     d="  M 33.535748,307.11685   L 33.535748,315.05953  "
     id="path5" />
  <g
     aria-label="2.000ms"
     transform="matrix(1.000000,-0.000000,0.000000,1.000000,61.776378,315.059528)"
     id="text11"
     style="font-style:normal;font-variant:normal;font-weight:700;font-size:15px;line-height:125%;font-family:Arial;text-align:start;letter-spacing:0px;word-spacing:0px;text-anchor:start;fill:#000000;fill-opacity:1;stroke:none">
    <path
       d="m -51.628418,11.66748 v 1.911622 h -7.214355 q 0.117187,-1.083985 0.703125,-2.050782 0.585937,-0.974121 2.314453,-2.5781247 1.391601,-1.2963867 1.706543,-1.7578125 0.424804,-0.637207 0.424804,-1.2597656 0,-0.6884766 -0.373535,-1.0546875 -0.366211,-0.3735352 -1.018066,-0.3735352 -0.644531,0 -1.025391,0.3881836 -0.380859,0.3881836 -0.439453,1.2890625 l -2.050781,-0.2050781 q 0.183105,-1.6992188 1.149902,-2.4389648 0.966797,-0.7397461 2.416992,-0.7397461 1.589356,0 2.497559,0.8569336 0.908203,0.8569335 0.908203,2.1313476 0,0.7250977 -0.263672,1.3842774 -0.256347,0.6518554 -0.820312,1.3696289 -0.373535,0.4760742 -1.347657,1.3696289 -0.974121,0.893555 -1.237793,1.186523 -0.256347,0.292969 -0.41748,0.571289 z"
       style="font-style:normal;font-variant:normal;font-weight:700;font-size:15px;font-family:Arial;fill:#000000"
       id="path1034" />
    <path
       d="m -49.797363,13.579102 v -2.058106 h 2.058105 v 2.058106 z"
       style="font-style:normal;font-variant:normal;font-weight:700;font-size:15px;font-family:Arial;fill:#000000"
       id="path1036" />
    <path
       d="m -42.590332,2.7978516 q 1.560059,0 2.438965,1.1132812 1.047363,1.3183594 1.047363,4.3725586 0,3.0468746 -1.054687,4.3798826 -0.871582,1.098633 -2.431641,1.098633 -1.567383,0 -2.526855,-1.201172 -0.959473,-1.208496 -0.959473,-4.2993162 0,-3.0322266 1.054687,-4.3652344 0.871582,-1.0986328 2.431641,-1.0986328 z m 0,1.7065429 q -0.373535,0 -0.666504,0.2416992 -0.292969,0.234375 -0.454101,0.8496094 -0.212403,0.7983399 -0.212403,2.6879883 0,1.8896486 0.19043,2.6000976 0.19043,0.703125 0.476074,0.9375 0.292969,0.234375 0.666504,0.234375 0.373535,0 0.666504,-0.234375 0.292969,-0.241699 0.454101,-0.856934 0.212403,-0.791015 0.212403,-2.6806636 0,-1.8896484 -0.19043,-2.5927734 -0.19043,-0.7104493 -0.483398,-0.9448243 -0.285645,-0.2416992 -0.65918,-0.2416992 z"
       style="font-style:normal;font-variant:normal;font-weight:700;font-size:15px;font-family:Arial;fill:#000000"
       id="path1038" />
    <path
       d="m -34.248047,2.7978516 q 1.560059,0 2.438965,1.1132812 1.047363,1.3183594 1.047363,4.3725586 0,3.0468746 -1.054687,4.3798826 -0.871582,1.098633 -2.431641,1.098633 -1.567383,0 -2.526855,-1.201172 -0.959473,-1.208496 -0.959473,-4.2993162 0,-3.0322266 1.054688,-4.3652344 0.871582,-1.0986328 2.43164,-1.0986328 z m 0,1.7065429 q -0.373535,0 -0.666504,0.2416992 -0.292969,0.234375 -0.454101,0.8496094 -0.212403,0.7983399 -0.212403,2.6879883 0,1.8896486 0.19043,2.6000976 0.19043,0.703125 0.476074,0.9375 0.292969,0.234375 0.666504,0.234375 0.373535,0 0.666504,-0.234375 0.292969,-0.241699 0.454102,-0.856934 0.212402,-0.791015 0.212402,-2.6806636 0,-1.8896484 -0.19043,-2.5927734 -0.190429,-0.7104493 -0.483398,-0.9448243 -0.285645,-0.2416992 -0.65918,-0.2416992 z"
       style="font-style:normal;font-variant:normal;font-weight:700;font-size:15px;font-family:Arial;fill:#000000"
       id="path1040" />
    <path
       d="m -25.905762,2.7978516 q 1.560059,0 2.438965,1.1132812 1.047363,1.3183594 1.047363,4.3725586 0,3.0468746 -1.054687,4.3798826 -0.871582,1.098633 -2.431641,1.098633 -1.567383,0 -2.526855,-1.201172 -0.959473,-1.208496 -0.959473,-4.2993162 0,-3.0322266 1.054688,-4.3652344 0.871582,-1.0986328 2.43164,-1.0986328 z m 0,1.7065429 q -0.373535,0 -0.666504,0.2416992 -0.292968,0.234375 -0.454101,0.8496094 -0.212403,0.7983399 -0.212403,2.6879883 0,1.8896486 0.19043,2.6000976 0.19043,0.703125 0.476074,0.9375 0.292969,0.234375 0.666504,0.234375 0.373535,0 0.666504,-0.234375 0.292969,-0.241699 0.454102,-0.856934 0.212402,-0.791015 0.212402,-2.6806636 0,-1.8896484 -0.19043,-2.5927734 -0.190429,-0.7104493 -0.483398,-0.9448243 -0.285645,-0.2416992 -0.65918,-0.2416992 z"
       style="font-style:normal;font-variant:normal;font-weight:700;font-size:15px;font-family:Arial;fill:#000000"
       id="path1042" />
    <path
       d="m -20.756836,5.8007812 h 1.896973 V 6.862793 Q -17.841797,5.625 -16.435547,5.625 q 0.74707,0 1.296387,0.3076172 0.549316,0.3076172 0.900879,0.9301758 0.512695,-0.6225586 1.105957,-0.9301758 Q -12.539063,5.625 -11.865234,5.625 q 0.856933,0 1.450195,0.3515625 0.5932617,0.3442383 0.8862304,1.0180664 0.2124023,0.4980469 0.2124023,1.6113281 v 4.973145 H -11.374512 V 9.1333008 q 0,-1.1572266 -0.212402,-1.4941406 -0.285645,-0.4394532 -0.878906,-0.4394532 -0.432129,0 -0.812989,0.2636719 -0.380859,0.2636719 -0.549316,0.7763672 -0.168457,0.5053711 -0.168457,1.6040039 v 3.735352 h -2.058105 V 9.3164063 q 0,-1.135254 -0.109864,-1.4648438 -0.109863,-0.3295898 -0.344238,-0.4907227 -0.227051,-0.1611328 -0.622559,-0.1611328 -0.476074,0 -0.856933,0.2563477 -0.38086,0.2563476 -0.549317,0.7397461 -0.161132,0.4833984 -0.161132,1.6040039 v 3.7792973 h -2.058106 z"
       style="font-style:normal;font-variant:normal;font-weight:700;font-size:15px;font-family:Arial;fill:#000000"
       id="path1044" />
    <path
       d="m -7.9907227,11.359863 2.0654297,-0.314941 q 0.131836,0.600586 0.534668,0.915527 0.402832,0.307617 1.1279297,0.307617 0.7983398,0 1.2011719,-0.292968 0.2709961,-0.205078 0.2709961,-0.549317 0,-0.234375 -0.1464844,-0.388183 -0.1538086,-0.146485 -0.6884766,-0.270996 -2.4902344,-0.549317 -3.1567383,-1.0034184 -0.9228515,-0.6298828 -0.9228515,-1.7504883 0,-1.0107422 0.7983398,-1.6992187 Q -6.1083984,5.625 -4.4311523,5.625 q 1.5966796,0 2.3730468,0.5200195 0.7763672,0.5200196 1.06933597,1.538086 L -2.9296875,8.0419922 Q -3.0541992,7.5878906 -3.4057617,7.3461914 -3.75,7.1044922 -4.3945312,7.1044922 q -0.8129883,0 -1.1645508,0.2270508 -0.234375,0.1611328 -0.234375,0.4174804 0,0.2197266 0.2050781,0.3735352 0.2783203,0.2050781 1.9189453,0.5786133 1.6479492,0.3735351 2.2998047,0.9155273 0.64453124,0.5493168 0.64453124,1.5307618 0,1.069336 -0.89355464,1.838379 -0.8935547,0.769043 -2.644043,0.769043 -1.5893555,0 -2.5195313,-0.644531 -0.9228515,-0.644532 -1.2084961,-1.750489 z"
       style="font-style:normal;font-variant:normal;font-weight:700;font-size:15px;font-family:Arial;fill:#000000"
       id="path1046" />
  </g>
  <path
     style="fill:none;stroke:#000000;stroke-width:0.88251966px;stroke-linecap:round;stroke-linejoin:round;stroke-miterlimit:4;stroke-dasharray:none;stroke-opacity:1;"
     d="  M 345.0652,307.11685   L 345.0652,315.05953  "
     id="path13" />
  <g
     aria-label="2.005ms"
     transform="matrix(1.000000,-0.000000,0.000000,1.000000,373.305827,315.059528)"
     id="text19"
     style="font-style:normal;font-variant:normal;font-weight:700;font-size:15px;line-height:125%;font-family:Arial;text-align:start;letter-spacing:0px;word-spacing:0px;text-anchor:start;fill:#000000;fill-opacity:1;stroke:none">
    <path
       d="m -51.628418,11.66748 v 1.911622 h -7.214355 q 0.117187,-1.083985 0.703125,-2.050782 0.585937,-0.974121 2.314453,-2.5781247 1.391601,-1.2963867 1.706543,-1.7578125 0.424804,-0.637207 0.424804,-1.2597656 0,-0.6884766 -0.373535,-1.0546875 -0.366211,-0.3735352 -1.018066,-0.3735352 -0.644531,0 -1.025391,0.3881836 -0.380859,0.3881836 -0.439453,1.2890625 l -2.050781,-0.2050781 q 0.183105,-1.6992188 1.149902,-2.4389648 0.966797,-0.7397461 2.416992,-0.7397461 1.589356,0 2.497559,0.8569336 0.908203,0.8569335 0.908203,2.1313476 0,0.7250977 -0.263672,1.3842774 -0.256347,0.6518554 -0.820312,1.3696289 -0.373535,0.4760742 -1.347657,1.3696289 -0.974121,0.893555 -1.237793,1.186523 -0.256347,0.292969 -0.41748,0.571289 z"
       style="font-style:normal;font-variant:normal;font-weight:700;font-size:15px;font-family:Arial;fill:#000000"
       id="path1049" />
    <path
       d="m -49.797363,13.579102 v -2.058106 h 2.058105 v 2.058106 z"
       style="font-style:normal;font-variant:normal;font-weight:700;font-size:15px;font-family:Arial;fill:#000000"
       id="path1051" />
    <path
       d="m -42.590332,2.7978516 q 1.560059,0 2.438965,1.1132812 1.047363,1.3183594 1.047363,4.3725586 0,3.0468746 -1.054687,4.3798826 -0.871582,1.098633 -2.431641,1.098633 -1.567383,0 -2.526855,-1.201172 -0.959473,-1.208496 -0.959473,-4.2993162 0,-3.0322266 1.054687,-4.3652344 0.871582,-1.0986328 2.431641,-1.0986328 z m 0,1.7065429 q -0.373535,0 -0.666504,0.2416992 -0.292969,0.234375 -0.454101,0.8496094 -0.212403,0.7983399 -0.212403,2.6879883 0,1.8896486 0.19043,2.6000976 0.19043,0.703125 0.476074,0.9375 0.292969,0.234375 0.666504,0.234375 0.373535,0 0.666504,-0.234375 0.292969,-0.241699 0.454101,-0.856934 0.212403,-0.791015 0.212403,-2.6806636 0,-1.8896484 -0.19043,-2.5927734 -0.19043,-0.7104493 -0.483398,-0.9448243 -0.285645,-0.2416992 -0.65918,-0.2416992 z"
       style="font-style:normal;font-variant:normal;font-weight:700;font-size:15px;font-family:Arial;fill:#000000"
       id="path1053" />
    <path
       d="m -34.248047,2.7978516 q 1.560059,0 2.438965,1.1132812 1.047363,1.3183594 1.047363,4.3725586 0,3.0468746 -1.054687,4.3798826 -0.871582,1.098633 -2.431641,1.098633 -1.567383,0 -2.526855,-1.201172 -0.959473,-1.208496 -0.959473,-4.2993162 0,-3.0322266 1.054688,-4.3652344 0.871582,-1.0986328 2.43164,-1.0986328 z m 0,1.7065429 q -0.373535,0 -0.666504,0.2416992 -0.292969,0.234375 -0.454101,0.8496094 -0.212403,0.7983399 -0.212403,2.6879883 0,1.8896486 0.19043,2.6000976 0.19043,0.703125 0.476074,0.9375 0.292969,0.234375 0.666504,0.234375 0.373535,0 0.666504,-0.234375 0.292969,-0.241699 0.454102,-0.856934 0.212402,-0.791015 0.212402,-2.6806636 0,-1.8896484 -0.19043,-2.5927734 -0.190429,-0.7104493 -0.483398,-0.9448243 -0.285645,-0.2416992 -0.65918,-0.2416992 z"
       style="font-style:normal;font-variant:normal;font-weight:700;font-size:15px;font-family:Arial;fill:#000000"
       id="path1055" />
    <path
       d="m -29.355469,10.817871 2.050782,-0.212402 q 0.08789,0.695801 0.520019,1.105957 0.432129,0.402832 0.996094,0.402832 0.644531,0 1.091308,-0.52002 0.446778,-0.527343 0.446778,-1.582031 0,-0.9887695 -0.446778,-1.4794922 -0.439453,-0.4980468 -1.149902,-0.4980468 -0.88623,0 -1.589355,0.7836914 l -1.669922,-0.2416992 1.054687,-5.5883789 h 5.441895 v 1.9262695 h -3.881836 l -0.322266,1.8237304 q 0.688477,-0.3442382 1.40625,-0.3442382 1.369629,0 2.321778,0.9960937 0.952148,0.9960938 0.952148,2.5854492 0,1.3256841 -0.769043,2.3657231 -1.047363,1.420898 -2.907715,1.420898 -1.486816,0 -2.424316,-0.79834 -0.9375,-0.79834 -1.120606,-2.145996 z"
       style="font-style:normal;font-variant:normal;font-weight:700;font-size:15px;font-family:Arial;fill:#000000"
       id="path1057" />
    <path
       d="m -20.756836,5.8007812 h 1.896973 V 6.862793 Q -17.841797,5.625 -16.435547,5.625 q 0.74707,0 1.296387,0.3076172 0.549316,0.3076172 0.900879,0.9301758 0.512695,-0.6225586 1.105957,-0.9301758 Q -12.539063,5.625 -11.865234,5.625 q 0.856933,0 1.450195,0.3515625 0.5932617,0.3442383 0.8862304,1.0180664 0.2124023,0.4980469 0.2124023,1.6113281 v 4.973145 H -11.374512 V 9.1333008 q 0,-1.1572266 -0.212402,-1.4941406 -0.285645,-0.4394532 -0.878906,-0.4394532 -0.432129,0 -0.812989,0.2636719 -0.380859,0.2636719 -0.549316,0.7763672 -0.168457,0.5053711 -0.168457,1.6040039 v 3.735352 h -2.058105 V 9.3164063 q 0,-1.135254 -0.109864,-1.4648438 -0.109863,-0.3295898 -0.344238,-0.4907227 -0.227051,-0.1611328 -0.622559,-0.1611328 -0.476074,0 -0.856933,0.2563477 -0.38086,0.2563476 -0.549317,0.7397461 -0.161132,0.4833984 -0.161132,1.6040039 v 3.7792973 h -2.058106 z"
       style="font-style:normal;font-variant:normal;font-weight:700;font-size:15px;font-family:Arial;fill:#000000"
       id="path1059" />
    <path
       d="m -7.9907227,11.359863 2.0654297,-0.314941 q 0.131836,0.600586 0.534668,0.915527 0.402832,0.307617 1.1279297,0.307617 0.7983398,0 1.2011719,-0.292968 0.2709961,-0.205078 0.2709961,-0.549317 0,-0.234375 -0.1464844,-0.388183 -0.1538086,-0.146485 -0.6884766,-0.270996 -2.4902344,-0.549317 -3.1567383,-1.0034184 -0.9228515,-0.6298828 -0.9228515,-1.7504883 0,-1.0107422 0.7983398,-1.6992187 Q -6.1083984,5.625 -4.4311523,5.625 q 1.5966796,0 2.3730468,0.5200195 0.7763672,0.5200196 1.06933597,1.538086 L -2.9296875,8.0419922 Q -3.0541992,7.5878906 -3.4057617,7.3461914 -3.75,7.1044922 -4.3945312,7.1044922 q -0.8129883,0 -1.1645508,0.2270508 -0.234375,0.1611328 -0.234375,0.4174804 0,0.2197266 0.2050781,0.3735352 0.2783203,0.2050781 1.9189453,0.5786133 1.6479492,0.3735351 2.2998047,0.9155273 0.64453124,0.5493168 0.64453124,1.5307618 0,1.069336 -0.89355464,1.838379 -0.8935547,0.769043 -2.644043,0.769043 -1.5893555,0 -2.5195313,-0.644531 -0.9228515,-0.644532 -1.2084961,-1.750489 z"
       style="font-style:normal;font-variant:normal;font-weight:700;font-size:15px;font-family:Arial;fill:#000000"
       id="path1061" />
  </g>
  <path
     style="fill:none;stroke:#000000;stroke-width:0.88251966px;stroke-linecap:round;stroke-linejoin:round;stroke-miterlimit:4;stroke-dasharray:none;stroke-opacity:1;"
     d="  M 657.47717,307.11685   L 657.47717,315.05953  "
     id="path21" />
  <g
     aria-label="2.010ms"
     transform="matrix(1.000000,-0.000000,0.000000,1.000000,685.717795,315.059528)"
     id="text27"
     style="font-style:normal;font-variant:normal;font-weight:700;font-size:15px;line-height:125%;font-family:Arial;text-align:start;letter-spacing:0px;word-spacing:0px;text-anchor:start;fill:#000000;fill-opacity:1;stroke:none">
    <path
       d="m -51.628418,11.66748 v 1.911622 h -7.214355 q 0.117187,-1.083985 0.703125,-2.050782 0.585937,-0.974121 2.314453,-2.5781247 1.391601,-1.2963867 1.706543,-1.7578125 0.424804,-0.637207 0.424804,-1.2597656 0,-0.6884766 -0.373535,-1.0546875 -0.366211,-0.3735352 -1.018066,-0.3735352 -0.644531,0 -1.025391,0.3881836 -0.380859,0.3881836 -0.439453,1.2890625 l -2.050781,-0.2050781 q 0.183105,-1.6992188 1.149902,-2.4389648 0.966797,-0.7397461 2.416992,-0.7397461 1.589356,0 2.497559,0.8569336 0.908203,0.8569335 0.908203,2.1313476 0,0.7250977 -0.263672,1.3842774 -0.256347,0.6518554 -0.820312,1.3696289 -0.373535,0.4760742 -1.347657,1.3696289 -0.974121,0.893555 -1.237793,1.186523 -0.256347,0.292969 -0.41748,0.571289 z"
       style="font-style:normal;font-variant:normal;font-weight:700;font-size:15px;font-family:Arial;fill:#000000"
       id="path1064" />
    <path
       d="m -49.797363,13.579102 v -2.058106 h 2.058105 v 2.058106 z"
       style="font-style:normal;font-variant:normal;font-weight:700;font-size:15px;font-family:Arial;fill:#000000"
       id="path1066" />
    <path
       d="m -42.590332,2.7978516 q 1.560059,0 2.438965,1.1132812 1.047363,1.3183594 1.047363,4.3725586 0,3.0468746 -1.054687,4.3798826 -0.871582,1.098633 -2.431641,1.098633 -1.567383,0 -2.526855,-1.201172 -0.959473,-1.208496 -0.959473,-4.2993162 0,-3.0322266 1.054687,-4.3652344 0.871582,-1.0986328 2.431641,-1.0986328 z m 0,1.7065429 q -0.373535,0 -0.666504,0.2416992 -0.292969,0.234375 -0.454101,0.8496094 -0.212403,0.7983399 -0.212403,2.6879883 0,1.8896486 0.19043,2.6000976 0.19043,0.703125 0.476074,0.9375 0.292969,0.234375 0.666504,0.234375 0.373535,0 0.666504,-0.234375 0.292969,-0.241699 0.454101,-0.856934 0.212403,-0.791015 0.212403,-2.6806636 0,-1.8896484 -0.19043,-2.5927734 -0.19043,-0.7104493 -0.483398,-0.9448243 -0.285645,-0.2416992 -0.65918,-0.2416992 z"
       style="font-style:normal;font-variant:normal;font-weight:700;font-size:15px;font-family:Arial;fill:#000000"
       id="path1068" />
    <path
       d="m -32.460937,13.579102 h -2.058106 V 5.8227539 q -1.12793,1.0546875 -2.658691,1.5600586 V 5.5151367 q 0.805664,-0.2636719 1.750488,-0.9960937 0.944824,-0.7397461 1.296387,-1.7211914 h 1.669922 z"
       style="font-style:normal;font-variant:normal;font-weight:700;font-size:15px;font-family:Arial;fill:#000000"
       id="path1070" />
    <path
       d="m -25.905762,2.7978516 q 1.560059,0 2.438965,1.1132812 1.047363,1.3183594 1.047363,4.3725586 0,3.0468746 -1.054687,4.3798826 -0.871582,1.098633 -2.431641,1.098633 -1.567383,0 -2.526855,-1.201172 -0.959473,-1.208496 -0.959473,-4.2993162 0,-3.0322266 1.054688,-4.3652344 0.871582,-1.0986328 2.43164,-1.0986328 z m 0,1.7065429 q -0.373535,0 -0.666504,0.2416992 -0.292968,0.234375 -0.454101,0.8496094 -0.212403,0.7983399 -0.212403,2.6879883 0,1.8896486 0.19043,2.6000976 0.19043,0.703125 0.476074,0.9375 0.292969,0.234375 0.666504,0.234375 0.373535,0 0.666504,-0.234375 0.292969,-0.241699 0.454102,-0.856934 0.212402,-0.791015 0.212402,-2.6806636 0,-1.8896484 -0.19043,-2.5927734 -0.190429,-0.7104493 -0.483398,-0.9448243 -0.285645,-0.2416992 -0.65918,-0.2416992 z"
       style="font-style:normal;font-variant:normal;font-weight:700;font-size:15px;font-family:Arial;fill:#000000"
       id="path1072" />
    <path
       d="m -20.756836,5.8007812 h 1.896973 V 6.862793 Q -17.841797,5.625 -16.435547,5.625 q 0.74707,0 1.296387,0.3076172 0.549316,0.3076172 0.900879,0.9301758 0.512695,-0.6225586 1.105957,-0.9301758 Q -12.539063,5.625 -11.865234,5.625 q 0.856933,0 1.450195,0.3515625 0.5932617,0.3442383 0.8862304,1.0180664 0.2124023,0.4980469 0.2124023,1.6113281 v 4.973145 H -11.374512 V 9.1333008 q 0,-1.1572266 -0.212402,-1.4941406 -0.285645,-0.4394532 -0.878906,-0.4394532 -0.432129,0 -0.812989,0.2636719 -0.380859,0.2636719 -0.549316,0.7763672 -0.168457,0.5053711 -0.168457,1.6040039 v 3.735352 h -2.058105 V 9.3164063 q 0,-1.135254 -0.109864,-1.4648438 -0.109863,-0.3295898 -0.344238,-0.4907227 -0.227051,-0.1611328 -0.622559,-0.1611328 -0.476074,0 -0.856933,0.2563477 -0.38086,0.2563476 -0.549317,0.7397461 -0.161132,0.4833984 -0.161132,1.6040039 v 3.7792973 h -2.058106 z"
       style="font-style:normal;font-variant:normal;font-weight:700;font-size:15px;font-family:Arial;fill:#000000"
       id="path1074" />
    <path
       d="m -7.9907227,11.359863 2.0654297,-0.314941 q 0.131836,0.600586 0.534668,0.915527 0.402832,0.307617 1.1279297,0.307617 0.7983398,0 1.2011719,-0.292968 0.2709961,-0.205078 0.2709961,-0.549317 0,-0.234375 -0.1464844,-0.388183 -0.1538086,-0.146485 -0.6884766,-0.270996 -2.4902344,-0.549317 -3.1567383,-1.0034184 -0.9228515,-0.6298828 -0.9228515,-1.7504883 0,-1.0107422 0.7983398,-1.6992187 Q -6.1083984,5.625 -4.4311523,5.625 q 1.5966796,0 2.3730468,0.5200195 0.7763672,0.5200196 1.06933597,1.538086 L -2.9296875,8.0419922 Q -3.0541992,7.5878906 -3.4057617,7.3461914 -3.75,7.1044922 -4.3945312,7.1044922 q -0.8129883,0 -1.1645508,0.2270508 -0.234375,0.1611328 -0.234375,0.4174804 0,0.2197266 0.2050781,0.3735352 0.2783203,0.2050781 1.9189453,0.5786133 1.6479492,0.3735351 2.2998047,0.9155273 0.64453124,0.5493168 0.64453124,1.5307618 0,1.069336 -0.89355464,1.838379 -0.8935547,0.769043 -2.644043,0.769043 -1.5893555,0 -2.5195313,-0.644531 -0.9228515,-0.644532 -1.2084961,-1.750489 z"
       style="font-style:normal;font-variant:normal;font-weight:700;font-size:15px;font-family:Arial;fill:#000000"
       id="path1076" />
  </g>
  <g
     aria-label="-1V"
     transform="matrix(1.000000,-0.000000,0.000000,1.000000,685.717795,315.059528)"
     id="text33"
     style="font-style:normal;font-variant:normal;font-weight:700;font-size:15px;line-height:125%;font-family:Arial;text-align:start;letter-spacing:0px;word-spacing:0px;text-anchor:start;fill:#000000;fill-opacity:1;stroke:none">
    <path
       d="M -682.62469,-5.1700225 V -7.228128 h 4.04296 v 2.0581055 z"
       style="font-style:normal;font-variant:normal;font-weight:700;font-size:15px;font-family:Arial;fill:#000000"
       id="path1027" />
    <path
       d="m -672.56854,-2.306253 h -2.05811 v -7.756348 q -1.12793,1.0546879 -2.65869,1.560059 v -1.867676 q 0.80566,-0.263672 1.75049,-0.996094 0.94482,-0.739746 1.29639,-1.721191 h 1.66992 z"
       style="font-style:normal;font-variant:normal;font-weight:700;font-size:15px;font-family:Arial;fill:#000000"
       id="path1029" />
    <path
       d="m -666.29901,-2.306253 -3.83789,-10.737305 h 2.35107 l 2.71729,7.9467777 2.62939,-7.9467777 h 2.29981 l -3.84522,10.737305 z"
       style="font-style:normal;font-variant:normal;font-weight:700;font-size:15px;font-family:Arial;fill:#000000"
       id="path1031" />
  </g>
  <path
     style="fill:none;stroke:#000000;stroke-width:0.88251966px;stroke-linecap:round;stroke-linejoin:round;stroke-miterlimit:4;stroke-dasharray:none;stroke-opacity:1;"
     d="  M 33.535748,307.11685   L 25.593071,307.11685  "
     id="path35" />
  <g
     aria-label="1V"
     transform="matrix(1.000000,-0.000000,0.000000,1.000000,25.593071,260.343307)"
     id="text41"
     style="font-style:normal;font-variant:normal;font-weight:700;font-size:15px;line-height:125%;font-family:Arial;text-align:start;letter-spacing:0px;word-spacing:0px;text-anchor:start;fill:#000000;fill-opacity:1;stroke:none">
    <path
       d="m -12.443848,13.579102 h -2.058105 V 5.8227539 q -1.12793,1.0546875 -2.658692,1.5600586 V 5.5151367 q 0.805665,-0.2636719 1.750489,-0.9960937 0.944824,-0.7397461 1.296386,-1.7211914 h 1.669922 z"
       style="font-style:normal;font-variant:normal;font-weight:700;font-size:15px;font-family:Arial;fill:#000000"
       id="path1022" />
    <path
       d="M -6.1743164,13.579102 -10.012207,2.8417969 h 2.3510742 l 2.7172851,7.9467771 2.6293946,-7.9467771 h 2.29980466 L -3.8598633,13.579102 Z"
       style="font-style:normal;font-variant:normal;font-weight:700;font-size:15px;font-family:Arial;fill:#000000"
       id="path1024" />
  </g>
  <path
     style="fill:none;stroke:#000000;stroke-width:0.88251966px;stroke-linecap:round;stroke-linejoin:round;stroke-miterlimit:4;stroke-dasharray:none;stroke-opacity:1;"
     d="  M 33.535748,268.28598   L 25.593071,268.28598  "
     id="path43" />
  <g
     aria-label="3V"
     transform="matrix(1.000000,-0.000000,0.000000,1.000000,25.593071,222.394961)"
     id="text49"
     style="font-style:normal;font-variant:normal;font-weight:700;font-size:15px;line-height:125%;font-family:Arial;text-align:start;letter-spacing:0px;word-spacing:0px;text-anchor:start;fill:#000000;fill-opacity:1;stroke:none">
    <path
       d="m -17.783203,10.72998 1.992187,-0.241699 q 0.09522,0.761719 0.512696,1.164551 0.41748,0.402832 1.010742,0.402832 0.637207,0 1.069336,-0.483398 0.439453,-0.483399 0.439453,-1.303711 0,-0.7763675 -0.417481,-1.2304691 -0.41748,-0.4541015 -1.018066,-0.4541015 -0.395508,0 -0.944824,0.1538086 l 0.227051,-1.6772461 q 0.834961,0.021973 1.274414,-0.3588867 0.439453,-0.3881836 0.439453,-1.0253907 0,-0.5419922 -0.322266,-0.8642578 -0.322265,-0.3222656 -0.856933,-0.3222656 -0.527344,0 -0.900879,0.3662109 -0.373535,0.366211 -0.454102,1.069336 l -1.896973,-0.3222657 q 0.197754,-0.9741211 0.593262,-1.5527343 0.402832,-0.5859375 1.113281,-0.9155274 0.717774,-0.336914 1.604004,-0.336914 1.516114,0 2.431641,0.9667968 0.754394,0.7910157 0.754394,1.7871094 0,1.4135742 -1.54541,2.2558594 0.922852,0.1977539 1.472168,0.8862305 0.556641,0.6884765 0.556641,1.6625973 0,1.413575 -1.032715,2.409668 -1.032715,0.996094 -2.570801,0.996094 -1.457519,0 -2.416992,-0.834961 -0.959473,-0.842285 -1.113281,-2.197266 z"
       style="font-style:normal;font-variant:normal;font-weight:700;font-size:15px;font-family:Arial;fill:#000000"
       id="path1017" />
    <path
       d="M -6.1743164,13.579102 -10.012207,2.8417969 h 2.3510742 l 2.7172851,7.9467771 2.6293946,-7.9467771 h 2.29980466 L -3.8598633,13.579102 Z"
       style="font-style:normal;font-variant:normal;font-weight:700;font-size:15px;font-family:Arial;fill:#000000"
       id="path1019" />
  </g>
  <path
     style="fill:none;stroke:#000000;stroke-width:0.88251966px;stroke-linecap:round;stroke-linejoin:round;stroke-miterlimit:4;stroke-dasharray:none;stroke-opacity:1;"
     d="  M 33.535748,230.33764   L 25.593071,230.33764  "
     id="path51" />
  <g
     aria-label="5V"
     transform="matrix(1.000000,-0.000000,0.000000,1.000000,25.593071,183.564094)"
     id="text57"
     style="font-style:normal;font-variant:normal;font-weight:700;font-size:15px;line-height:125%;font-family:Arial;text-align:start;letter-spacing:0px;word-spacing:0px;text-anchor:start;fill:#000000;fill-opacity:1;stroke:none">
    <path
       d="m -17.680664,10.817871 2.050781,-0.212402 q 0.08789,0.695801 0.52002,1.105957 0.432129,0.402832 0.996093,0.402832 0.644532,0 1.091309,-0.52002 0.446777,-0.527343 0.446777,-1.582031 0,-0.9887695 -0.446777,-1.4794922 -0.439453,-0.4980468 -1.149902,-0.4980468 -0.886231,0 -1.589356,0.7836914 l -1.669922,-0.2416992 1.054688,-5.5883789 h 5.441894 v 1.9262695 h -3.881836 l -0.322265,1.8237304 q 0.688476,-0.3442382 1.40625,-0.3442382 1.369629,0 2.321777,0.9960937 0.952149,0.9960938 0.952149,2.5854492 0,1.3256841 -0.769043,2.3657231 -1.047364,1.420898 -2.907715,1.420898 -1.486817,0 -2.424317,-0.79834 -0.9375,-0.79834 -1.120605,-2.145996 z"
       style="font-style:normal;font-variant:normal;font-weight:700;font-size:15px;font-family:Arial;fill:#000000"
       id="path1012" />
    <path
       d="M -6.1743164,13.579102 -10.012207,2.8417969 h 2.3510742 l 2.7172851,7.9467771 2.6293946,-7.9467771 h 2.29980466 L -3.8598633,13.579102 Z"
       style="font-style:normal;font-variant:normal;font-weight:700;font-size:15px;font-family:Arial;fill:#000000"
       id="path1014" />
  </g>
  <path
     style="fill:none;stroke:#000000;stroke-width:0.88251966px;stroke-linecap:round;stroke-linejoin:round;stroke-miterlimit:4;stroke-dasharray:none;stroke-opacity:1;"
     d="  M 33.535748,191.50677   L 25.593071,191.50677  "
     id="path59" />
  <g
     aria-label="7V"
     transform="matrix(1.000000,-0.000000,0.000000,1.000000,25.593071,145.615748)"
     id="text65"
     style="font-style:normal;font-variant:normal;font-weight:700;font-size:15px;line-height:125%;font-family:Arial;text-align:start;letter-spacing:0px;word-spacing:0px;text-anchor:start;fill:#000000;fill-opacity:1;stroke:none">
    <path
       d="m -17.709961,4.8999023 v -1.911621 h 7.038574 v 1.4941406 q -0.871582,0.8569336 -1.772461,2.4609375 -0.900879,1.6040039 -1.376953,3.4130856 -0.46875,1.801758 -0.461426,3.222657 h -1.984863 q 0.05127,-2.226563 0.915527,-4.5410161 0.871583,-2.3144531 2.321778,-4.1381836 z"
       style="font-style:normal;font-variant:normal;font-weight:700;font-size:15px;font-family:Arial;fill:#000000"
       id="path1007" />
    <path
       d="M -6.1743164,13.579102 -10.012207,2.8417969 h 2.3510742 l 2.7172851,7.9467771 2.6293946,-7.9467771 h 2.29980466 L -3.8598633,13.579102 Z"
       style="font-style:normal;font-variant:normal;font-weight:700;font-size:15px;font-family:Arial;fill:#000000"
       id="path1009" />
  </g>
  <path
     style="fill:none;stroke:#000000;stroke-width:0.88251966px;stroke-linecap:round;stroke-linejoin:round;stroke-miterlimit:4;stroke-dasharray:none;stroke-opacity:1;"
     d="  M 33.535748,153.55843   L 25.593071,153.55843  "
     id="path67" />
  <g
     aria-label="9V"
     transform="matrix(1.000000,-0.000000,0.000000,1.000000,25.593071,106.784882)"
     id="text73"
     style="font-style:normal;font-variant:normal;font-weight:700;font-size:15px;line-height:125%;font-family:Arial;text-align:start;letter-spacing:0px;word-spacing:0px;text-anchor:start;fill:#000000;fill-opacity:1;stroke:none">
    <path
       d="m -17.666016,11.096191 1.992188,-0.219726 q 0.07324,0.60791 0.380859,0.900879 0.307617,0.292969 0.812989,0.292969 0.637207,0 1.083984,-0.585938 0.446777,-0.585937 0.571289,-2.4316406 -0.776367,0.9008789 -1.940918,0.9008789 -1.26709,0 -2.189941,-0.9741211 -0.915528,-0.9814453 -0.915528,-2.5488281 0,-1.6333008 0.966797,-2.6293946 0.974121,-1.0034179 2.475586,-1.0034179 1.633301,0 2.680664,1.2670898 1.047363,1.2597656 1.047363,4.152832 0,2.9443356 -1.091308,4.2480466 -1.091309,1.303711 -2.841797,1.303711 -1.259766,0 -2.036133,-0.666504 -0.776367,-0.673828 -0.996094,-2.006836 z m 4.658203,-4.4970699 q 0,-0.9960938 -0.461425,-1.5454102 -0.454102,-0.5493164 -1.054688,-0.5493164 -0.571289,0 -0.952148,0.4541016 -0.373535,0.4467773 -0.373535,1.472168 0,1.040039 0.410156,1.5307617 0.410156,0.4833984 1.02539,0.4833984 0.593262,0 0.996094,-0.46875 0.410156,-0.46875 0.410156,-1.3769531 z"
       style="font-style:normal;font-variant:normal;font-weight:700;font-size:15px;font-family:Arial;fill:#000000"
       id="path1002" />
    <path
       d="M -6.1743164,13.579102 -10.012207,2.8417969 h 2.3510742 l 2.7172851,7.9467771 2.6293946,-7.9467771 h 2.29980466 L -3.8598633,13.579102 Z"
       style="font-style:normal;font-variant:normal;font-weight:700;font-size:15px;font-family:Arial;fill:#000000"
       id="path1004" />
  </g>
  <path
     style="fill:none;stroke:#000000;stroke-width:0.88251966px;stroke-linecap:round;stroke-linejoin:round;stroke-miterlimit:4;stroke-dasharray:none;stroke-opacity:1;"
     d="  M 33.535748,114.72756   L 25.593071,114.72756  "
     id="path75" />
  <g
     aria-label="11V"
     transform="matrix(1.000000,-0.000000,0.000000,1.000000,25.593071,67.954016)"
     id="text81"
     style="font-style:normal;font-variant:normal;font-weight:700;font-size:15px;line-height:125%;font-family:Arial;text-align:start;letter-spacing:0px;word-spacing:0px;text-anchor:start;fill:#000000;fill-opacity:1;stroke:none">
    <path
       d="m -19.958496,13.579102 h -2.058106 V 5.8227539 q -1.127929,1.0546875 -2.658691,1.5600586 V 5.5151367 q 0.805664,-0.2636719 1.750488,-0.9960937 0.944825,-0.7397461 1.296387,-1.7211914 h 1.669922 z"
       style="font-style:normal;font-variant:normal;font-weight:700;font-size:15px;font-family:Arial;fill:#000000"
       id="path995" />
    <path
       d="m -12.443848,13.579102 h -2.058105 V 5.8227539 q -1.12793,1.0546875 -2.658692,1.5600586 V 5.5151367 q 0.805665,-0.2636719 1.750489,-0.9960937 0.944824,-0.7397461 1.296386,-1.7211914 h 1.669922 z"
       style="font-style:normal;font-variant:normal;font-weight:700;font-size:15px;font-family:Arial;fill:#000000"
       id="path997" />
    <path
       d="M -6.1743164,13.579102 -10.012207,2.8417969 h 2.3510742 l 2.7172851,7.9467771 2.6293946,-7.9467771 h 2.29980466 L -3.8598633,13.579102 Z"
       style="font-style:normal;font-variant:normal;font-weight:700;font-size:15px;font-family:Arial;fill:#000000"
       id="path999" />
  </g>
  <path
     style="fill:none;stroke:#000000;stroke-width:0.88251966px;stroke-linecap:round;stroke-linejoin:round;stroke-miterlimit:4;stroke-dasharray:none;stroke-opacity:1;"
     d="  M 33.535748,75.896693   L 25.593071,75.896693  "
     id="path83" />
  <g
     aria-label="13V"
     transform="matrix(1.000000,-0.000000,0.000000,1.000000,25.593071,30.005669)"
     id="text89"
     style="font-style:normal;font-variant:normal;font-weight:700;font-size:15px;line-height:125%;font-family:Arial;text-align:start;letter-spacing:0px;word-spacing:0px;text-anchor:start;fill:#000000;fill-opacity:1;stroke:none">
    <path
       d="m -20.786133,13.579102 h -2.058105 V 5.8227539 q -1.12793,1.0546875 -2.658692,1.5600586 V 5.5151367 q 0.805664,-0.2636719 1.750489,-0.9960937 0.944824,-0.7397461 1.296386,-1.7211914 h 1.669922 z"
       style="font-style:normal;font-variant:normal;font-weight:700;font-size:15px;font-family:Arial;fill:#000000"
       id="path988" />
    <path
       d="m -17.783203,10.72998 1.992187,-0.241699 q 0.09522,0.761719 0.512696,1.164551 0.41748,0.402832 1.010742,0.402832 0.637207,0 1.069336,-0.483398 0.439453,-0.483399 0.439453,-1.303711 0,-0.7763675 -0.417481,-1.2304691 -0.41748,-0.4541015 -1.018066,-0.4541015 -0.395508,0 -0.944824,0.1538086 l 0.227051,-1.6772461 q 0.834961,0.021973 1.274414,-0.3588867 0.439453,-0.3881836 0.439453,-1.0253907 0,-0.5419922 -0.322266,-0.8642578 -0.322265,-0.3222656 -0.856933,-0.3222656 -0.527344,0 -0.900879,0.3662109 -0.373535,0.366211 -0.454102,1.069336 l -1.896973,-0.3222657 q 0.197754,-0.9741211 0.593262,-1.5527343 0.402832,-0.5859375 1.113281,-0.9155274 0.717774,-0.336914 1.604004,-0.336914 1.516114,0 2.431641,0.9667968 0.754394,0.7910157 0.754394,1.7871094 0,1.4135742 -1.54541,2.2558594 0.922852,0.1977539 1.472168,0.8862305 0.556641,0.6884765 0.556641,1.6625973 0,1.413575 -1.032715,2.409668 -1.032715,0.996094 -2.570801,0.996094 -1.457519,0 -2.416992,-0.834961 -0.959473,-0.842285 -1.113281,-2.197266 z"
       style="font-style:normal;font-variant:normal;font-weight:700;font-size:15px;font-family:Arial;fill:#000000"
       id="path990" />
    <path
       d="M -6.1743164,13.579102 -10.012207,2.8417969 h 2.3510742 l 2.7172851,7.9467771 2.6293946,-7.9467771 h 2.29980466 L -3.8598633,13.579102 Z"
       style="font-style:normal;font-variant:normal;font-weight:700;font-size:15px;font-family:Arial;fill:#000000"
       id="path992" />
  </g>
  <path
     style="fill:none;stroke:#000000;stroke-width:0.88251966px;stroke-linecap:round;stroke-linejoin:round;stroke-miterlimit:4;stroke-dasharray:none;stroke-opacity:1;"
     d="  M 33.535748,37.948346   L 25.593071,37.948346  "
     id="path91" />
  <g
     aria-label="-50mA"
     transform="matrix(1.000000,-0.000000,0.000000,1.000000,837.511181,299.174173)"
     id="text97"
     style="font-style:normal;font-variant:normal;font-weight:700;font-size:15px;line-height:125%;font-family:Arial;text-align:start;letter-spacing:0px;word-spacing:0px;text-anchor:start;fill:#000000;fill-opacity:1;stroke:none">
    <path
       d="M -45.007324,10.715332 V 8.6572266 h 4.042969 v 2.0581054 z"
       style="font-style:normal;font-variant:normal;font-weight:700;font-size:15px;font-family:Arial;fill:#000000"
       id="path1079" />
    <path
       d="m -40.187988,10.817871 2.050781,-0.212402 q 0.08789,0.695801 0.52002,1.105957 0.432128,0.402832 0.996093,0.402832 0.644532,0 1.091309,-0.52002 0.446777,-0.527343 0.446777,-1.582031 0,-0.9887695 -0.446777,-1.4794922 -0.439453,-0.4980468 -1.149902,-0.4980468 -0.886231,0 -1.589356,0.7836914 l -1.669922,-0.2416992 1.054688,-5.5883789 h 5.441894 v 1.9262695 h -3.881836 l -0.322265,1.8237304 q 0.688476,-0.3442382 1.40625,-0.3442382 1.369629,0 2.321777,0.9960937 0.952148,0.9960938 0.952148,2.5854492 0,1.3256841 -0.769043,2.3657231 -1.047363,1.420898 -2.907714,1.420898 -1.486817,0 -2.424317,-0.79834 -0.9375,-0.79834 -1.120605,-2.145996 z"
       style="font-style:normal;font-variant:normal;font-weight:700;font-size:15px;font-family:Arial;fill:#000000"
       id="path1081" />
    <path
       d="m -28.395996,2.7978516 q 1.560059,0 2.438965,1.1132812 1.047363,1.3183594 1.047363,4.3725586 0,3.0468746 -1.054687,4.3798826 -0.871582,1.098633 -2.431641,1.098633 -1.567383,0 -2.526856,-1.201172 -0.959472,-1.208496 -0.959472,-4.2993162 0,-3.0322266 1.054687,-4.3652344 0.871582,-1.0986328 2.431641,-1.0986328 z m 0,1.7065429 q -0.373535,0 -0.666504,0.2416992 -0.292969,0.234375 -0.454102,0.8496094 -0.212402,0.7983399 -0.212402,2.6879883 0,1.8896486 0.19043,2.6000976 0.190429,0.703125 0.476074,0.9375 0.292969,0.234375 0.666504,0.234375 0.373535,0 0.666504,-0.234375 0.292969,-0.241699 0.454101,-0.856934 0.212403,-0.791015 0.212403,-2.6806636 0,-1.8896484 -0.19043,-2.5927734 -0.19043,-0.7104493 -0.483398,-0.9448243 -0.285645,-0.2416992 -0.65918,-0.2416992 z"
       style="font-style:normal;font-variant:normal;font-weight:700;font-size:15px;font-family:Arial;fill:#000000"
       id="path1083" />
    <path
       d="m -23.24707,5.8007812 h 1.896972 V 6.862793 Q -20.332031,5.625 -18.925781,5.625 q 0.74707,0 1.296386,0.3076172 0.549317,0.3076172 0.900879,0.9301758 0.512696,-0.6225586 1.105957,-0.9301758 Q -15.029297,5.625 -14.355469,5.625 q 0.856934,0 1.450196,0.3515625 0.593261,0.3442383 0.88623,1.0180664 0.212402,0.4980469 0.212402,1.6113281 v 4.973145 h -2.058105 V 9.1333008 q 0,-1.1572266 -0.212402,-1.4941406 -0.285645,-0.4394532 -0.878907,-0.4394532 -0.432129,0 -0.812988,0.2636719 -0.380859,0.2636719 -0.549316,0.7763672 -0.168457,0.5053711 -0.168457,1.6040039 v 3.735352 h -2.058106 V 9.3164063 q 0,-1.135254 -0.109863,-1.4648438 -0.109863,-0.3295898 -0.344238,-0.4907227 -0.227051,-0.1611328 -0.622559,-0.1611328 -0.476074,0 -0.856934,0.2563477 -0.380859,0.2563476 -0.549316,0.7397461 -0.161133,0.4833984 -0.161133,1.6040039 v 3.7792973 h -2.058105 z"
       style="font-style:normal;font-variant:normal;font-weight:700;font-size:15px;font-family:Arial;fill:#000000"
       id="path1085" />
    <path
       d="M -0.05859375,13.579102 H -2.4169922 l -0.9375,-2.438965 h -4.2919922 l -0.8862304,2.438965 H -10.83252 L -6.6503906,2.8417969 h 2.2924804 z M -4.050293,9.3310547 -5.5297852,5.3466797 -6.9799805,9.3310547 Z"
       style="font-style:normal;font-variant:normal;font-weight:700;font-size:15px;font-family:Arial;fill:#000000"
       id="path1087" />
  </g>
  <path
     style="fill:none;stroke:#000000;stroke-width:0.88251966px;stroke-linecap:round;stroke-linejoin:round;stroke-miterlimit:4;stroke-dasharray:none;stroke-opacity:1;"
     d="  M 781.91244,307.11685   L 789.85512,307.11685  "
     id="path99" />
  <g
     aria-label="50mA"
     transform="matrix(1.000000,-0.000000,0.000000,1.000000,837.511181,241.810394)"
     id="text105"
     style="font-style:normal;font-variant:normal;font-weight:700;font-size:15px;line-height:125%;font-family:Arial;text-align:start;letter-spacing:0px;word-spacing:0px;text-anchor:start;fill:#000000;fill-opacity:1;stroke:none">
    <path
       d="m -40.187988,10.817871 2.050781,-0.212402 q 0.08789,0.695801 0.52002,1.105957 0.432128,0.402832 0.996093,0.402832 0.644532,0 1.091309,-0.52002 0.446777,-0.527343 0.446777,-1.582031 0,-0.9887695 -0.446777,-1.4794922 -0.439453,-0.4980468 -1.149902,-0.4980468 -0.886231,0 -1.589356,0.7836914 l -1.669922,-0.2416992 1.054688,-5.5883789 h 5.441894 v 1.9262695 h -3.881836 l -0.322265,1.8237304 q 0.688476,-0.3442382 1.40625,-0.3442382 1.369629,0 2.321777,0.9960937 0.952148,0.9960938 0.952148,2.5854492 0,1.3256841 -0.769043,2.3657231 -1.047363,1.420898 -2.907714,1.420898 -1.486817,0 -2.424317,-0.79834 -0.9375,-0.79834 -1.120605,-2.145996 z"
       style="font-style:normal;font-variant:normal;font-weight:700;font-size:15px;font-family:Arial;fill:#000000"
       id="path1090" />
    <path
       d="m -28.395996,2.7978516 q 1.560059,0 2.438965,1.1132812 1.047363,1.3183594 1.047363,4.3725586 0,3.0468746 -1.054687,4.3798826 -0.871582,1.098633 -2.431641,1.098633 -1.567383,0 -2.526856,-1.201172 -0.959472,-1.208496 -0.959472,-4.2993162 0,-3.0322266 1.054687,-4.3652344 0.871582,-1.0986328 2.431641,-1.0986328 z m 0,1.7065429 q -0.373535,0 -0.666504,0.2416992 -0.292969,0.234375 -0.454102,0.8496094 -0.212402,0.7983399 -0.212402,2.6879883 0,1.8896486 0.19043,2.6000976 0.190429,0.703125 0.476074,0.9375 0.292969,0.234375 0.666504,0.234375 0.373535,0 0.666504,-0.234375 0.292969,-0.241699 0.454101,-0.856934 0.212403,-0.791015 0.212403,-2.6806636 0,-1.8896484 -0.19043,-2.5927734 -0.19043,-0.7104493 -0.483398,-0.9448243 -0.285645,-0.2416992 -0.65918,-0.2416992 z"
       style="font-style:normal;font-variant:normal;font-weight:700;font-size:15px;font-family:Arial;fill:#000000"
       id="path1092" />
    <path
       d="m -23.24707,5.8007812 h 1.896972 V 6.862793 Q -20.332031,5.625 -18.925781,5.625 q 0.74707,0 1.296386,0.3076172 0.549317,0.3076172 0.900879,0.9301758 0.512696,-0.6225586 1.105957,-0.9301758 Q -15.029297,5.625 -14.355469,5.625 q 0.856934,0 1.450196,0.3515625 0.593261,0.3442383 0.88623,1.0180664 0.212402,0.4980469 0.212402,1.6113281 v 4.973145 h -2.058105 V 9.1333008 q 0,-1.1572266 -0.212402,-1.4941406 -0.285645,-0.4394532 -0.878907,-0.4394532 -0.432129,0 -0.812988,0.2636719 -0.380859,0.2636719 -0.549316,0.7763672 -0.168457,0.5053711 -0.168457,1.6040039 v 3.735352 h -2.058106 V 9.3164063 q 0,-1.135254 -0.109863,-1.4648438 -0.109863,-0.3295898 -0.344238,-0.4907227 -0.227051,-0.1611328 -0.622559,-0.1611328 -0.476074,0 -0.856934,0.2563477 -0.380859,0.2563476 -0.549316,0.7397461 -0.161133,0.4833984 -0.161133,1.6040039 v 3.7792973 h -2.058105 z"
       style="font-style:normal;font-variant:normal;font-weight:700;font-size:15px;font-family:Arial;fill:#000000"
       id="path1094" />
    <path
       d="M -0.05859375,13.579102 H -2.4169922 l -0.9375,-2.438965 h -4.2919922 l -0.8862304,2.438965 H -10.83252 L -6.6503906,2.8417969 h 2.2924804 z M -4.050293,9.3310547 -5.5297852,5.3466797 -6.9799805,9.3310547 Z"
       style="font-style:normal;font-variant:normal;font-weight:700;font-size:15px;font-family:Arial;fill:#000000"
       id="path1096" />
  </g>
  <path
     style="fill:none;stroke:#000000;stroke-width:0.88251966px;stroke-linecap:round;stroke-linejoin:round;stroke-miterlimit:4;stroke-dasharray:none;stroke-opacity:1;"
     d="  M 781.91244,249.75307   L 789.85512,249.75307  "
     id="path107" />
  <g
     aria-label="150mA"
     transform="matrix(1.000000,-0.000000,0.000000,1.000000,837.511181,183.564094)"
     id="text113"
     style="font-style:normal;font-variant:normal;font-weight:700;font-size:15px;line-height:125%;font-family:Arial;text-align:start;letter-spacing:0px;word-spacing:0px;text-anchor:start;fill:#000000;fill-opacity:1;stroke:none">
    <path
       d="m -43.293457,13.579102 h -2.058105 V 5.8227539 q -1.12793,1.0546875 -2.658692,1.5600586 V 5.5151367 q 0.805664,-0.2636719 1.750488,-0.9960937 0.944825,-0.7397461 1.296387,-1.7211914 h 1.669922 z"
       style="font-style:normal;font-variant:normal;font-weight:700;font-size:15px;font-family:Arial;fill:#000000"
       id="path1099" />
    <path
       d="m -40.187988,10.817871 2.050781,-0.212402 q 0.08789,0.695801 0.52002,1.105957 0.432128,0.402832 0.996093,0.402832 0.644532,0 1.091309,-0.52002 0.446777,-0.527343 0.446777,-1.582031 0,-0.9887695 -0.446777,-1.4794922 -0.439453,-0.4980468 -1.149902,-0.4980468 -0.886231,0 -1.589356,0.7836914 l -1.669922,-0.2416992 1.054688,-5.5883789 h 5.441894 v 1.9262695 h -3.881836 l -0.322265,1.8237304 q 0.688476,-0.3442382 1.40625,-0.3442382 1.369629,0 2.321777,0.9960937 0.952148,0.9960938 0.952148,2.5854492 0,1.3256841 -0.769043,2.3657231 -1.047363,1.420898 -2.907714,1.420898 -1.486817,0 -2.424317,-0.79834 -0.9375,-0.79834 -1.120605,-2.145996 z"
       style="font-style:normal;font-variant:normal;font-weight:700;font-size:15px;font-family:Arial;fill:#000000"
       id="path1101" />
    <path
       d="m -28.395996,2.7978516 q 1.560059,0 2.438965,1.1132812 1.047363,1.3183594 1.047363,4.3725586 0,3.0468746 -1.054687,4.3798826 -0.871582,1.098633 -2.431641,1.098633 -1.567383,0 -2.526856,-1.201172 -0.959472,-1.208496 -0.959472,-4.2993162 0,-3.0322266 1.054687,-4.3652344 0.871582,-1.0986328 2.431641,-1.0986328 z m 0,1.7065429 q -0.373535,0 -0.666504,0.2416992 -0.292969,0.234375 -0.454102,0.8496094 -0.212402,0.7983399 -0.212402,2.6879883 0,1.8896486 0.19043,2.6000976 0.190429,0.703125 0.476074,0.9375 0.292969,0.234375 0.666504,0.234375 0.373535,0 0.666504,-0.234375 0.292969,-0.241699 0.454101,-0.856934 0.212403,-0.791015 0.212403,-2.6806636 0,-1.8896484 -0.19043,-2.5927734 -0.19043,-0.7104493 -0.483398,-0.9448243 -0.285645,-0.2416992 -0.65918,-0.2416992 z"
       style="font-style:normal;font-variant:normal;font-weight:700;font-size:15px;font-family:Arial;fill:#000000"
       id="path1103" />
    <path
       d="m -23.24707,5.8007812 h 1.896972 V 6.862793 Q -20.332031,5.625 -18.925781,5.625 q 0.74707,0 1.296386,0.3076172 0.549317,0.3076172 0.900879,0.9301758 0.512696,-0.6225586 1.105957,-0.9301758 Q -15.029297,5.625 -14.355469,5.625 q 0.856934,0 1.450196,0.3515625 0.593261,0.3442383 0.88623,1.0180664 0.212402,0.4980469 0.212402,1.6113281 v 4.973145 h -2.058105 V 9.1333008 q 0,-1.1572266 -0.212402,-1.4941406 -0.285645,-0.4394532 -0.878907,-0.4394532 -0.432129,0 -0.812988,0.2636719 -0.380859,0.2636719 -0.549316,0.7763672 -0.168457,0.5053711 -0.168457,1.6040039 v 3.735352 h -2.058106 V 9.3164063 q 0,-1.135254 -0.109863,-1.4648438 -0.109863,-0.3295898 -0.344238,-0.4907227 -0.227051,-0.1611328 -0.622559,-0.1611328 -0.476074,0 -0.856934,0.2563477 -0.380859,0.2563476 -0.549316,0.7397461 -0.161133,0.4833984 -0.161133,1.6040039 v 3.7792973 h -2.058105 z"
       style="font-style:normal;font-variant:normal;font-weight:700;font-size:15px;font-family:Arial;fill:#000000"
       id="path1105" />
    <path
       d="M -0.05859375,13.579102 H -2.4169922 l -0.9375,-2.438965 h -4.2919922 l -0.8862304,2.438965 H -10.83252 L -6.6503906,2.8417969 h 2.2924804 z M -4.050293,9.3310547 -5.5297852,5.3466797 -6.9799805,9.3310547 Z"
       style="font-style:normal;font-variant:normal;font-weight:700;font-size:15px;font-family:Arial;fill:#000000"
       id="path1107" />
  </g>
  <path
     style="fill:none;stroke:#000000;stroke-width:0.88251966px;stroke-linecap:round;stroke-linejoin:round;stroke-miterlimit:4;stroke-dasharray:none;stroke-opacity:1;"
     d="  M 781.91244,191.50677   L 789.85512,191.50677  "
     id="path115" />
  <g
     aria-label="250mA"
     transform="matrix(1.000000,-0.000000,0.000000,1.000000,837.511181,126.200315)"
     id="text121"
     style="font-style:normal;font-variant:normal;font-weight:700;font-size:15px;line-height:125%;font-family:Arial;text-align:start;letter-spacing:0px;word-spacing:0px;text-anchor:start;fill:#000000;fill-opacity:1;stroke:none">
    <path
       d="m -41.608887,11.66748 v 1.911622 h -7.214355 q 0.117187,-1.083985 0.703125,-2.050782 0.585937,-0.974121 2.314453,-2.5781247 1.391602,-1.2963867 1.706543,-1.7578125 0.424805,-0.637207 0.424805,-1.2597656 0,-0.6884766 -0.373536,-1.0546875 -0.36621,-0.3735352 -1.018066,-0.3735352 -0.644531,0 -1.025391,0.3881836 -0.380859,0.3881836 -0.439453,1.2890625 l -2.050781,-0.2050781 q 0.183106,-1.6992188 1.149902,-2.4389648 0.966797,-0.7397461 2.416993,-0.7397461 1.589355,0 2.497558,0.8569336 0.908203,0.8569335 0.908203,2.1313476 0,0.7250977 -0.263672,1.3842774 -0.256347,0.6518554 -0.820312,1.3696289 -0.373535,0.4760742 -1.347656,1.3696289 -0.974121,0.893555 -1.237793,1.186523 -0.256348,0.292969 -0.417481,0.571289 z"
       style="font-style:normal;font-variant:normal;font-weight:700;font-size:15px;font-family:Arial;fill:#000000"
       id="path1110" />
    <path
       d="m -40.187988,10.817871 2.050781,-0.212402 q 0.08789,0.695801 0.52002,1.105957 0.432128,0.402832 0.996093,0.402832 0.644532,0 1.091309,-0.52002 0.446777,-0.527343 0.446777,-1.582031 0,-0.9887695 -0.446777,-1.4794922 -0.439453,-0.4980468 -1.149902,-0.4980468 -0.886231,0 -1.589356,0.7836914 l -1.669922,-0.2416992 1.054688,-5.5883789 h 5.441894 v 1.9262695 h -3.881836 l -0.322265,1.8237304 q 0.688476,-0.3442382 1.40625,-0.3442382 1.369629,0 2.321777,0.9960937 0.952148,0.9960938 0.952148,2.5854492 0,1.3256841 -0.769043,2.3657231 -1.047363,1.420898 -2.907714,1.420898 -1.486817,0 -2.424317,-0.79834 -0.9375,-0.79834 -1.120605,-2.145996 z"
       style="font-style:normal;font-variant:normal;font-weight:700;font-size:15px;font-family:Arial;fill:#000000"
       id="path1112" />
    <path
       d="m -28.395996,2.7978516 q 1.560059,0 2.438965,1.1132812 1.047363,1.3183594 1.047363,4.3725586 0,3.0468746 -1.054687,4.3798826 -0.871582,1.098633 -2.431641,1.098633 -1.567383,0 -2.526856,-1.201172 -0.959472,-1.208496 -0.959472,-4.2993162 0,-3.0322266 1.054687,-4.3652344 0.871582,-1.0986328 2.431641,-1.0986328 z m 0,1.7065429 q -0.373535,0 -0.666504,0.2416992 -0.292969,0.234375 -0.454102,0.8496094 -0.212402,0.7983399 -0.212402,2.6879883 0,1.8896486 0.19043,2.6000976 0.190429,0.703125 0.476074,0.9375 0.292969,0.234375 0.666504,0.234375 0.373535,0 0.666504,-0.234375 0.292969,-0.241699 0.454101,-0.856934 0.212403,-0.791015 0.212403,-2.6806636 0,-1.8896484 -0.19043,-2.5927734 -0.19043,-0.7104493 -0.483398,-0.9448243 -0.285645,-0.2416992 -0.65918,-0.2416992 z"
       style="font-style:normal;font-variant:normal;font-weight:700;font-size:15px;font-family:Arial;fill:#000000"
       id="path1114" />
    <path
       d="m -23.24707,5.8007812 h 1.896972 V 6.862793 Q -20.332031,5.625 -18.925781,5.625 q 0.74707,0 1.296386,0.3076172 0.549317,0.3076172 0.900879,0.9301758 0.512696,-0.6225586 1.105957,-0.9301758 Q -15.029297,5.625 -14.355469,5.625 q 0.856934,0 1.450196,0.3515625 0.593261,0.3442383 0.88623,1.0180664 0.212402,0.4980469 0.212402,1.6113281 v 4.973145 h -2.058105 V 9.1333008 q 0,-1.1572266 -0.212402,-1.4941406 -0.285645,-0.4394532 -0.878907,-0.4394532 -0.432129,0 -0.812988,0.2636719 -0.380859,0.2636719 -0.549316,0.7763672 -0.168457,0.5053711 -0.168457,1.6040039 v 3.735352 h -2.058106 V 9.3164063 q 0,-1.135254 -0.109863,-1.4648438 -0.109863,-0.3295898 -0.344238,-0.4907227 -0.227051,-0.1611328 -0.622559,-0.1611328 -0.476074,0 -0.856934,0.2563477 -0.380859,0.2563476 -0.549316,0.7397461 -0.161133,0.4833984 -0.161133,1.6040039 v 3.7792973 h -2.058105 z"
       style="font-style:normal;font-variant:normal;font-weight:700;font-size:15px;font-family:Arial;fill:#000000"
       id="path1116" />
    <path
       d="M -0.05859375,13.579102 H -2.4169922 l -0.9375,-2.438965 h -4.2919922 l -0.8862304,2.438965 H -10.83252 L -6.6503906,2.8417969 h 2.2924804 z M -4.050293,9.3310547 -5.5297852,5.3466797 -6.9799805,9.3310547 Z"
       style="font-style:normal;font-variant:normal;font-weight:700;font-size:15px;font-family:Arial;fill:#000000"
       id="path1118" />
  </g>
  <path
     style="fill:none;stroke:#000000;stroke-width:0.88251966px;stroke-linecap:round;stroke-linejoin:round;stroke-miterlimit:4;stroke-dasharray:none;stroke-opacity:1;"
     d="  M 781.91244,134.14299   L 789.85512,134.14299  "
     id="path123" />
  <g
     aria-label="350mA"
     transform="matrix(1.000000,-0.000000,0.000000,1.000000,837.511181,67.954016)"
     id="text129"
     style="font-style:normal;font-variant:normal;font-weight:700;font-size:15px;line-height:125%;font-family:Arial;text-align:start;letter-spacing:0px;word-spacing:0px;text-anchor:start;fill:#000000;fill-opacity:1;stroke:none">
    <path
       d="m -48.632812,10.72998 1.992187,-0.241699 q 0.09522,0.761719 0.512695,1.164551 0.417481,0.402832 1.010743,0.402832 0.637207,0 1.069335,-0.483398 0.439454,-0.483399 0.439454,-1.303711 0,-0.7763675 -0.417481,-1.2304691 -0.41748,-0.4541015 -1.018066,-0.4541015 -0.395508,0 -0.944825,0.1538086 l 0.227051,-1.6772461 q 0.834961,0.021973 1.274414,-0.3588867 0.439453,-0.3881836 0.439453,-1.0253907 0,-0.5419922 -0.322265,-0.8642578 -0.322266,-0.3222656 -0.856934,-0.3222656 -0.527344,0 -0.900879,0.3662109 -0.373535,0.366211 -0.454101,1.069336 l -1.896973,-0.3222657 q 0.197754,-0.9741211 0.593262,-1.5527343 0.402832,-0.5859375 1.113281,-0.9155274 0.717774,-0.336914 1.604004,-0.336914 1.516113,0 2.431641,0.9667968 0.754394,0.7910157 0.754394,1.7871094 0,1.4135742 -1.54541,2.2558594 0.922852,0.1977539 1.472168,0.8862305 0.556641,0.6884765 0.556641,1.6625973 0,1.413575 -1.032715,2.409668 -1.032715,0.996094 -2.570801,0.996094 -1.45752,0 -2.416992,-0.834961 -0.959473,-0.842285 -1.113281,-2.197266 z"
       style="font-style:normal;font-variant:normal;font-weight:700;font-size:15px;font-family:Arial;fill:#000000"
       id="path1121" />
    <path
       d="m -40.187988,10.817871 2.050781,-0.212402 q 0.08789,0.695801 0.52002,1.105957 0.432128,0.402832 0.996093,0.402832 0.644532,0 1.091309,-0.52002 0.446777,-0.527343 0.446777,-1.582031 0,-0.9887695 -0.446777,-1.4794922 -0.439453,-0.4980468 -1.149902,-0.4980468 -0.886231,0 -1.589356,0.7836914 l -1.669922,-0.2416992 1.054688,-5.5883789 h 5.441894 v 1.9262695 h -3.881836 l -0.322265,1.8237304 q 0.688476,-0.3442382 1.40625,-0.3442382 1.369629,0 2.321777,0.9960937 0.952148,0.9960938 0.952148,2.5854492 0,1.3256841 -0.769043,2.3657231 -1.047363,1.420898 -2.907714,1.420898 -1.486817,0 -2.424317,-0.79834 -0.9375,-0.79834 -1.120605,-2.145996 z"
       style="font-style:normal;font-variant:normal;font-weight:700;font-size:15px;font-family:Arial;fill:#000000"
       id="path1123" />
    <path
       d="m -28.395996,2.7978516 q 1.560059,0 2.438965,1.1132812 1.047363,1.3183594 1.047363,4.3725586 0,3.0468746 -1.054687,4.3798826 -0.871582,1.098633 -2.431641,1.098633 -1.567383,0 -2.526856,-1.201172 -0.959472,-1.208496 -0.959472,-4.2993162 0,-3.0322266 1.054687,-4.3652344 0.871582,-1.0986328 2.431641,-1.0986328 z m 0,1.7065429 q -0.373535,0 -0.666504,0.2416992 -0.292969,0.234375 -0.454102,0.8496094 -0.212402,0.7983399 -0.212402,2.6879883 0,1.8896486 0.19043,2.6000976 0.190429,0.703125 0.476074,0.9375 0.292969,0.234375 0.666504,0.234375 0.373535,0 0.666504,-0.234375 0.292969,-0.241699 0.454101,-0.856934 0.212403,-0.791015 0.212403,-2.6806636 0,-1.8896484 -0.19043,-2.5927734 -0.19043,-0.7104493 -0.483398,-0.9448243 -0.285645,-0.2416992 -0.65918,-0.2416992 z"
       style="font-style:normal;font-variant:normal;font-weight:700;font-size:15px;font-family:Arial;fill:#000000"
       id="path1125" />
    <path
       d="m -23.24707,5.8007812 h 1.896972 V 6.862793 Q -20.332031,5.625 -18.925781,5.625 q 0.74707,0 1.296386,0.3076172 0.549317,0.3076172 0.900879,0.9301758 0.512696,-0.6225586 1.105957,-0.9301758 Q -15.029297,5.625 -14.355469,5.625 q 0.856934,0 1.450196,0.3515625 0.593261,0.3442383 0.88623,1.0180664 0.212402,0.4980469 0.212402,1.6113281 v 4.973145 h -2.058105 V 9.1333008 q 0,-1.1572266 -0.212402,-1.4941406 -0.285645,-0.4394532 -0.878907,-0.4394532 -0.432129,0 -0.812988,0.2636719 -0.380859,0.2636719 -0.549316,0.7763672 -0.168457,0.5053711 -0.168457,1.6040039 v 3.735352 h -2.058106 V 9.3164063 q 0,-1.135254 -0.109863,-1.4648438 -0.109863,-0.3295898 -0.344238,-0.4907227 -0.227051,-0.1611328 -0.622559,-0.1611328 -0.476074,0 -0.856934,0.2563477 -0.380859,0.2563476 -0.549316,0.7397461 -0.161133,0.4833984 -0.161133,1.6040039 v 3.7792973 h -2.058105 z"
       style="font-style:normal;font-variant:normal;font-weight:700;font-size:15px;font-family:Arial;fill:#000000"
       id="path1127" />
    <path
       d="M -0.05859375,13.579102 H -2.4169922 l -0.9375,-2.438965 h -4.2919922 l -0.8862304,2.438965 H -10.83252 L -6.6503906,2.8417969 h 2.2924804 z M -4.050293,9.3310547 -5.5297852,5.3466797 -6.9799805,9.3310547 Z"
       style="font-style:normal;font-variant:normal;font-weight:700;font-size:15px;font-family:Arial;fill:#000000"
       id="path1129" />
  </g>
  <path
     style="fill:none;stroke:#000000;stroke-width:0.88251966px;stroke-linecap:round;stroke-linejoin:round;stroke-miterlimit:4;stroke-dasharray:none;stroke-opacity:1;"
     d="  M 781.91244,75.896693   L 789.85512,75.896693  "
     id="path131" />
  <g
     aria-label="450mA"
     transform="matrix(1.000000,-0.000000,0.000000,1.000000,837.511181,10.590236)"
     id="text137"
     style="font-style:normal;font-variant:normal;font-weight:700;font-size:15px;line-height:125%;font-family:Arial;text-align:start;letter-spacing:0px;word-spacing:0px;text-anchor:start;fill:#000000;fill-opacity:1;stroke:none">
    <path
       d="m -44.523926,13.579102 v -2.160645 h -4.394531 V 9.6166992 l 4.658203,-6.8188476 h 1.728516 V 9.609375 h 1.333008 v 1.809082 h -1.333008 v 2.160645 z m 0,-3.969727 V 5.9399414 l -2.468261,3.6694336 z"
       style="font-style:normal;font-variant:normal;font-weight:700;font-size:15px;font-family:Arial;fill:#000000"
       id="path1132" />
    <path
       d="m -40.187988,10.817871 2.050781,-0.212402 q 0.08789,0.695801 0.52002,1.105957 0.432128,0.402832 0.996093,0.402832 0.644532,0 1.091309,-0.52002 0.446777,-0.527343 0.446777,-1.582031 0,-0.9887695 -0.446777,-1.4794922 -0.439453,-0.4980468 -1.149902,-0.4980468 -0.886231,0 -1.589356,0.7836914 l -1.669922,-0.2416992 1.054688,-5.5883789 h 5.441894 v 1.9262695 h -3.881836 l -0.322265,1.8237304 q 0.688476,-0.3442382 1.40625,-0.3442382 1.369629,0 2.321777,0.9960937 0.952148,0.9960938 0.952148,2.5854492 0,1.3256841 -0.769043,2.3657231 -1.047363,1.420898 -2.907714,1.420898 -1.486817,0 -2.424317,-0.79834 -0.9375,-0.79834 -1.120605,-2.145996 z"
       style="font-style:normal;font-variant:normal;font-weight:700;font-size:15px;font-family:Arial;fill:#000000"
       id="path1134" />
    <path
       d="m -28.395996,2.7978516 q 1.560059,0 2.438965,1.1132812 1.047363,1.3183594 1.047363,4.3725586 0,3.0468746 -1.054687,4.3798826 -0.871582,1.098633 -2.431641,1.098633 -1.567383,0 -2.526856,-1.201172 -0.959472,-1.208496 -0.959472,-4.2993162 0,-3.0322266 1.054687,-4.3652344 0.871582,-1.0986328 2.431641,-1.0986328 z m 0,1.7065429 q -0.373535,0 -0.666504,0.2416992 -0.292969,0.234375 -0.454102,0.8496094 -0.212402,0.7983399 -0.212402,2.6879883 0,1.8896486 0.19043,2.6000976 0.190429,0.703125 0.476074,0.9375 0.292969,0.234375 0.666504,0.234375 0.373535,0 0.666504,-0.234375 0.292969,-0.241699 0.454101,-0.856934 0.212403,-0.791015 0.212403,-2.6806636 0,-1.8896484 -0.19043,-2.5927734 -0.19043,-0.7104493 -0.483398,-0.9448243 -0.285645,-0.2416992 -0.65918,-0.2416992 z"
       style="font-style:normal;font-variant:normal;font-weight:700;font-size:15px;font-family:Arial;fill:#000000"
       id="path1136" />
    <path
       d="m -23.24707,5.8007812 h 1.896972 V 6.862793 Q -20.332031,5.625 -18.925781,5.625 q 0.74707,0 1.296386,0.3076172 0.549317,0.3076172 0.900879,0.9301758 0.512696,-0.6225586 1.105957,-0.9301758 Q -15.029297,5.625 -14.355469,5.625 q 0.856934,0 1.450196,0.3515625 0.593261,0.3442383 0.88623,1.0180664 0.212402,0.4980469 0.212402,1.6113281 v 4.973145 h -2.058105 V 9.1333008 q 0,-1.1572266 -0.212402,-1.4941406 -0.285645,-0.4394532 -0.878907,-0.4394532 -0.432129,0 -0.812988,0.2636719 -0.380859,0.2636719 -0.549316,0.7763672 -0.168457,0.5053711 -0.168457,1.6040039 v 3.735352 h -2.058106 V 9.3164063 q 0,-1.135254 -0.109863,-1.4648438 -0.109863,-0.3295898 -0.344238,-0.4907227 -0.227051,-0.1611328 -0.622559,-0.1611328 -0.476074,0 -0.856934,0.2563477 -0.380859,0.2563476 -0.549316,0.7397461 -0.161133,0.4833984 -0.161133,1.6040039 v 3.7792973 h -2.058105 z"
       style="font-style:normal;font-variant:normal;font-weight:700;font-size:15px;font-family:Arial;fill:#000000"
       id="path1138" />
    <path
       d="M -0.05859375,13.579102 H -2.4169922 l -0.9375,-2.438965 h -4.2919922 l -0.8862304,2.438965 H -10.83252 L -6.6503906,2.8417969 h 2.2924804 z M -4.050293,9.3310547 -5.5297852,5.3466797 -6.9799805,9.3310547 Z"
       style="font-style:normal;font-variant:normal;font-weight:700;font-size:15px;font-family:Arial;fill:#000000"
       id="path1140" />
  </g>
  <path
     style="fill:none;stroke:#000000;stroke-width:0.88251966px;stroke-linecap:round;stroke-linejoin:round;stroke-miterlimit:4;stroke-dasharray:none;stroke-opacity:1;"
     d="  M 781.91244,18.532913   L 789.85512,18.532913  "
     id="path139" />
  <path
     style="fill:none;stroke:#000000;stroke-width:0.88251966px;stroke-linecap:round;stroke-linejoin:round;stroke-miterlimit:4;stroke-dasharray:none;stroke-opacity:1;"
     d="  M 33.535748,18.532913   L 781.91244,18.532913   L 781.91244,307.11685   L 33.535748,307.11685   L 33.535748,18.532913  "
     id="path141" />
  <g
     aria-label="V(n003)"
     transform="matrix(1.000000,-0.000000,0.000000,1.000000,220.629921,0.000000)"
     id="text147"
     style="font-style:normal;font-variant:normal;font-weight:700;font-size:15px;line-height:125%;font-family:Arial;text-align:start;letter-spacing:0px;word-spacing:0px;text-anchor:start;fill:#0000ff;fill-opacity:1;stroke:none">
    <path
       d="m -23.261719,13.579102 -3.83789,-10.7373051 h 2.351074 l 2.717285,7.9467771 2.629395,-7.9467771 h 2.299804 l -3.845215,10.7373051 z"
       style="font-style:normal;font-variant:normal;font-weight:700;font-size:15px;font-family:Arial;fill:#0000ff"
       id="path1154" />
    <path
       d="m -12.597656,16.73584 h -1.413574 q -1.120606,-1.691895 -1.706543,-3.515625 -0.585938,-1.823731 -0.585938,-3.5302736 0,-2.1166992 0.725098,-4.0063477 0.629883,-1.640625 1.596679,-3.0249023 h 1.40625 q -1.003418,2.2192383 -1.384277,3.7792969 -0.373535,1.5527344 -0.373535,3.2958984 0,1.2011723 0.219726,2.4609373 0.227051,1.259766 0.615235,2.39502 0.256347,0.74707 0.900879,2.145996 z"
       style="font-style:normal;font-variant:normal;font-weight:700;font-size:15px;font-family:Arial;fill:#0000ff"
       id="path1156" />
    <path
       d="M -3.9404297,13.579102 H -5.9985352 V 9.609375 q 0,-1.2597656 -0.1318359,-1.6259766 Q -6.262207,7.6098633 -6.5625,7.4047852 -6.8554687,7.199707 -7.2729492,7.199707 q -0.534668,0 -0.9594727,0.2929688 -0.4248047,0.2929687 -0.5859375,0.7763672 -0.1538086,0.4833984 -0.1538086,1.787109 v 3.52295 h -2.058105 V 5.8007812 h 1.9116207 V 6.9433594 Q -8.1005859,5.625 -6.5551758,5.625 q 0.6811524,0 1.2451172,0.2490234 0.5639649,0.2416993 0.8496094,0.6225586 0.2929687,0.3808594 0.402832,0.8642578 0.1171875,0.4833985 0.1171875,1.3842774 z"
       style="font-style:normal;font-variant:normal;font-weight:700;font-size:15px;font-family:Arial;fill:#0000ff"
       id="path1158" />
    <path
       d="m 1.1865234,2.7978516 q 1.5600586,0 2.4389649,1.1132812 1.0473633,1.3183594 1.0473633,4.3725586 0,3.0468746 -1.0546875,4.3798826 -0.8715821,1.098633 -2.4316407,1.098633 -1.56738278,0 -2.5268554,-1.201172 -0.9594727,-1.208496 -0.9594727,-4.2993162 0,-3.0322266 1.0546875,-4.3652344 0.87158204,-1.0986328 2.4316406,-1.0986328 z m 0,1.7065429 q -0.37353512,0 -0.66650387,0.2416992 -0.29296875,0.234375 -0.45410156,0.8496094 -0.21240234,0.7983399 -0.21240234,2.6879883 0,1.8896486 0.19042968,2.6000976 0.19042969,0.703125 0.47607422,0.9375 0.29296875,0.234375 0.66650387,0.234375 0.3735352,0 0.6665039,-0.234375 Q 2.1459961,11.57959 2.3071289,10.964355 2.5195313,10.17334 2.5195313,8.2836914 2.5195313,6.394043 2.3291016,5.690918 2.1386719,4.9804687 1.8457031,4.7460937 1.5600586,4.5043945 1.1865234,4.5043945 Z"
       style="font-style:normal;font-variant:normal;font-weight:700;font-size:15px;font-family:Arial;fill:#0000ff"
       id="path1160" />
    <path
       d="m 9.5288086,2.7978516 q 1.5600584,0 2.4389644,1.1132812 1.047364,1.3183594 1.047364,4.3725586 0,3.0468746 -1.054688,4.3798826 -0.871582,1.098633 -2.4316404,1.098633 -1.5673828,0 -2.5268555,-1.201172 -0.9594726,-1.208496 -0.9594726,-4.2993162 0,-3.0322266 1.0546875,-4.3652344 Q 7.96875,2.7978516 9.5288086,2.7978516 Z m 0,1.7065429 q -0.3735352,0 -0.6665039,0.2416992 -0.2929688,0.234375 -0.4541016,0.8496094 -0.2124023,0.7983399 -0.2124023,2.6879883 0,1.8896486 0.1904297,2.6000976 0.1904297,0.703125 0.4760742,0.9375 0.2929687,0.234375 0.6665039,0.234375 0.3735352,0 0.6665044,-0.234375 0.292968,-0.241699 0.454101,-0.856934 0.212402,-0.791015 0.212402,-2.6806636 0,-1.8896484 -0.190429,-2.5927734 Q 10.480957,4.9804687 10.187988,4.7460937 9.9023438,4.5043945 9.5288086,4.5043945 Z"
       style="font-style:normal;font-variant:normal;font-weight:700;font-size:15px;font-family:Arial;fill:#0000ff"
       id="path1162" />
    <path
       d="m 14.318848,10.72998 1.992187,-0.241699 q 0.09521,0.761719 0.512695,1.164551 0.417481,0.402832 1.010743,0.402832 0.637207,0 1.069336,-0.483398 0.439453,-0.483399 0.439453,-1.303711 0,-0.7763675 -0.417481,-1.2304691 -0.41748,-0.4541015 -1.018066,-0.4541015 -0.395508,0 -0.944824,0.1538086 l 0.22705,-1.6772461 q 0.834961,0.021973 1.274414,-0.3588867 0.439454,-0.3881836 0.439454,-1.0253907 0,-0.5419922 -0.322266,-0.8642578 -0.322266,-0.3222656 -0.856934,-0.3222656 -0.527343,0 -0.900879,0.3662109 -0.373535,0.366211 -0.454101,1.069336 L 14.472656,5.6030273 Q 14.67041,4.6289062 15.065918,4.050293 15.46875,3.4643555 16.179199,3.1347656 q 0.717774,-0.336914 1.604004,-0.336914 1.516113,0 2.431641,0.9667968 0.754394,0.7910157 0.754394,1.7871094 0,1.4135742 -1.54541,2.2558594 0.922852,0.1977539 1.472168,0.8862305 0.556641,0.6884765 0.556641,1.6625973 0,1.413575 -1.032715,2.409668 -1.032715,0.996094 -2.570801,0.996094 -1.457519,0 -2.416992,-0.834961 -0.959473,-0.842285 -1.113281,-2.197266 z"
       style="font-style:normal;font-variant:normal;font-weight:700;font-size:15px;font-family:Arial;fill:#0000ff"
       id="path1164" />
    <path
       d="m 22.602539,16.73584 q 0.60791,-1.303711 0.856934,-1.999512 0.249023,-0.695801 0.461425,-1.604004 0.212403,-0.908203 0.314942,-1.721191 0.102539,-0.820313 0.102539,-1.6772463 0,-1.743164 -0.373535,-3.2958984 -0.373535,-1.5600586 -1.376953,-3.7792969 h 1.398925 q 1.105957,1.574707 1.713868,3.3398438 0.615234,1.7651367 0.615234,3.5815429 0,1.5307619 -0.483398,3.2812499 -0.549317,1.962891 -1.809083,3.874512 z"
       style="font-style:normal;font-variant:normal;font-weight:700;font-size:15px;font-family:Arial;fill:#0000ff"
       id="path1166" />
  </g>
  <path
     style="fill:none;stroke:#0000ff;stroke-width:0.88300002;stroke-linecap:round;stroke-linejoin:round;stroke-miterlimit:4;stroke-dasharray:3.53200006, 7.06400013000000015;stroke-opacity:1;stroke-dashoffset:0"
     d="  M 33.535748,292.99654   L 37.065827,292.99654   L 43.243465,292.99654   L 48.538583,292.99654   L 54.71622,292.99654   L 60.011339,292.99654   L 65.306457,292.99654   L 71.484094,292.99654   L 76.779213,292.99654   L 99.724724,292.11402   L 114.72756,292.11402   L 121.78772,291.2315   L 125.3178,291.2315   L 127.96535,290.34898   L 129.73039,290.34898   L 131.49543,288.58394   L 131.49543,286.8189   L 132.37795,285.05386   L 133.26047,277.11118   L 135.90803,251.51811   L 137.67307,211.80472   L 140.32063,159.73606   L 142.08567,105.01984   L 144.73323,63.541417   L 145.61575,60.011339   L 146.49827,65.306457   L 147.38079,76.779213   L 148.26331,105.01984   L 150.02835,140.32063   L 151.79339,191.50677   L 154.44094,231.22016   L 156.20598,255.93071   L 158.85354,268.28598   L 159.73606,270.93354   L 161.5011,269.1685   L 163.26614,262.10835   L 165.03118,241.81039   L 166.79622,211.80472   L 169.44378,167.67874   L 172.09134,128.84787   L 173.85638,103.2548   L 174.7389,97.959685   L 176.50394,104.13732   L 177.38646,115.61008   L 179.1515,140.32063   L 180.03402,168.56126   L 182.68157,204.74457   L 185.32913,233.86772   L 187.09417,247.98803   L 188.85921,253.28315   L 191.50677,250.63559   L 192.38929,242.69291   L 195.03685,224.16   L 196.80189,199.44945   L 199.44945,165.9137   L 202.09701,136.79055   L 202.97953,126.20031   L 203.86205,124.43528   L 205.62709,129.73039   L 207.39213,139.43811   L 208.27465,156.20598   L 210.03969,180.03402   L 212.68724,208.27465   L 215.3348,228.5726   L 217.09984,236.51528   L 217.98236,240.04535   L 219.7474,240.04535   L 220.62992,237.3978   L 222.39496,231.22016   L 224.16,216.21732   L 225.92504,197.68441   L 228.5726,173.85638   L 231.22016,150.91087   L 232.9852,143.85071   L 234.75024,146.49827   L 236.51528,154.44094   L 238.28031,166.79622   L 240.04535,184.44661   L 242.69291,204.74457   L 244.45795,219.7474   L 246.22299,225.92504   L 247.10551,228.5726   L 249.75307,226.80756   L 250.63559,223.27748   L 251.51811,220.62992   L 252.40063,217.98236   L 252.40063,216.21732   L 252.40063,211.80472   L 252.40063,204.74457   L 252.40063,180.03402   L 252.40063,133.26047   L 252.40063,97.959685   L 252.40063,72.366614   L 252.40063,59.128819   L 252.40063,57.36378   L 254.16567,57.36378   L 255.93071,57.36378   L 257.69575,57.36378   L 259.46079,57.36378   L 261.22583,57.36378   L 262.99087,57.36378   L 264.75591,57.36378   L 266.52094,57.36378   L 268.28598,57.36378   L 278.87622,57.36378   L 298.29165,57.36378   L 301.82173,57.36378   L 306.23433,58.246299   L 310.64693,58.246299   L 314.17701,58.246299   L 318.58961,58.246299   L 322.11969,58.246299   L 326.53228,58.246299   L 330.94488,58.246299   L 334.47496,58.246299   L 338.88756,58.246299   L 343.30016,58.246299   L 346.83024,58.246299   L 351.24283,58.246299   L 354.77291,58.246299   L 359.18551,58.246299   L 363.59811,58.246299   L 367.12819,59.128819   L 371.54079,59.128819   L 375.07087,59.128819   L 379.48346,59.128819   L 379.48346,63.541417   L 379.48346,75.014173   L 379.48346,83.83937   L 379.48346,91.782047   L 379.48346,106.78488   L 379.48346,110.31496   L 379.48346,112.96252   L 379.48346,114.72756   L 379.48346,117.37512   L 379.48346,120.9052   L 379.48346,128.84787   L 379.48346,144.73323   L 379.48346,168.56126   L 379.48346,191.50677   L 379.48346,217.09984   L 379.48346,240.04535   L 379.48346,264.75591   L 379.48346,285.93638   L 379.48346,291.2315   L 380.36598,292.99654   L 383.89606,293.87906   L 387.42614,293.87906   L 391.83874,293.87906   L 395.36882,293.87906   L 399.78142,293.87906   L 403.3115,293.87906   L 406.84157,292.99654   L 411.25417,292.99654   L 414.78425,292.99654   L 419.19685,292.99654   L 422.72693,292.99654   L 426.25701,292.99654   L 430.66961,292.99654   L 434.19969,292.99654   L 438.61228,292.99654   L 442.14236,292.99654   L 445.67244,292.99654   L 450.08504,292.99654   L 453.61512,292.99654   L 458.02772,292.99654   L 503.91874,292.11402   L 522.45165,292.11402   L 533.92441,292.11402   L 540.10205,291.2315   L 543.63213,291.2315   L 546.27969,290.34898   L 548.04472,288.58394   L 548.92724,285.93638   L 549.80976,283.28882   L 550.69228,271.81606   L 553.33984,241.81039   L 555.10488,193.27181   L 557.75244,135.90803   L 560.4,82.074331   L 561.28252,61.776378   L 562.16504,60.011339   L 563.04756,64.423937   L 563.93008,74.131654   L 564.8126,99.724724   L 566.57764,132.37795   L 568.34268,182.68157   L 570.99024,225.92504   L 572.75528,253.28315   L 574.52031,266.52094   L 576.28535,270.93354   L 578.05039,270.05102   L 578.93291,265.63843   L 581.58047,249.75307   L 583.34551,225.04252   L 585.11055,187.97669   L 587.75811,145.61575   L 590.40567,106.78488   L 591.28819,97.959685   L 593.05323,105.01984   L 593.93575,116.4926   L 595.70079,142.08567   L 597.46583,170.3263   L 599.23087,205.62709   L 601.87843,234.75024   L 603.64346,247.98803   L 605.4085,253.28315   L 607.17354,254.16567   L 608.05606,250.63559   L 609.8211,242.69291   L 611.58614,223.27748   L 614.2337,198.56693   L 615.99874,165.9137   L 618.6463,135.90803   L 620.41134,126.20031   L 621.29386,124.43528   L 623.0589,129.73039   L 623.94142,140.32063   L 625.70646,157.0885   L 627.4715,180.91654   L 630.11906,208.27465   L 631.88409,228.5726   L 633.64913,236.51528   L 635.41417,240.04535   L 637.17921,236.51528   L 638.94425,230.33764   L 640.70929,216.21732   L 643.35685,197.68441   L 645.12189,173.85638   L 647.76945,150.91087   L 649.53449,144.73323   L 650.41701,142.96819   L 652.18205,146.49827   L 653.06457,154.44094   L 654.82961,166.79622   L 656.59465,184.44661   L 659.2422,204.74457   L 661.00724,219.7474   L 662.77228,225.92504   L 664.53732,228.5726   L 666.30236,226.80756   L 668.0674,223.27748   L 668.0674,220.62992   L 668.94992,217.98236   L 668.94992,215.3348   L 668.94992,209.15717   L 668.94992,199.44945   L 668.94992,169.44378   L 668.94992,119.14016   L 668.94992,88.251969   L 668.94992,66.188976   L 668.94992,58.246299   L 670.71496,57.36378   L 673.36252,57.36378   L 675.12756,57.36378   L 677.77512,57.36378   L 679.54016,57.36378   L 682.18772,57.36378   L 683.95276,57.36378   L 685.7178,57.36378   L 688.36535,57.36378   L 690.13039,57.36378   L 692.77795,57.36378   L 694.54299,57.36378   L 696.30803,57.36378   L 698.95559,57.36378   L 700.72063,57.36378   L 703.36819,57.36378   L 705.13323,57.36378   L 706.89827,57.36378   L 709.54583,57.36378   L 711.31087,57.36378   L 713.95843,57.36378   L 717.4885,57.36378   L 721.9011,58.246299   L 726.3137,58.246299   L 729.84378,58.246299   L 734.25638,58.246299   L 738.66898,58.246299   L 742.19906,58.246299   L 746.61165,58.246299   L 751.02425,58.246299   L 754.55433,58.246299   L 758.96693,58.246299   L 763.37953,58.246299   L 767.79213,58.246299   L 771.3222,58.246299   L 775.7348,58.246299   L 780.1474,58.246299   L 781.91244,58.246299  "
     id="path149" />
  <g
     aria-label="I(L1)"
     transform="matrix(1.000000,-0.000000,0.000000,1.000000,594.818268,0.000000)"
     id="text155"
     style="font-style:normal;font-variant:normal;font-weight:700;font-size:15px;line-height:125%;font-family:Arial;text-align:start;letter-spacing:0px;word-spacing:0px;text-anchor:start;fill:#008000;fill-opacity:1;stroke:none">
    <path
       d="M -14.805908,13.579102 V 2.8417969 h 2.167969 V 13.579102 Z"
       style="font-style:normal;font-variant:normal;font-weight:700;font-size:15px;font-family:Arial;fill:#008000"
       id="path1143" />
    <path
       d="m -7.1740723,16.73584 h -1.4135742 q -1.1206055,-1.691895 -1.7065425,-3.515625 -0.585938,-1.823731 -0.585938,-3.5302736 0,-2.1166992 0.725098,-4.0063477 0.6298825,-1.640625 1.5966794,-3.0249023 h 1.40625 q -1.003418,2.2192383 -1.3842774,3.7792969 -0.3735351,1.5527344 -0.3735351,3.2958984 0,1.2011723 0.2197266,2.4609373 0.2270507,1.259766 0.6152343,2.39502 0.2563477,0.74707 0.9008789,2.145996 z"
       style="font-style:normal;font-variant:normal;font-weight:700;font-size:15px;font-family:Arial;fill:#008000"
       id="path1145" />
    <path
       d="M -5.5187988,13.579102 V 2.9296875 h 2.1679687 V 11.77002 h 5.390625 v 1.809082 z"
       style="font-style:normal;font-variant:normal;font-weight:700;font-size:15px;font-family:Arial;fill:#008000"
       id="path1147" />
    <path
       d="M 8.3972168,13.579102 H 6.3391113 V 5.8227539 Q 5.2111816,6.8774414 3.6804199,7.3828125 V 5.5151367 Q 4.486084,5.2514648 5.4309082,4.519043 6.3757324,3.7792969 6.7272949,2.7978516 h 1.6699219 z"
       style="font-style:normal;font-variant:normal;font-weight:700;font-size:15px;font-family:Arial;fill:#008000"
       id="path1149" />
    <path
       d="m 11.341553,16.73584 q 0.60791,-1.303711 0.856933,-1.999512 0.249024,-0.695801 0.461426,-1.604004 0.212402,-0.908203 0.314942,-1.721191 0.102539,-0.820313 0.102539,-1.6772463 0,-1.743164 -0.373536,-3.2958984 -0.373535,-1.5600586 -1.376953,-3.7792969 h 1.398926 q 1.105957,1.574707 1.713867,3.3398438 0.615235,1.7651367 0.615235,3.5815429 0,1.5307619 -0.483399,3.2812499 -0.549316,1.962891 -1.809082,3.874512 z"
       style="font-style:normal;font-variant:normal;font-weight:700;font-size:15px;font-family:Arial;fill:#008000"
       id="path1151" />
  </g>
  <path
     style="fill:none;stroke:#008000;stroke-width:0.88251966px;stroke-linecap:round;stroke-linejoin:round;stroke-miterlimit:4;stroke-dasharray:none;stroke-opacity:1"
     d="  M 33.535748,135.90803   L 37.065827,141.20315   L 43.243465,150.02835   L 48.538583,158.85354   L 54.71622,166.79622   L 60.011339,175.62142   L 65.306457,183.56409   L 71.484094,192.38929   L 76.779213,200.33197   L 99.724724,233.86772   L 114.72756,255.04819   L 121.78772,265.63843   L 125.3178,271.81606   L 127.96535,275.34614   L 129.73039,277.11118   L 130.61291,278.87622   L 132.37795,280.64126   L 133.26047,282.4063   L 135.90803,285.05386   L 137.67307,285.93638   L 140.32063,285.93638   L 142.08567,284.17134   L 144.73323,279.75874   L 146.49827,277.11118   L 147.38079,275.34614   L 148.26331,273.5811   L 150.02835,272.69858   L 151.79339,271.81606   L 154.44094,272.69858   L 156.20598,273.5811   L 158.85354,276.22866   L 159.73606,277.9937   L 161.5011,279.75874   L 163.26614,280.64126   L 165.03118,282.4063   L 166.79622,284.17134   L 169.44378,284.17134   L 172.09134,282.4063   L 173.85638,280.64126   L 174.7389,278.87622   L 176.50394,277.11118   L 179.1515,274.46362   L 182.68157,273.5811   L 185.32913,274.46362   L 187.09417,276.22866   L 188.85921,277.11118   L 191.50677,279.75874   L 195.03685,281.52378   L 196.80189,282.4063   L 199.44945,282.4063   L 202.09701,280.64126   L 203.86205,278.87622   L 205.62709,277.11118   L 207.39213,276.22866   L 210.03969,274.46362   L 212.68724,274.46362   L 215.3348,275.34614   L 217.09984,277.11118   L 219.7474,277.9937   L 222.39496,279.75874   L 224.16,280.64126   L 225.92504,281.52378   L 228.5726,281.52378   L 231.22016,279.75874   L 232.9852,278.87622   L 234.75024,277.11118   L 236.51528,277.11118   L 238.28031,276.22866   L 240.04535,275.34614   L 242.69291,275.34614   L 244.45795,276.22866   L 246.22299,277.11118   L 247.98803,277.9937   L 249.75307,278.87622   L 251.51811,279.75874   L 253.28315,277.9937   L 254.16567,276.22866   L 255.04819,274.46362   L 255.93071,272.69858   L 256.81323,270.93354   L 257.69575,269.1685   L 258.57827,266.52094   L 259.46079,264.75591   L 261.22583,262.99087   L 262.10835,261.22583   L 262.99087,259.46079   L 263.87339,257.69575   L 264.75591,255.93071   L 265.63843,254.16567   L 266.52094,252.40063   L 267.40346,250.63559   L 268.28598,248.87055   L 269.1685,247.10551   L 278.87622,227.69008   L 298.29165,189.74173   L 301.82173,181.79906   L 306.23433,173.85638   L 310.64693,165.9137   L 314.17701,157.97102   L 318.58961,150.02835   L 322.11969,142.08567   L 326.53228,134.14299   L 330.94488,126.20031   L 334.47496,118.25764   L 338.88756,110.31496   L 343.30016,102.37228   L 346.83024,94.429606   L 351.24283,87.369449   L 354.77291,79.426772   L 359.18551,71.484094   L 363.59811,63.541417   L 367.12819,55.59874   L 371.54079,47.656063   L 375.07087,39.713386   L 379.48346,31.770709   L 383.89606,37.948346   L 387.42614,43.243465   L 391.83874,49.421102   L 395.36882,54.71622   L 399.78142,60.893858   L 403.3115,66.188976   L 406.84157,72.366614   L 411.25417,77.661732   L 414.78425,83.83937   L 419.19685,89.134488   L 422.72693,95.312126   L 426.25701,100.60724   L 430.66961,106.78488   L 434.19969,112.96252   L 438.61228,118.25764   L 442.14236,124.43528   L 445.67244,129.73039   L 450.08504,135.90803   L 453.61512,141.20315   L 458.02772,147.38079   L 503.91874,214.45228   L 522.45165,241.81039   L 533.92441,258.57827   L 540.10205,267.40346   L 543.63213,273.5811   L 546.27969,276.22866   L 547.1622,277.9937   L 548.04472,279.75874   L 549.80976,281.52378   L 550.69228,283.28882   L 553.33984,285.05386   L 555.10488,285.93638   L 557.75244,285.05386   L 560.4,282.4063   L 561.28252,279.75874   L 563.04756,277.11118   L 564.8126,274.46362   L 566.57764,272.69858   L 568.34268,271.81606   L 570.99024,271.81606   L 572.75528,273.5811   L 574.52031,275.34614   L 576.28535,277.11118   L 578.05039,278.87622   L 578.93291,280.64126   L 581.58047,282.4063   L 583.34551,283.28882   L 585.11055,284.17134   L 587.75811,283.28882   L 590.40567,280.64126   L 591.28819,278.87622   L 593.05323,277.11118   L 593.93575,275.34614   L 595.70079,274.46362   L 597.46583,273.5811   L 599.23087,273.5811   L 601.87843,274.46362   L 603.64346,276.22866   L 605.4085,277.11118   L 607.17354,277.9937   L 608.05606,279.75874   L 609.8211,280.64126   L 611.58614,281.52378   L 614.2337,282.4063   L 615.99874,282.4063   L 618.6463,280.64126   L 620.41134,279.75874   L 622.17638,277.9937   L 623.94142,276.22866   L 625.70646,275.34614   L 627.4715,274.46362   L 630.11906,275.34614   L 631.88409,275.34614   L 633.64913,277.11118   L 635.41417,277.9937   L 637.17921,278.87622   L 638.94425,279.75874   L 640.70929,280.64126   L 643.35685,281.52378   L 645.12189,281.52378   L 647.76945,279.75874   L 649.53449,278.87622   L 651.29953,277.9937   L 653.06457,277.11118   L 654.82961,276.22866   L 656.59465,275.34614   L 659.2422,275.34614   L 661.00724,276.22866   L 662.77228,277.11118   L 664.53732,277.9937   L 666.30236,278.87622   L 668.0674,279.75874   L 670.71496,277.9937   L 671.59748,275.34614   L 673.36252,271.81606   L 675.12756,267.40346   L 677.77512,262.99087   L 679.54016,259.46079   L 682.18772,255.04819   L 683.95276,250.63559   L 685.7178,246.22299   L 688.36535,242.69291   L 690.13039,238.28031   L 692.77795,233.86772   L 694.54299,230.33764   L 696.30803,225.92504   L 698.95559,221.51244   L 700.72063,217.98236   L 703.36819,213.56976   L 705.13323,209.15717   L 706.89827,205.62709   L 709.54583,201.21449   L 711.31087,196.80189   L 713.95843,193.27181   L 717.4885,184.44661   L 721.9011,176.50394   L 726.3137,168.56126   L 729.84378,160.61858   L 734.25638,152.67591   L 738.66898,143.85071   L 742.19906,135.90803   L 746.61165,127.96535   L 751.02425,120.02268   L 754.55433,112.08   L 758.96693,104.13732   L 763.37953,96.194646   L 767.79213,88.251969   L 771.3222,79.426772   L 775.7348,71.484094   L 780.1474,63.541417   L 781.91244,60.011339  "
     id="path157" />
</svg>
